<svg xmlns="http://www.w3.org/2000/svg" xml:space="preserve" viewBox="0 0 7000 3000">
  <path fill="#919691" d="M3577 1192a190 132 0 0 0-189 132 190 132 0 0 0 189 133 190 132 0 0 0 188-133 190 132 0 0 0-188-132z"/>
  <path fill="#05c4c9" d="m4143 705 67-449V34l-303 411z"/>
  <path fill="#2e7d7d" d="m4210 34-454 258a573 531 0 0 0-176-26 573 531 0 0 0-3 0v1062a573 531 0 0 0 3 0 573 531 0 0 0 573-531 573 531 0 0 0-205-406ZM3010 705l-67-449V34l303 411z"/>
  <path fill="#05c4c9" d="m2943 34 262 357a573 531 0 0 0-205 406 573 531 0 0 0 574 531 573 531 0 0 0 3 0V266a573 531 0 0 0-3 0 573 531 0 0 0-176 26z"/>
  <path fill="#b2baa8" d="M3241 699a196 126 30 0 0-94 49 196 126 30 0 0 108 207 196 126 30 0 0 233-12 196 126 30 0 0-108-206 196 126 30 0 0-139-38zm671 0a126 196 60 0 0-139 38 126 196 60 0 0-108 206 126 196 60 0 0 233 12 126 196 60 0 0 108-207 126 196 60 0 0-94-49z"/>
  <path fill="#240a0d" d="m3167 752 93 174 170 18 11-149zm820 0-275 43 11 149 170-18z"/>
  <path fill="#e5d9bf" d="M3332 787a64 64 0 0 0-63 64 64 64 0 0 0 63 64 64 64 0 0 0 64-64 64 64 0 0 0-64-64zm489 0a64 64 0 0 0-63 64 64 64 0 0 0 63 64 64 64 0 0 0 64-64 64 64 0 0 0-64-64z"/>
  <path fill="#240a0d" d="M3469 1150s-16 111-16 147c0 52 55 104 124 104s123-52 123-104c0-36-16-147-16-147h-107z"/>
  <path fill="#05c4c9" d="m3723 944-146-47v253h184z"/>
  <path fill="#2e7d7d" d="m3430 944 147-47v253h-184z"/>
  <path fill="#e5d9bf" d="M3351 1000c-154 121-184 247-32 336 42 24 122 10 257 11v1h1v-1c135-1 215 13 257-11 153-89 122-215-32-336-23 31-214 249-225 321-12-72-202-290-226-321z"/>
  <path fill="#240a0d" d="M3332 788a19 46 0 0 0-18 45 19 46 0 0 0 18 45 19 46 0 0 0 18-45 19 46 0 0 0-18-45zm489 0a19 46 0 0 0-18 45 19 46 0 0 0 18 45 19 46 0 0 0 18-45 19 46 0 0 0-18-45z"/>
  <path fill="#919691" d="M3004 2306a467 467 0 0 0-98 93c-25 53 70 79 59 108-34 94 132 149 132 149l-68 10c32 53 117 92 142 84l-41 83 96-32s2 51 9 74c7 22 63 58 63 58l18-60c3 24 20 114 131 88 0 0-14-16-12-35 55 65 134 13 142 6 7 7 86 59 141-6 2 19-12 35-12 35 111 26 128-64 131-88l18 60s56-36 63-58c7-23 9-74 9-74l96 32-41-83c25 8 110-31 142-84l-67-10s165-55 131-149c-10-29 84-55 59-108a467 467 0 0 0-98-93z"/>
  <path fill="#2e7d7d" d="m3009 1228-36 690 191-168zm1135 0-334 368h-233v1104h220l324-228c63-44 145-130 165-173 44-103-80-232-80-235l-26-146-191-168z"/>
  <path fill="#05c4c9" d="m3009 1228 155 522-191 168-26 146c0 3-124 132-79 235 19 43 102 129 164 173l324 228h221V1596h-234zm1135 0-155 522 191 168z"/>
  <ellipse cx="3311.2" cy="2147.5" fill="#919691" rx="176.2" ry="167.9"/>
  <path fill="#240a0d" d="M3293 2047a111 114 0 0 0-111 114 111 114 0 0 0 1 16l211 28a111 114 0 0 0 9-44 111 114 0 0 0-110-114z"/>
  <path fill="#e5d9bf" d="M3304 2087a48 46 5 0 1 44 51 48 46 5 0 1-52 41 48 46 5 0 1-44-49 48 46 5 0 1 52-43zm0 1a14 35 5 0 0-18 34 14 35 5 0 0 12 36 14 35 5 0 0 17-34 14 35 5 0 0-11-36z"/>
  <ellipse cx="3311.2" cy="2147.5" fill="#919691" rx="176.2" ry="167.9"/>
  <path fill="#240a0d" d="M3293 2047a111 114 0 0 0-111 114 111 114 0 0 0 1 16l211 28a111 114 0 0 0 9-44 111 114 0 0 0-110-114z"/>
  <path fill="#e5d9bf" d="M3304 2087a48 46 5 0 1 44 51 48 46 5 0 1-52 41 48 46 5 0 1-44-49 48 46 5 0 1 52-43zm0 1a14 35 5 0 0-18 34 14 35 5 0 0 12 36 14 35 5 0 0 17-34 14 35 5 0 0-11-36z"/>
  <ellipse cx="-3842" cy="2147.5" fill="#919691" rx="176.2" ry="167.9" transform="scale(-1 1)"/>
  <path fill="#240a0d" d="M3861 2047a111 114 0 0 1 110 114 111 114 0 0 1-1 16l-211 28a111 114 0 0 1-9-44 111 114 0 0 1 111-114z"/>
  <path fill="#e5d9bf" d="M3848 2087a46 48 84 0 0-43 52 46 48 84 0 0 53 40 46 48 84 0 0 43-50 46 48 84 0 0-53-42zm0 1a35 14 84 0 1 19 33 35 14 84 0 1-11 37 35 14 84 0 1-19-33 35 14 84 0 1 11-37z"/>
  <ellipse cx="-3842" cy="2147.5" fill="#919691" rx="176.2" ry="167.9" transform="scale(-1 1)"/>
  <path fill="#240a0d" d="M3861 2047a111 114 0 0 1 110 114 111 114 0 0 1-1 16l-211 28a111 114 0 0 1-9-44 111 114 0 0 1 111-114z"/>
  <path fill="#e5d9bf" d="M3848 2087a46 48 84 0 0-43 52 46 48 84 0 0 53 40 46 48 84 0 0 43-50 46 48 84 0 0-53-42zm0 1a35 14 84 0 1 19 33 35 14 84 0 1-11 37 35 14 84 0 1-19-33 35 14 84 0 1 11-37z"/>
  <path fill="#919691" d="M3311 1979a176 168 0 0 0-176 169 176 168 0 0 0 176 167 176 168 0 0 0 176-167 176 168 0 0 0-176-169zm531 0a176 168 0 0 0-176 169 176 168 0 0 0 176 167 176 168 0 0 0 176-167 176 168 0 0 0-176-169z"/>
  <path fill="#240a0d" d="M3293 2047a111 114 0 0 0-111 114 111 114 0 0 0 1 16l211 28a111 114 0 0 0 9-44 111 114 0 0 0-110-114zm568 0a111 114 0 0 0-111 114 111 114 0 0 0 9 44l211-28a111 114 0 0 0 1-16 111 114 0 0 0-110-114z"/>
  <path fill="#e5d9bf" d="M3855 2087a46 48 84 0 0-7 0 46 48 84 0 0-43 52 46 48 84 0 0 53 40 46 48 84 0 0 43-50 46 48 84 0 0-46-42zm-558 0a48 46 5 0 0-45 43 48 46 5 0 0 44 49 48 46 5 0 0 52-41 48 46 5 0 0-44-51 48 46 5 0 0-7 0zm7 1a14 35 5 0 1 11 36 14 35 5 0 1-17 34 14 35 5 0 1-12-36 14 35 5 0 1 18-34zm544 0a35 14 84 0 1 19 33 35 14 84 0 1-11 37 35 14 84 0 1-19-33 35 14 84 0 1 11-37z"/>
  <path fill="#240a0d" d="M3360 2680a179 179 0 0 0 160 133h103c50 0 134-40 160-133-142-323-283-275-423 0z"/>
  <path fill="#e5d9bf" d="M3578 1929c-22 0-45 1-65 5-34 5-53 21-59 40-7 18-33 408-42 443s-103 153-111 183c-8 29 48 127 122 134 83 9 226 9 308 0 73-7 130-105 121-134-8-30-102-148-111-183s-35-425-42-443c-6-19-25-35-59-40-17-3-39-5-62-5zm-2 579c53 0 106 24 112 72 5 44-4 86-62 86h-99c-58 0-68-43-62-86 6-48 58-72 111-72z"/>
  <path fill="#05c4c9" d="m6934 966-129 393h-125l-128-393h119l54 199 6 29 8 35 4 28 4-28 6-34 7-29 55-200zm-404 196q0 45-11 83-10 37-34 64t-59 41q-36 14-87 14-49 0-86-14-36-15-59-41-23-27-35-64-11-38-11-84 0-61 20-106 21-46 63-70 43-25 109-25 67 0 109 25t62 70 19 107zm-270 0q0 35 8 61t25 39q18 14 46 14 29 0 47-14 17-14 25-39 7-26 7-61 0-53-17-84t-61-31q-29 0-47 14-17 14-25 39-8 26-8 62zm-168 197h-107v-160h-123v160h-107V966h107v146h123V966h107zm-510-312q-19 0-34 8t-25 23q-11 15-16 37-6 22-6 49 0 37 10 62 9 26 28 38 19 13 49 13 26 0 50-7 25-7 49-17v89q-26 12-53 17t-58 5q-64 0-105-25-40-26-60-71-19-45-19-105 0-44 12-81 13-37 37-65 24-27 60-42t82-15q28 0 60 7 31 6 61 21l-32 83q-22-10-44-17t-46-7zm-283-199-22 28a2134 2134 0 0 1-49 53v8h70a666 666 0 0 0 59-41 3379 3379 0 0 0 57-42v-6zm-70 118v393h107V966Zm-359 393-80-283h-3l2 30 3 40 1 42v171h-94V966h141l82 279h2l81-279h141v393h-97v-212l2-41 2-30h-3l-79 283zm-233-121q0 32-16 61t-50 46q-34 18-88 18-27 0-47-2-20-3-38-8l-36-15v-94q32 16 64 25 33 8 59 8 16 0 26-4t15-10q5-7 5-15 0-11-7-18t-23-15l-41-19q-22-10-40-21-17-11-30-24-12-14-19-33t-7-44q0-38 19-63 19-26 52-39 34-13 78-13 38 0 69 9 31 8 55 19l-33 82q-25-11-49-18-25-7-46-7-13 0-22 4-9 3-13 8-4 6-4 13 0 10 7 17t24 16l46 21q28 13 49 28 20 15 30 36 11 21 11 51z"/>
  <path fill="#2e7d7d" d="m2673 1359-20-74h-127l-20 74h-117l128-395h142l130 395zm-42-161-17-64-8-30-10-41-7-34-7 33-9 39-8 33-17 64zm-274 161h-140l-143-277h-3l3 30 2 37v210h-94V966h139l143 273h2l-2-30-2-35V966h95zm-566 0V966h106v393zm-242-393q53 0 89 13 35 13 53 39t18 64q0 24-8 43-8 20-23 36-15 15-36 27l115 171h-120l-84-143h-27v143h-106V966Zm-2 80h-21v90h20q25 0 40-11 16-11 16-38 0-19-13-30t-42-11zm-196 313h-233V966h233v85h-127v62h118v85h-118v74h127zm-377 0H868v-306h-96v-87h298v87h-96zm-250 0H491V966h233v85H597v62h118v85H597v74h127ZM448 966l-129 393H194L66 966h120l53 199 7 29 7 35q4 17 4 28l4-28 7-34 7-29 54-200z"/>
</svg>
