<svg xmlns="http://www.w3.org/2000/svg" xml:space="preserve" viewBox="0 0 14000 1800">
  <path fill="#919691" d="M758 1378a208 145 0 0 0-206 145 208 145 0 0 0 206 145 208 145 0 0 0 207-145 208 145 0 0 0-207-145Z"/>
  <path fill="#05c4c9" d="m1377 847 73-491V114l-331 449z"/>
  <path fill="#2e7d7d" d="M1450 114 954 396a626 580 0 0 0-192-29 626 580 0 0 0-4 0v1160a626 580 0 0 0 4 0 626 580 0 0 0 626-580 626 580 0 0 0-224-443zM140 847 67 356V114l330 449Z"/>
  <path fill="#05c4c9" d="m67 114 286 390a626 580 0 0 0-224 443 626 580 0 0 0 626 580 626 580 0 0 0 3 0V367a626 580 0 0 0-3 0 626 580 0 0 0-192 29z"/>
  <path fill="#b2baa8" d="M392 841a214 138 30 0 0-103 53 214 138 30 0 0 118 226 214 138 30 0 0 255-13 214 138 30 0 0-118-226 214 138 30 0 0-152-40Zm733 0a138 214 60 0 0-152 40 138 214 60 0 0-118 226 138 214 60 0 0 255 13 138 214 60 0 0 118-226 138 214 60 0 0-103-53z"/>
  <path fill="#240a0d" d="m311 898 101 190 186 20 12-163zm895 0-299 47 12 163 185-20z"/>
  <path fill="#e5d9bf" d="M492 936a70 70 0 0 0-70 70 70 70 0 0 0 70 70 70 70 0 0 0 69-70 70 70 0 0 0-69-70zm533 0a70 70 0 0 0-69 70 70 70 0 0 0 69 70 70 70 0 0 0 70-70 70 70 0 0 0-70-70z"/>
  <path fill="#240a0d" d="M641 1333s-17 121-17 160c0 57 60 114 134 114 75 0 135-57 135-114 0-39-17-160-17-160H758Z"/>
  <path fill="#05c4c9" d="m919 1108-161-51v276h201z"/>
  <path fill="#2e7d7d" d="m598 1108 160-51v276H558Z"/>
  <path fill="#e5d9bf" d="M513 1168c-169 133-202 270-36 367 46 27 133 12 281 13v1h1v-1c148-1 235 14 281-13 166-97 133-234-36-367-25 35-233 273-246 351-12-78-220-316-245-351z"/>
  <path fill="#240a0d" d="M492 937a20 50 0 0 0-21 50 20 50 0 0 0 21 49 20 50 0 0 0 20-49 20 50 0 0 0-20-50zm533 0a20 50 0 0 0-20 50 20 50 0 0 0 20 49 20 50 0 0 0 21-49 20 50 0 0 0-21-50z"/>
  <path fill="#919691" d="M12641 1109a467 467 0 0 0-97 93c-25 53 69 79 59 108-34 95 131 149 131 149l-67 10c32 54 117 93 142 84l-41 83 96-31s1 51 9 73c7 23 63 59 63 59l18-61c3 25 20 115 131 88 0 0-14-15-12-35 55 65 134 13 141 6 7 7 87 59 142-6 1 20-12 35-12 35 111 27 128-63 130-88l19 61s56-36 63-59c7-22 9-73 9-73l96 31-41-83c25 9 110-30 142-84l-68-10s166-54 132-149c-11-29 84-55 59-108a467 467 0 0 0-98-93z"/>
  <path fill="#2e7d7d" d="m12647 31-36 690 191-168zm1135 0-335 369h-233v1103h221l323-227c63-45 146-130 165-173 45-104-79-233-80-236l-25-146-191-168z"/>
  <path fill="#05c4c9" d="m12647 31 155 522-191 168-26 146c-1 3-125 132-80 236 20 43 102 128 165 173l324 227h220V400h-233zm1135 0-155 522 191 168z"/>
  <ellipse cx="12948.8" cy="950.7" fill="#919691" rx="176.2" ry="167.9"/>
  <path fill="#240a0d" d="M12930 850a111 114 0 0 0-110 114 111 114 0 0 0 1 16l211 28a111 114 0 0 0 9-44 111 114 0 0 0-111-114z"/>
  <path fill="#e5d9bf" d="M12942 890a48 46 5 0 1 43 51 48 46 5 0 1-51 42 48 46 5 0 1-45-50 48 46 5 0 1 53-43zm0 2a14 35 5 0 0-18 33 14 35 5 0 0 12 36 14 35 5 0 0 17-33 14 35 5 0 0-11-36z"/>
  <ellipse cx="12948.8" cy="950.7" fill="#919691" rx="176.2" ry="167.9"/>
  <path fill="#240a0d" d="M12930 850a111 114 0 0 0-110 114 111 114 0 0 0 1 16l211 28a111 114 0 0 0 9-44 111 114 0 0 0-111-114z"/>
  <path fill="#e5d9bf" d="M12942 890a48 46 5 0 1 43 51 48 46 5 0 1-51 42 48 46 5 0 1-45-50 48 46 5 0 1 53-43zm0 2a14 35 5 0 0-18 33 14 35 5 0 0 12 36 14 35 5 0 0 17-33 14 35 5 0 0-11-36z"/>
  <ellipse cx="-13479.7" cy="950.7" fill="#919691" rx="176.2" ry="167.9" transform="scale(-1 1)"/>
  <path fill="#240a0d" d="M13498 850a111 114 0 0 1 111 114 111 114 0 0 1-2 16l-211 28a111 114 0 0 1-9-44 111 114 0 0 1 111-114z"/>
  <path fill="#e5d9bf" d="M13486 890a46 48 84 0 0-43 52 46 48 84 0 0 53 41 46 48 84 0 0 42-51 46 48 84 0 0-52-42zm0 2a35 14 84 0 1 18 33 35 14 84 0 1-10 36 35 14 84 0 1-19-33 35 14 84 0 1 11-36z"/>
  <ellipse cx="-13479.7" cy="950.7" fill="#919691" rx="176.2" ry="167.9" transform="scale(-1 1)"/>
  <path fill="#240a0d" d="M13498 850a111 114 0 0 1 111 114 111 114 0 0 1-2 16l-211 28a111 114 0 0 1-9-44 111 114 0 0 1 111-114z"/>
  <path fill="#e5d9bf" d="M13486 890a46 48 84 0 0-43 52 46 48 84 0 0 53 41 46 48 84 0 0 42-51 46 48 84 0 0-52-42zm0 2a35 14 84 0 1 18 33 35 14 84 0 1-10 36 35 14 84 0 1-19-33 35 14 84 0 1 11-36z"/>
  <path fill="#919691" d="M12949 783a176 168 0 0 0-176 168 176 168 0 0 0 176 168 176 168 0 0 0 176-168 176 168 0 0 0-176-168zm531 0a176 168 0 0 0-176 168 176 168 0 0 0 176 168 176 168 0 0 0 176-168 176 168 0 0 0-176-168z"/>
  <path fill="#240a0d" d="M12930 850a111 114 0 0 0-110 114 111 114 0 0 0 1 16l211 28a111 114 0 0 0 9-44 111 114 0 0 0-111-114zm568 0a111 114 0 0 0-111 114 111 114 0 0 0 9 44l211-28a111 114 0 0 0 2-16 111 114 0 0 0-111-114z"/>
  <path fill="#e5d9bf" d="M13493 890a46 48 84 0 0-7 0 46 48 84 0 0-43 52 46 48 84 0 0 53 41 46 48 84 0 0 42-51 46 48 84 0 0-45-42zm-559 0a48 46 5 0 0-45 43 48 46 5 0 0 45 50 48 46 5 0 0 51-42 48 46 5 0 0-43-51 48 46 5 0 0-8 0zm8 2a14 35 5 0 1 11 36 14 35 5 0 1-17 33 14 35 5 0 1-12-36 14 35 5 0 1 18-33zm544 0a35 14 84 0 1 18 33 35 14 84 0 1-10 36 35 14 84 0 1-19-33 35 14 84 0 1 11-36z"/>
  <path fill="#240a0d" d="M12997 1484a179 179 0 0 0 160 132h104c50 0 134-39 160-132-143-323-283-275-424 0z"/>
  <path fill="#e5d9bf" d="M13216 732c-22 0-45 1-65 5-34 5-53 22-60 40-6 19-32 408-41 444-9 34-103 152-111 182-9 29 48 127 121 135 84 9 227 9 308 0 74-8 130-106 122-135-8-30-103-148-112-182-9-36-34-425-41-444-6-18-25-35-59-40-18-3-39-5-62-5zm-2 579c53 0 106 24 112 72 5 44-4 86-63 86h-98c-59 0-68-43-63-86 6-48 59-72 112-72z"/>
  <path fill="#05c4c9" d="m12158 602-243 740h-235l-242-740h225l101 375 12 54 14 66q7 33 8 54 2-21 8-53 5-33 12-65l13-54 103-377zm-760 369q0 85-21 155-20 70-64 121-43 50-112 78-68 27-163 27-93 0-161-27-68-28-112-78t-66-121q-21-70-21-156 0-116 38-201 39-85 119-132t204-47q127 0 206 47t116 133q37 85 37 201zm-509 0q0 66 15 114t48 74q33 26 86 26 55 0 88-26 32-26 47-74 14-48 14-114 0-101-33-159t-115-58q-54 0-88 26-32 27-48 75-14 49-14 116zm-317 371h-201v-302h-232v302h-201V602h201v274h232V602h201zm-960-587q-36 0-64 15t-47 43q-20 28-31 69-10 41-10 93 0 69 18 117t54 72q36 24 91 24 49 0 95-14 46-13 92-32v169q-49 21-100 31t-109 10q-121 0-197-48-77-48-113-133t-36-197q0-84 23-154 24-70 69-121 46-52 113-80t154-28q53 0 112 13 60 12 117 39l-61 157q-41-19-82-32-42-13-88-13zm-533-375a4017 4017 0 0 1-134 151v15h132a1255 1255 0 0 0 111-76 6361 6361 0 0 0 107-79v-11zm-131 222v740h200V602Zm-676 740-152-533h-4l4 56 4 76 2 79v322h-177V602h266l155 525h4l151-525h267v740h-184v-325l1-75 3-76 4-56h-5l-149 532zm-439-227q0 60-30 114-31 54-95 87-64 34-165 34-51 0-89-5-38-4-71-14-33-11-68-28v-178q60 30 121 47 61 15 111 15 30 0 49-7t28-19q9-13 9-29 0-19-14-32-13-14-42-29l-78-36q-41-19-74-40-33-20-57-46-23-26-36-61-12-35-12-82 0-72 35-120t98-73q63-24 146-24 72 0 130 16t104 37l-61 155q-48-22-94-35t-85-13q-26 0-43 7-16 6-24 16-8 11-8 25 0 17 13 30 14 14 45 30l87 41q54 25 92 53t58 67q20 39 20 97z"/>
  <path fill="#2e7d7d" d="m6744 1342-36-139h-241l-37 139h-220l242-743h266l245 743zm-78-303-32-122-14-56-20-76-14-65q-4 26-13 63l-17 74-15 60-32 122Zm-517 303h-262l-270-522h-5l5 57 3 69 2 62v334h-177V602h261l269 514h3l-3-56-3-66-1-58V602h178zm-1065 0V602h201v740zm-456-740q101 0 168 24 67 25 100 73 34 49 34 121 0 45-15 82t-44 66q-28 29-66 51l215 323h-227l-157-270h-50v270h-200V602Zm-3 151h-39v169h37q46 0 76-20 29-21 29-73 0-36-24-56-25-20-79-20zm-369 589h-439V602h439v160h-239v116h222v161h-222v140h239zm-710 0h-200V765h-180V602h560v163h-180zm-471 0h-439V602h439v160h-239v116h221v161h-221v140h239zm-519-740-243 740h-235l-241-740h224l101 375 13 54 13 66q7 33 8 54 2-21 8-53l12-65 13-54 103-377z"/>
</svg>
