<svg xmlns="http://www.w3.org/2000/svg" xml:space="preserve" viewBox="0 0 3500 3500">
  <path fill="#919691" d="M887 2166a208 145 0 0 0-206 144 208 145 0 0 0 206 145 208 145 0 0 0 206-145 208 145 0 0 0-206-144z"/>
  <path fill="#05c4c9" d="m1506 1634 72-491V902l-330 449z"/>
  <path fill="#2e7d7d" d="m1578 902-496 281a626 580 0 0 0-192-28 626 580 0 0 0-3 0v1160a626 580 0 0 0 3 0 626 580 0 0 0 626-580 626 580 0 0 0-224-444ZM268 1634l-73-491V902l331 449z"/>
  <path fill="#05c4c9" d="m195 902 287 389a626 580 0 0 0-224 444 626 580 0 0 0 626 580 626 580 0 0 0 3 0V1155a626 580 0 0 0-3 0 626 580 0 0 0-193 28z"/>
  <path fill="#b2baa8" d="M521 1628a214 138 30 0 0-103 53 214 138 30 0 0 118 226 214 138 30 0 0 254-13 214 138 30 0 0-118-225 214 138 30 0 0-151-41zm732 0a138 214 60 0 0-151 41 138 214 60 0 0-118 225 138 214 60 0 0 254 13 138 214 60 0 0 118-226 138 214 60 0 0-103-53z"/>
  <path fill="#240a0d" d="m439 1685 102 191 186 19 12-163zm896 0-300 47 12 163 186-19z"/>
  <path fill="#e5d9bf" d="M620 1723a70 70 0 0 0-69 71 70 70 0 0 0 69 69 70 70 0 0 0 69-69 70 70 0 0 0-69-71zm534 0a70 70 0 0 0-69 71 70 70 0 0 0 69 69 70 70 0 0 0 69-69 70 70 0 0 0-69-71z"/>
  <path fill="#240a0d" d="M769 2120s-17 121-17 160c0 58 61 115 135 115s135-58 135-115c0-39-17-160-17-160H887z"/>
  <path fill="#05c4c9" d="m1047 1895-160-51v276h201z"/>
  <path fill="#2e7d7d" d="m727 1895 160-51v276H686z"/>
  <path fill="#e5d9bf" d="M641 1956c-169 133-202 270-35 367 45 26 133 11 280 13h2c147-2 235 13 280-13 167-97 134-234-35-367-25 35-233 272-246 351-13-79-221-316-246-351z"/>
  <path fill="#240a0d" d="M620 1724a20 50 0 0 0-20 50 20 50 0 0 0 20 50 20 50 0 0 0 20-50 20 50 0 0 0-20-50zm534 0a20 50 0 0 0-20 50 20 50 0 0 0 20 50 20 50 0 0 0 20-50 20 50 0 0 0-20-50z"/>
  <path fill="#919691" d="M2035 1928a467 467 0 0 0-97 92c-26 53 69 80 59 108-34 95 131 150 131 150l-68 10c33 53 118 92 142 84l-40 82 96-31s1 51 9 73c7 23 63 59 63 59l18-61c3 25 20 115 131 89 0 0-14-16-12-35 55 65 134 12 141 6 7 6 86 59 142-6 1 19-12 35-12 35 110 26 128-64 130-89l19 61s56-36 63-59c7-22 9-73 9-73l96 31-41-82c24 8 110-31 142-84l-68-10s166-55 131-150c-10-28 85-55 60-108a467 467 0 0 0-98-92z"/>
  <path fill="#2e7d7d" d="m2041 849-36 691 191-169zm1135 0-335 369h-233v1104h221l323-228c63-44 146-130 165-173 45-103-79-233-80-236l-25-145-192-169z"/>
  <path fill="#05c4c9" d="m2041 849 155 522-191 169-26 145c-1 3-125 133-80 236 19 43 102 129 165 173l324 228h220V1218h-233zm1135 0-156 522 192 169z"/>
  <ellipse cx="2342.8" cy="1769.1" fill="#919691" rx="176.2" ry="167.9"/>
  <path fill="#240a0d" d="M2324 1669a111 114 0 0 0-110 114 111 114 0 0 0 1 16l211 28a111 114 0 0 0 9-44 111 114 0 0 0-111-114z"/>
  <path fill="#e5d9bf" d="M2336 1709a48 46 5 0 1 43 50 48 46 5 0 1-51 42 48 46 5 0 1-45-50 48 46 5 0 1 53-42zm0 1a14 35 5 0 0-18 34 14 35 5 0 0 12 36 14 35 5 0 0 17-34 14 35 5 0 0-11-36z"/>
  <ellipse cx="2342.8" cy="1769.1" fill="#919691" rx="176.2" ry="167.9"/>
  <path fill="#240a0d" d="M2324 1669a111 114 0 0 0-110 114 111 114 0 0 0 1 16l211 28a111 114 0 0 0 9-44 111 114 0 0 0-111-114z"/>
  <path fill="#e5d9bf" d="M2336 1709a48 46 5 0 1 43 50 48 46 5 0 1-51 42 48 46 5 0 1-45-50 48 46 5 0 1 53-42zm0 1a14 35 5 0 0-18 34 14 35 5 0 0 12 36 14 35 5 0 0 17-34 14 35 5 0 0-11-36z"/>
  <ellipse cx="-2873.6" cy="1769.1" fill="#919691" rx="176.2" ry="167.9" transform="scale(-1 1)"/>
  <path fill="#240a0d" d="M2892 1669a111 114 0 0 1 111 114 111 114 0 0 1-2 16l-211 28a111 114 0 0 1-9-44 111 114 0 0 1 111-114z"/>
  <path fill="#e5d9bf" d="M2880 1709a46 48 84 0 0-43 51 46 48 84 0 0 53 41 46 48 84 0 0 42-51 46 48 84 0 0-52-41zm0 1a35 14 84 0 1 18 33 35 14 84 0 1-11 37 35 14 84 0 1-18-33 35 14 84 0 1 11-37z"/>
  <ellipse cx="-2873.6" cy="1769.1" fill="#919691" rx="176.2" ry="167.9" transform="scale(-1 1)"/>
  <path fill="#240a0d" d="M2892 1669a111 114 0 0 1 111 114 111 114 0 0 1-2 16l-211 28a111 114 0 0 1-9-44 111 114 0 0 1 111-114z"/>
  <path fill="#e5d9bf" d="M2880 1709a46 48 84 0 0-43 51 46 48 84 0 0 53 41 46 48 84 0 0 42-51 46 48 84 0 0-52-41zm0 1a35 14 84 0 1 18 33 35 14 84 0 1-11 37 35 14 84 0 1-18-33 35 14 84 0 1 11-37z"/>
  <path fill="#919691" d="M2343 1601a176 168 0 0 0-176 168 176 168 0 0 0 176 168 176 168 0 0 0 176-168 176 168 0 0 0-176-168zm531 0a176 168 0 0 0-177 168 176 168 0 0 0 177 168 176 168 0 0 0 176-168 176 168 0 0 0-176-168z"/>
  <path fill="#240a0d" d="M2324 1669a111 114 0 0 0-110 114 111 114 0 0 0 1 16l211 28a111 114 0 0 0 9-44 111 114 0 0 0-111-114zm568 0a111 114 0 0 0-111 114 111 114 0 0 0 9 44l211-28a111 114 0 0 0 2-16 111 114 0 0 0-111-114z"/>
  <path fill="#e5d9bf" d="M2887 1709a46 48 84 0 0-7 0 46 48 84 0 0-43 51 46 48 84 0 0 53 41 46 48 84 0 0 42-51 46 48 84 0 0-45-41zm-559 0a48 46 5 0 0-45 42 48 46 5 0 0 45 50 48 46 5 0 0 51-42 48 46 5 0 0-43-50 48 46 5 0 0-8 0zm8 1a14 35 5 0 1 11 36 14 35 5 0 1-17 34 14 35 5 0 1-12-36 14 35 5 0 1 18-34zm544 0a35 14 84 0 1 18 33 35 14 84 0 1-11 37 35 14 84 0 1-18-33 35 14 84 0 1 11-37z"/>
  <path fill="#240a0d" d="M2391 2302a179 179 0 0 0 160 133h104c50 0 134-40 160-133-143-323-284-275-424 0z"/>
  <path fill="#e5d9bf" d="M2610 1551c-22 0-46 1-65 4-34 6-53 22-60 41-6 18-32 408-41 443s-103 153-111 182c-9 30 47 127 121 135 84 9 227 9 308 0 74-8 130-105 122-135-9-29-103-147-112-182s-34-425-41-443c-7-19-25-35-59-41-18-3-39-4-62-4zm-2 578c53 0 106 24 112 72 5 44-5 87-63 87h-99c-58 0-67-43-62-87 6-48 59-72 112-72z"/>
  <path fill="#05c4c9" d="m3377 2892-158 483h-154l-157-483h146l66 245 8 35 9 43 5 35 5-34 8-43 9-35 67-246zm-498 241q0 56-13 102-13 45-42 78-28 33-73 51-44 17-106 17-61 0-106-17-44-18-73-51-28-33-42-78-14-46-14-103 0-75 25-131 25-55 77-86 52-30 133-30 83 0 134 30 52 31 76 87t24 131zm-332 0q0 43 10 75 10 31 31 48 22 17 57 17 36 0 57-17t30-48q10-32 10-75 0-66-22-104-22-37-75-37-35 0-57 17-21 17-31 49-10 31-10 75zm-225 242h-131v-197h-152v197h-131v-483h131v179h152v-179h131zm-640-383q-23 0-41 10t-31 28q-13 19-20 45-6 27-6 60 0 46 11 77 12 31 35 47 24 16 60 16 32 0 62-9t60-22v111q-32 14-66 20-33 6-71 6-78 0-128-31t-74-86q-23-56-23-129 0-55 15-101 15-45 45-78 30-34 73-52 44-19 101-19 35 0 73 8 39 8 76 26l-40 103q-26-13-53-21-27-9-58-9zm-362-244-27 33a2621 2621 0 0 1-60 66v9h85a818 818 0 0 0 73-49 4150 4150 0 0 0 70-52v-7zm-86 144v483h131v-483zm-464 483-98-348h-3l2 37 3 50 2 51v210H560v-483h174l100 343h3l99-343h174v483H990v-212l1-49 2-49 2-37h-3l-98 347zm-303-148q0 39-19 75-19 35-59 56-40 22-103 22-32 0-56-3t-44-9q-21-7-43-18v-116q38 19 76 30 38 10 69 10 19 0 31-4 12-5 17-13 6-8 6-19 0-12-9-21-8-9-26-18l-48-24q-26-13-47-26-20-13-35-30t-23-40q-8-23-8-54 0-46 22-78 22-31 61-47 40-16 91-16 46 0 82 11 36 10 65 24l-39 100q-29-14-58-22-29-9-53-9-16 0-27 5-10 4-15 10-5 7-5 16 0 12 8 20 9 9 29 20l54 27q33 16 57 34t36 44q13 25 13 63z"/>
  <path fill="#2e7d7d" d="m3279 643-23-90h-157l-25 90h-143l158-484h174l159 484zm-50-197-21-79-10-37-12-50-10-42-8 41-11 48-10 40-21 79zm-338 197h-171l-176-340h-3l3 37 2 45 1 41v217h-115V161h170l176 335h2l-2-37-2-42-1-38V161h116zm-695 0V161h131v482zm-297-482q66 0 109 16 44 16 66 47 22 32 22 79 0 30-10 54t-28 43q-19 19-44 33l141 210h-148l-103-175h-33v175h-130V161Zm-2 98h-26v111h25q30 0 49-14 19-13 19-47 0-23-16-37-15-13-51-13zm-240 384h-287V161h287v104h-157v76h145v105h-145v91h157zm-464 0h-130V267H945V161h366v106h-118Zm-307 0H599V161h287v104H730v76h144v105H730v91h156ZM547 161 389 643H235L78 161h147l65 244 9 36 8 43q5 21 6 35l5-35 8-42q4-22 8-35l67-246z"/>
</svg>
