<svg xmlns="http://www.w3.org/2000/svg" xml:space="preserve" viewBox="0 0 7000 1800">
  <path fill="#919691" d="M783 1387a208 145 0 0 0-206 145 208 145 0 0 0 206 145 208 145 0 0 0 207-145 208 145 0 0 0-207-145z"/>
  <path fill="#05c4c9" d="m1402 856 73-491V123l-331 449z"/>
  <path fill="#2e7d7d" d="M1475 123 979 405a626 580 0 0 0-192-29 626 580 0 0 0-4 0v1160a626 580 0 0 0 4 0 626 580 0 0 0 626-580 626 580 0 0 0-224-443ZM165 856 92 365V123l330 449z"/>
  <path fill="#05c4c9" d="m92 123 286 390a626 580 0 0 0-224 443 626 580 0 0 0 626 580 626 580 0 0 0 3 0V376a626 580 0 0 0-3 0 626 580 0 0 0-192 29z"/>
  <path fill="#b2baa8" d="M417 850a214 138 30 0 0-103 53 214 138 30 0 0 118 226 214 138 30 0 0 254-13 214 138 30 0 0-117-226 214 138 30 0 0-152-40zm733 0a138 214 60 0 0-152 40 138 214 60 0 0-118 226 138 214 60 0 0 255 13 138 214 60 0 0 118-226 138 214 60 0 0-103-53z"/>
  <path fill="#240a0d" d="m336 907 101 190 186 20 12-163zm895 0-299 47 11 163 186-20z"/>
  <path fill="#e5d9bf" d="M517 945a70 70 0 0 0-70 70 70 70 0 0 0 70 70 70 70 0 0 0 69-70 70 70 0 0 0-69-70zm533 0a70 70 0 0 0-69 70 70 70 0 0 0 69 70 70 70 0 0 0 70-70 70 70 0 0 0-70-70z"/>
  <path fill="#240a0d" d="M665 1342s-17 121-17 160c0 57 61 114 135 114s135-57 135-114c0-39-17-160-17-160H783z"/>
  <path fill="#05c4c9" d="m943 1117-160-51v276h201z"/>
  <path fill="#2e7d7d" d="m623 1117 160-51v276H582z"/>
  <path fill="#e5d9bf" d="M537 1177c-168 133-201 270-35 367 46 27 133 12 281 13v1h1v-1c148-1 235 14 281-13 166-97 133-234-36-367-25 35-233 273-246 351-13-78-220-316-246-351z"/>
  <path fill="#240a0d" d="M517 946a20 50 0 0 0-21 50 20 50 0 0 0 21 49 20 50 0 0 0 19-49 20 50 0 0 0-19-50zm533 0a20 50 0 0 0-20 50 20 50 0 0 0 20 49 20 50 0 0 0 20-49 20 50 0 0 0-20-50z"/>
  <path fill="#919691" d="M5617 1109a467 467 0 0 0-98 93c-25 53 69 79 59 108-34 95 131 149 131 149l-67 10c32 54 117 93 142 84l-41 83 96-31s2 51 9 73c7 23 63 59 63 59l18-61c3 25 20 115 131 88 0 0-14-15-12-35 55 65 134 13 141 6 8 7 87 59 142-6 2 20-12 35-12 35 111 27 128-63 130-88l19 61s56-36 63-59c7-22 9-73 9-73l96 31-41-83c25 9 110-30 142-84l-68-10s166-54 132-149c-11-29 84-55 59-108a467 467 0 0 0-98-93z"/>
  <path fill="#2e7d7d" d="m5622 31-36 690 191-168zm1135 0-334 369h-234v1103h221l324-227c62-45 145-130 164-173 45-104-79-233-79-236l-26-146-191-168Z"/>
  <path fill="#05c4c9" d="m5622 31 155 522-191 168-26 146c0 3-124 132-80 236 20 43 102 128 165 173l324 227h220V400h-233zm1135 0-155 522 191 168z"/>
  <ellipse cx="5924" cy="950.7" fill="#919691" rx="176.2" ry="167.9"/>
  <path fill="#240a0d" d="M5905 850a111 114 0 0 0-110 114 111 114 0 0 0 1 16l211 28a111 114 0 0 0 9-44 111 114 0 0 0-111-114z"/>
  <path fill="#e5d9bf" d="M5917 890a48 46 5 0 1 43 51 48 46 5 0 1-51 42 48 46 5 0 1-44-50 48 46 5 0 1 52-43zm0 2a14 35 5 0 0-18 33 14 35 5 0 0 12 36 14 35 5 0 0 17-33 14 35 5 0 0-11-36z"/>
  <ellipse cx="5924" cy="950.7" fill="#919691" rx="176.2" ry="167.9"/>
  <path fill="#240a0d" d="M5905 850a111 114 0 0 0-110 114 111 114 0 0 0 1 16l211 28a111 114 0 0 0 9-44 111 114 0 0 0-111-114z"/>
  <path fill="#e5d9bf" d="M5917 890a48 46 5 0 1 43 51 48 46 5 0 1-51 42 48 46 5 0 1-44-50 48 46 5 0 1 52-43zm0 2a14 35 5 0 0-18 33 14 35 5 0 0 12 36 14 35 5 0 0 17-33 14 35 5 0 0-11-36z"/>
  <ellipse cx="-6454.8" cy="950.7" fill="#919691" rx="176.2" ry="167.9" transform="scale(-1 1)"/>
  <path fill="#240a0d" d="M6473 850a111 114 0 0 1 111 114 111 114 0 0 1-1 16l-211 28a111 114 0 0 1-9-44 111 114 0 0 1 110-114z"/>
  <path fill="#e5d9bf" d="M6461 890a46 48 84 0 0-43 52 46 48 84 0 0 53 41 46 48 84 0 0 43-51 46 48 84 0 0-53-42zm0 2a35 14 84 0 1 18 33 35 14 84 0 1-10 36 35 14 84 0 1-19-33 35 14 84 0 1 11-36z"/>
  <ellipse cx="-6454.8" cy="950.7" fill="#919691" rx="176.2" ry="167.9" transform="scale(-1 1)"/>
  <path fill="#240a0d" d="M6473 850a111 114 0 0 1 111 114 111 114 0 0 1-1 16l-211 28a111 114 0 0 1-9-44 111 114 0 0 1 110-114z"/>
  <path fill="#e5d9bf" d="M6461 890a46 48 84 0 0-43 52 46 48 84 0 0 53 41 46 48 84 0 0 43-51 46 48 84 0 0-53-42zm0 2a35 14 84 0 1 18 33 35 14 84 0 1-10 36 35 14 84 0 1-19-33 35 14 84 0 1 11-36z"/>
  <path fill="#919691" d="M5924 783a176 168 0 0 0-176 168 176 168 0 0 0 176 168 176 168 0 0 0 176-168 176 168 0 0 0-176-168zm531 0a176 168 0 0 0-176 168 176 168 0 0 0 176 168 176 168 0 0 0 176-168 176 168 0 0 0-176-168z"/>
  <path fill="#240a0d" d="M5905 850a111 114 0 0 0-110 114 111 114 0 0 0 1 16l211 28a111 114 0 0 0 9-44 111 114 0 0 0-111-114zm568 0a111 114 0 0 0-110 114 111 114 0 0 0 9 44l211-28a111 114 0 0 0 1-16 111 114 0 0 0-111-114z"/>
  <path fill="#e5d9bf" d="M6468 890a46 48 84 0 0-7 0 46 48 84 0 0-43 52 46 48 84 0 0 53 41 46 48 84 0 0 43-51 46 48 84 0 0-46-42zm-558 0a48 46 5 0 0-45 43 48 46 5 0 0 44 50 48 46 5 0 0 51-42 48 46 5 0 0-43-51 48 46 5 0 0-7 0zm7 2a14 35 5 0 1 11 36 14 35 5 0 1-17 33 14 35 5 0 1-12-36 14 35 5 0 1 18-33zm544 0a35 14 84 0 1 18 33 35 14 84 0 1-10 36 35 14 84 0 1-19-33 35 14 84 0 1 11-36z"/>
  <path fill="#240a0d" d="M5972 1484a179 179 0 0 0 160 132h104c50 0 134-39 160-132-142-323-283-275-424 0z"/>
  <path fill="#e5d9bf" d="M6191 732c-22 0-45 1-65 5-34 5-53 22-59 40-7 19-33 408-42 444-9 34-103 152-111 182-9 29 48 127 121 135 84 9 227 9 308 0 74-8 130-106 122-135-8-30-102-148-111-182-9-36-35-425-42-444-6-18-25-35-59-40-17-3-39-5-62-5zm-2 579c53 0 106 24 112 72 5 44-4 86-62 86h-99c-58 0-68-43-63-86 6-48 59-72 112-72z"/>
  <path fill="#05c4c9" d="m5149 1014-158 483h-154l-157-483h146l66 245 8 36 9 43 5 35 5-35 8-42 9-36 67-246zm-498 241q0 56-13 102-13 45-42 78-28 33-73 51-44 18-106 18-61 0-106-18-44-18-73-50-28-33-42-79t-14-103q0-75 25-130 25-56 77-87 52-30 133-30 83 0 134 30 52 31 76 87t24 131zm-332 0q0 44 10 75t31 48q22 17 57 17 36 0 57-17t30-48q10-31 10-75 0-65-22-103t-75-38q-35 0-57 17-21 17-31 49-10 31-10 75zm-225 242h-131v-197h-152v197h-131v-483h131v179h152v-179h131zm-640-383q-23 0-41 10t-31 28q-13 19-20 46-6 26-6 60 0 45 11 76 12 31 35 47 24 16 60 16 32 0 62-9t60-21v110q-32 14-66 20-33 7-71 7-78 0-128-31-50-32-74-87-23-56-23-129 0-55 15-100 15-46 45-79 30-34 73-52 44-19 101-19 35 0 73 9 39 8 76 25l-40 103q-26-12-53-21t-58-9zm-362-244-27 33a2621 2621 0 0 1-60 66v9h85a818 818 0 0 0 73-49 4150 4150 0 0 0 70-52v-7zm-86 144v483h131v-483zm-464 483-98-348h-3l2 37 3 50 2 51v210h-116v-483h174l100 343h3l99-343h174v483h-120v-212l1-48 2-50 2-37h-3l-98 347zm-303-148q0 40-19 75t-59 57q-40 21-103 21-32 0-56-3t-44-9q-21-7-43-18v-116q38 20 76 30t69 10q19 0 31-4 12-5 17-13 6-8 6-19 0-12-9-21-8-9-26-18-18-10-49-24-25-12-46-26-20-13-35-30t-23-40q-8-22-8-53 0-47 22-78 22-32 61-48 40-16 91-16 46 0 82 11 36 10 65 24l-39 101q-29-15-58-23t-53-8q-16 0-27 4-10 4-15 11t-5 16q0 11 8 20 9 9 29 19l54 27q33 16 57 34t36 44q13 26 13 63z"/>
  <path fill="#2e7d7d" d="m5033 780-24-90h-157l-24 90h-143l157-485h174l160 485zm-51-197-21-80-9-36-13-50-9-42-9 41-11 48-10 39-20 80zm-337 197h-171l-176-340h-3l3 37 2 45 1 40v218h-116V297h171l175 336h2l-2-37-2-42V297h116zm-695 0V297h131v483zm-297-483q66 0 109 16 44 16 65 48 23 32 23 79 0 29-10 53-10 25-29 44-18 19-43 33l140 210h-148l-102-176h-33v176h-130V297zm-2 99h-26v110h25q30 0 49-13t19-47q0-24-16-37t-51-13zm-241 384h-286V297h286v105h-156v76h145v105h-145v91h156zm-463 0h-130V404h-118V297h365v107h-117zm-307 0h-287V297h287v105h-157v76h145v105h-145v91h157zm-339-483-158 483h-154l-157-483h146l66 245 8 36 9 43 5 35 5-35 8-42 9-36 67-246z"/>
</svg>
