<svg xmlns="http://www.w3.org/2000/svg" version="1.1" xmlns:xlink="http://www.w3.org/1999/xlink" xmlns:svgjs="http://svgjs.dev/svgjs" width="3000" height="3000"><svg viewBox="0 0 3000 3000" version="1.1" id="SvgjsSvg1055" sodipodi:docname="cat.svg" width="3000" height="3000" inkscape:version="1.4 (86a8ad7, 2024-10-11)" xml:space="preserve" xmlns:inkscape="http://www.inkscape.org/namespaces/inkscape" xmlns:sodipodi="http://sodipodi.sourceforge.net/DTD/sodipodi-0.dtd" xmlns="http://www.w3.org/2000/svg" xmlns:svg="http://www.w3.org/2000/svg"><defs id="SvgjsDefs1054"></defs><sodipodi:namedview id="SvgjsSodipodi:namedview1053" pagecolor="#ffffff" bordercolor="#666666" borderopacity="1.0" inkscape:pageshadow="2" inkscape:pageopacity="0.0" inkscape:pagecheckerboard="0" showgrid="false" inkscape:snap-bbox="true" inkscape:bbox-nodes="true" inkscape:snap-bbox-midpoints="true" inkscape:snap-intersection-paths="true" inkscape:snap-smooth-nodes="true" inkscape:snap-midpoints="true" inkscape:snap-object-midpoints="true" inkscape:zoom="0.4837338" inkscape:cx="1356.1178" inkscape:cy="1720.9879" inkscape:current-layer="svg8" inkscape:showpageshadow="2" inkscape:deskcolor="#d1d1d1"></sodipodi:namedview><path id="SvgjsPath1052" style="fill:#919691;fill-opacity:1;stroke:none;stroke-width:7.39311;-inkscape-stroke:none;paint-order:fill markers stroke" d="M 1500,2409.9132 A 387.66073,270.15147 0 0 0 1114.7233,2679.9554 387.66073,270.15147 0 0 0 1500,2950 387.66073,270.15147 0 0 0 1885.2768,2679.9554 387.66073,270.15147 0 0 0 1500,2409.9132 Z"></path><path style="fill:#05c4c9;fill-opacity:1;stroke:none;stroke-width:1.23545px;stroke-linecap:butt;stroke-linejoin:miter;stroke-opacity:1" d="M 2655.4207,1417.499 2791.2809,500.92321 V 49.99998 l -616.945,838.30724 z" id="SvgjsPath1051"></path><path id="SvgjsPath1050" style="fill:#2e7d7d;fill-opacity:1;stroke:none;stroke-width:1.23545px;stroke-linecap:butt;stroke-linejoin:miter;stroke-opacity:1" d="M 2791.2809,49.99998 1864.5468,576.08421 A 1168.9535,1083.3192 0 0 0 1505.8177,521.79682 1168.9535,1083.3192 0 0 0 1500,521.92953 V 2688.0486 a 1168.9535,1083.3192 0 0 0 5.8177,0.386 1168.9535,1083.3192 0 0 0 1168.9522,-1083.3201 1168.9535,1083.3192 0 0 0 -418.1778,-828.57868 z"></path><path style="fill:#2e7d7d;fill-opacity:1;stroke:none;stroke-width:1.23545px;stroke-linecap:butt;stroke-linejoin:miter;stroke-opacity:1" d="M 344.57931,1417.499 208.71905,500.92321 V 49.99998 l 616.9449,838.30724 z" id="SvgjsPath1049"></path><path id="SvgjsPath1048" style="fill:#05c4c9;fill-opacity:1;stroke:none;stroke-width:1.23545px;stroke-linecap:butt;stroke-linejoin:miter;stroke-opacity:1" d="M 208.71907,49.99998 743.40801,776.53582 A 1168.9535,1083.3192 0 0 0 325.23015,1605.1145 1168.9535,1083.3192 0 0 0 1494.1822,2688.4346 1168.9535,1083.3192 0 0 0 1500,2688.0486 V 521.92953 a 1168.9535,1083.3192 0 0 0 -5.8178,-0.13271 1168.9535,1083.3192 0 0 0 -358.729,54.28739 z"></path><path id="SvgjsPath1047" style="fill:#b2baa8;fill-opacity:1;stroke:none;stroke-width:6.66312;-inkscape-stroke:none;paint-order:fill markers stroke" d="m 816.29465,1406.0961 a 400.37074,256.6039 29.831351 0 0 -191.98686,99.0701 400.37074,256.6039 29.831351 0 0 219.67106,421.766 400.37074,256.6039 29.831351 0 0 474.96765,-23.4399 400.37074,256.6039 29.831351 0 0 -219.6735,-421.7658 400.37074,256.6039 29.831351 0 0 -282.97835,-75.6304 z m 1367.41085,0 a 256.6039,400.37074 60.168649 0 0 -282.9783,75.6303 256.6039,400.37074 60.168649 0 0 -219.6734,421.7661 256.6039,400.37074 60.168649 0 0 474.9674,23.4397 256.6039,400.37074 60.168649 0 0 219.6711,-421.766 256.6039,400.37074 60.168649 0 0 -191.9868,-99.0701 z"></path><path id="SvgjsPath1046" style="fill:#240a0d;fill-opacity:1;stroke:none;stroke-width:1.23545px;stroke-linecap:butt;stroke-linejoin:miter;stroke-opacity:1" d="m 663.74083,1513.4499 190.61872,354.5909 346.39155,36.8945 22.5444,-305.3996 z m 1672.51847,0 -559.5548,86.0858 22.5446,305.3996 346.3914,-36.8945 z"></path><path id="SvgjsPath1045" style="fill:#e5d9bf;fill-opacity:1;stroke:none;stroke-width:6.86361;-inkscape-stroke:none;paint-order:fill markers stroke" d="m 1001.6048,1584.0419 a 129.86589,130.52179 0 0 0 -129.86445,130.5208 129.86589,130.52179 0 0 0 129.86445,130.5209 129.86589,130.52179 0 0 0 129.867,-130.5209 129.86589,130.52179 0 0 0 -129.867,-130.5208 z m 996.7903,0 a 129.86589,130.52179 0 0 0 -129.8669,130.5208 129.86589,130.52179 0 0 0 129.8669,130.5209 129.86589,130.52179 0 0 0 129.8646,-130.5209 129.86589,130.52179 0 0 0 -129.8646,-130.5208 z"></path><path id="SvgjsPath1044" style="fill:#240a0d;fill-opacity:1;stroke:none;stroke-width:5.31498;-inkscape-stroke:none;paint-order:fill markers stroke" d="m 1280.2518,2325.1136 c 0,0 -31.8459,225.9575 -31.9119,298.4695 0,107.7473 112.4603,212.9507 251.6601,213.6725 139.199,-0.7229 251.6577,-107.0899 251.6577,-213.6725 -0.067,-72.5116 -31.9094,-298.4695 -31.9094,-298.4695 H 1500 Z" sodipodi:nodetypes="ccccccc"></path><path style="fill:#05c4c9;fill-opacity:1;stroke:none;stroke-width:1.23545px;stroke-linecap:butt;stroke-linejoin:miter;stroke-opacity:1" d="M 1799.2498,1904.9342 1500,1808.7819 l 8e-4,516.3307 h 375.0861 z" id="SvgjsPath1043" sodipodi:nodetypes="ccccc"></path><path style="fill:#2e7d7d;fill-opacity:1;stroke:none;stroke-width:1.23545px;stroke-linecap:butt;stroke-linejoin:miter;stroke-opacity:1" d="m 1200.7503,1904.9342 299.2498,-96.1523 -8e-4,516.3307 H 1124.913 Z" id="SvgjsPath1042" sodipodi:nodetypes="ccccc"></path><path id="SvgjsPath1041" style="fill:#e5d9bf;fill-opacity:1;stroke:none;stroke-width:1.24453px;stroke-linecap:butt;stroke-linejoin:miter;stroke-opacity:1" d="m 1041.4868,2018.2467 c -315.23995,247.392 -377.35244,503.691 -66.53825,684.4197 84.69465,49.2474 248.18155,21.5851 524.15875,24.8296 v 0.012 c 0.5953,2e-4 1.1904,0 1.7857,0 v -0.012 c 275.9771,-3.2445 439.4639,24.4178 524.1585,-24.8296 310.8143,-180.7287 248.7017,-437.0277 -66.538,-684.4197 -46.5631,64.5548 -434.2252,508.0404 -458.5135,654.5468 -24.2881,-146.5064 -411.9502,-589.992 -458.5132,-654.5468 z" sodipodi:nodetypes="csccccsccc"></path><path id="SvgjsPath1040" style="fill:#240a0d;fill-opacity:1;stroke:none;stroke-width:3.11122;-inkscape-stroke:none;paint-order:fill markers stroke" d="m 1001.6048,1586.088 a 37.646396,92.514926 0 0 0 -37.64495,92.514 37.646396,92.514926 0 0 0 37.64495,92.5164 37.646396,92.514926 0 0 0 37.6475,-92.5164 37.646396,92.514926 0 0 0 -37.6475,-92.514 z m 996.7903,0 a 37.646396,92.514926 0 0 0 -37.6473,92.514 37.646396,92.514926 0 0 0 37.6473,92.5164 37.646396,92.514926 0 0 0 37.6452,-92.5164 37.646396,92.514926 0 0 0 -37.6452,-92.514 z"></path></svg><style>@media (prefers-color-scheme: light) { :root { filter: none; } }
@media (prefers-color-scheme: dark) { :root { filter: none; } }
</style></svg>