<svg xmlns="http://www.w3.org/2000/svg" xml:space="preserve" viewBox="0 0 3000 3000">
  <path fill="#919691" d="M544 1849a779 779 0 0 0-163 155c-42 88 116 132 99 180-57 158 219 249 219 249l-113 17c54 89 196 154 237 140l-68 138 160-52s3 85 15 122c12 38 105 98 105 98l31-101c4 41 33 191 218 147 0 0-23-26-20-58 92 108 224 21 236 10 12 11 144 98 236-10 3 32-20 58-20 58 185 44 214-106 218-147l31 101s93-60 105-98c12-37 15-122 15-122l160 52-68-138c41 14 183-51 237-140l-113-17s276-91 219-249c-17-48 141-92 99-180a779 779 0 0 0-163-155z"/>
  <path fill="#2e7d7d" d="m553 50-60 1152 319-281Zm1894 0-558 615h-389v1842h368l540-380c105-74 243-217 275-289 75-172-132-388-133-393l-43-243-319-281Z"/>
  <path fill="#05c4c9" d="m553 50 259 871-319 281-43 243c-1 5-208 221-133 393 32 72 170 215 275 289l540 380h368V665h-389zm1894 0-259 871 319 281z"/>
  <ellipse cx="1057.1" cy="1584.6" fill="#919691" rx="294" ry="280.2"/>
  <path fill="#240a0d" d="M1026 1417a185 190 0 0 0-184 190 185 190 0 0 0 2 27l352 47a185 190 0 0 0 15-74 185 190 0 0 0-185-190z"/>
  <path fill="#e5d9bf" d="M1045 1484a80 77 5 0 1 73 84 80 77 5 0 1-86 70 80 77 5 0 1-74-83 80 77 5 0 1 87-71zm0 2a24 58 5 0 0-30 56 24 58 5 0 0 20 60 24 58 5 0 0 29-56 24 58 5 0 0-19-60z"/>
  <ellipse cx="1057.1" cy="1584.6" fill="#919691" rx="294" ry="280.2"/>
  <path fill="#240a0d" d="M1026 1417a185 190 0 0 0-184 190 185 190 0 0 0 2 27l352 47a185 190 0 0 0 15-74 185 190 0 0 0-185-190z"/>
  <path fill="#e5d9bf" d="M1045 1484a80 77 5 0 1 73 84 80 77 5 0 1-86 70 80 77 5 0 1-74-83 80 77 5 0 1 87-71zm0 2a24 58 5 0 0-30 56 24 58 5 0 0 20 60 24 58 5 0 0 29-56 24 58 5 0 0-19-60z"/>
  <ellipse cx="-1942.9" cy="1584.6" fill="#919691" rx="294" ry="280.2" transform="scale(-1 1)"/>
  <path fill="#240a0d" d="M1974 1417a185 190 0 0 1 184 190 185 190 0 0 1-2 27l-352 47a185 190 0 0 1-15-74 185 190 0 0 1 185-190z"/>
  <path fill="#e5d9bf" d="M1953 1484a77 80 84 0 0-71 86 77 80 84 0 0 88 68 77 80 84 0 0 71-85 77 80 84 0 0-88-69zm0 2a58 24 84 0 1 31 55 58 24 84 0 1-18 61 58 24 84 0 1-31-55 58 24 84 0 1 18-61z"/>
  <ellipse cx="-1942.9" cy="1584.6" fill="#919691" rx="294" ry="280.2" transform="scale(-1 1)"/>
  <path fill="#240a0d" d="M1974 1417a185 190 0 0 1 184 190 185 190 0 0 1-2 27l-352 47a185 190 0 0 1-15-74 185 190 0 0 1 185-190z"/>
  <path fill="#e5d9bf" d="M1953 1484a77 80 84 0 0-71 86 77 80 84 0 0 88 68 77 80 84 0 0 71-85 77 80 84 0 0-88-69zm0 2a58 24 84 0 1 31 55 58 24 84 0 1-18 61 58 24 84 0 1-31-55 58 24 84 0 1 18-61z"/>
  <path fill="#919691" d="M1057 1304a294 280 0 0 0-294 281 294 280 0 0 0 294 280 294 280 0 0 0 294-280 294 280 0 0 0-294-281zm886 0a294 280 0 0 0-294 281 294 280 0 0 0 294 280 294 280 0 0 0 294-280 294 280 0 0 0-294-281z"/>
  <path fill="#240a0d" d="M1026 1417a185 190 0 0 0-184 190 185 190 0 0 0 2 27l352 47a185 190 0 0 0 15-74 185 190 0 0 0-185-190zm948 0a185 190 0 0 0-185 190 185 190 0 0 0 15 74l352-47a185 190 0 0 0 2-27 185 190 0 0 0-184-190z"/>
  <path fill="#e5d9bf" d="M1965 1484a77 80 84 0 0-12 0 77 80 84 0 0-71 86 77 80 84 0 0 88 68 77 80 84 0 0 71-85 77 80 84 0 0-76-69zm-932 0a80 77 5 0 0-75 71 80 77 5 0 0 74 83 80 77 5 0 0 86-70 80 77 5 0 0-73-84 80 77 5 0 0-12 0zm12 2a24 58 5 0 1 19 60 24 58 5 0 1-29 56 24 58 5 0 1-20-60 24 58 5 0 1 30-56zm908 0a58 24 84 0 1 31 55 58 24 84 0 1-18 61 58 24 84 0 1-31-55 58 24 84 0 1 18-61z"/>
  <path fill="#240a0d" d="M1138 2474a299 299 0 0 0 267 221h173c83 0 223-66 267-221-238-539-473-459-707 0z"/>
  <path fill="#e5d9bf" d="M1503 1220c-37 0-76 2-109 8-57 9-88 36-99 67s-54 681-69 740c-15 58-172 255-186 304s80 212 203 225c140 15 378 15 514 0 123-13 217-176 203-225s-171-246-186-304c-15-59-58-709-69-740s-42-58-99-67c-29-5-65-8-103-8zm-4 966c89 0 177 40 187 120 9 73-7 144-104 144h-165c-97 0-113-72-104-144 10-80 98-120 186-120z"/>
</svg>
