<svg xmlns="http://www.w3.org/2000/svg" xml:space="preserve" viewBox="0 0 1600 2450">
  <path fill="#f6f7e2" d="M1364 1591s199 220 44 452c-154 231-700-50-738 99-39 149 330 17 270 182-61 165-682 27-441-248 193-221 535 25 805-135 176-105-188-234-33-323 58-33 93-27 93-27z"/>
  <path fill="#f6f7e2" d="M967 235S874 64 846 91c-28 28-66 110-66 110l-256-4S493 64 477 69c-17 6-208 154-337 480-177 448-49 1086 105 1196s937 77 1059 6c121-72 358-408 204-750-155-342-392-364-541-766Z"/>
  <path fill="#261d2a" d="M612 1825c33 0 80-10 125-29 79-32 261-133 257-382 0-2-2-5-5-5-2 0-5 3-5 5 4 243-174 342-251 373-81 34-145 33-157 20-2-2-4-5-1-10 33-72 60-460 61-476 0-3-2-5-5-5s-5 2-5 4c0 4-28 403-60 473-4 8-3 15 3 21 7 7 23 11 43 11zM522 1831c6 0 12-2 14-6 17-28 7-461 6-510 0-3-2-5-5-5s-5 2-5 5c5 192 7 485-4 505-4 3-32 0-77-26-62-37-261-183-179-527a5 5 0 1 0-10-3c-100 421 207 551 220 556 9 4 27 11 40 11zM965 1819c2 0 4-2 5-4 10-37 56-82 56-83a5 5 0 0 0-7-7c-2 2-48 48-59 87a5 5 0 0 0 5 7zM989 1822c2 0 4-1 5-3 36-67 112-37 115-36a5 5 0 0 0 4-9c-1-1-88-34-128 40a5 5 0 0 0 4 8z"/>
  <path fill="#d07f23" d="M659 196s-45 430 77 496c121 66 472-53 439-114-33-60-246-421-268-492-40-128-159 103-159 103Z"/>
  <path fill="#212438" d="M590 199s2 421-113 438c-116 17-353-72-359-110-5-39 224-423 316-501 35-30 95 161 95 161zM1309 706s9 42-92 176c-102 134 183 274 148 356-93 216 166 203 166 203s148-416-222-735z"/>
  <path fill="#261d2a" d="M736 614c2 0 4-2 5-4 5-44 22-76 50-97 53-38 128-24 129-24a5 5 0 1 0 2-10c-4 0-80-15-137 26-30 23-49 57-54 103a5 5 0 0 0 5 6z"/>
  <path fill="#fcfdff" d="m472 605 2-1c2 0 4-3 3-6-25-79-59-127-102-140a95 95 0 0 0-82 13 5 5 0 1 0 6 8c1 0 34-25 73-12 40 13 72 58 95 134 1 2 3 4 5 4z"/>
  <path fill="#f6f7e2" d="M908 189s-40-99-48-92c-9 7-68 97-61 97l109-5zM475 175s-41-96-50-90c-8 7-54 85-54 85z"/>
  <path fill="#261d2a" d="M640 1831h1c2 0 4-3 4-5-4-29 45-85 63-104a5 5 0 0 0-7-7c-3 3-71 72-66 112 0 2 2 4 5 4zM605 1819c2 0 5-2 5-5 0-1 10-87 50-111a5 5 0 0 0-5-9c-44 26-55 115-55 119a5 5 0 0 0 5 6zM517 1824c3 0 5-2 5-5 6-43-29-107-30-110a5 5 0 0 0-9 5s34 64 29 104a5 5 0 0 0 5 6zM490 1824c2 0 5-2 5-5 3-23-34-88-38-95-2-3-5-3-7-2s-3 4-2 7c11 19 39 72 37 89a5 5 0 0 0 5 6zM932 1811l4-1c2-2 2-6 0-7-11-10 14-51 35-76a5 5 0 0 0-7-6c-10 11-57 69-35 89l3 1z"/>
  <path fill="#d07f23" d="M1502 1506s-122-47-212-2 17 202-63 202-82 83-82 83 177 67 357-283z"/>
  <path fill="#d07f23" d="M1387 2076s-82-7-55-82c28-75 3-80 3-80s42-70-60-150l142-128s153 248-30 440z"/>
  <path fill="#212438" d="M1120 2126s2-52 57-67 65 57 100 15c35-43 75-110 158-58 0 0-90 200-315 110zM992 1996s18 55-82 63c-100 7-108-80-145-43-38 38-105-30-105-30s75-37 332 10z"/>
  <path fill="#d07f23" d="M710 2211s-5-17-53 45c-47 63-112-107-207-17 0 0 60 172 300 175 240 2 215-130 185-160s-178-33-225-43z"/>
  <path fill="#212438" d="M615 2386s52-122 175-77c74 27 72 75 147 52 0 0-120 130-322 25z"/>
  <path fill="#d07f23" d="M680 1981s17 93-70 108c-88 15-108-3-140 22 0 0 47-115 210-130zM1262 666s-55 30-60 108c-5 77 150 30 133 102-18 73 147 55 147 55s-17-137-220-265z"/>
  <path fill="#212438" d="M87 709s120 126 96 186c-23 60-73 74-76 114-4 40 80 136-57 186 0 0-40-396 37-486z"/>
  <path fill="#d07f23" d="M82 1311s40 13 75 78 8 112-5 150c-12 37 145 42 55 175 0 0-132-185-125-403zM842 1015s-35-109-139-106c-103 2-92 70-136 115-45 45-50 156 54 196 103 40 66-66 151-29 84 38 181-122 70-176z"/>
  <path fill="#212438" d="M517 1032s-80-80-115-47c-36 33-45 127 21 134s35-12 92 7c56 19 26-80 2-94z"/>
  <path fill="#261d2a" d="M602 803h3c44-5 79-104 81-108a5 5 0 1 0-10-3c-9 27-40 98-72 101-31 4-57-68-65-96a5 5 0 0 0-10 2c3 11 30 104 73 104z"/>
  <path fill="#261d2a" d="M605 803c2 0 4-2 5-5l7-154c0-3-3-5-5-6-3 0-5 2-5 5l-7 155c-1 3 2 5 4 5h1z"/>
  <path fill="#ca7a8c" d="M570 609s33 34 39 33c5-1 49-26 49-26s-50-28-88-7z"/>
  <path fill="#261d2a" d="M395 709a5 5 0 0 0 2-10L127 594a5 5 0 1 0-4 9l270 105 2 1zM370 744a5 5 0 0 0 1-10l-235-45c-3-1-5 1-6 4 0 3 1 5 4 6l235 45h1zM120 804l240-20c3 0 5-3 5-6 0-2-3-5-5-4l-240 20a5 5 0 0 0 0 10z"/>
  <path fill="#212438" d="M1013 292s-49 26-7 101 96 30 73 84-52 182 131 136c0 0-105-209-197-321z"/>
  <path fill="#261d2a" d="m885 754 2-1 335-185a5 5 0 1 0-4-9L883 744a5 5 0 0 0 2 10zM875 789h1l325-70a5 5 0 1 0-2-10l-325 70a5 5 0 0 0 1 10zM1185 834a5 5 0 0 0 0-10l-255-10a5 5 0 0 0 0 10l255 10zM858 189h3c2-2 6-4 11-36a5 5 0 0 0-10-1l-5 23c-3-6-8-19-5-31a5 5 0 0 0-10-2c-4 21 8 45 15 47h1zM421 165h1c1 0 4-1 5-4 3-8 4-34 4-37a5 5 0 0 0-10-1l-2 26v-1c-5-9-12-21-21-24-2-1-5 0-6 3s1 6 3 6c5 2 11 13 15 20 5 8 7 12 11 12z"/>
</svg>
