<svg xmlns="http://www.w3.org/2000/svg" xml:space="preserve" viewBox="0 0 2500 2200">
  <path fill="#d07f23" d="M652 798s110 24 456-194c347-219 815-456 1094-31 280 426 438 1003 91 1179-346 177-474-66-826 0-353 67-535 195-450 31s237-322 517-225c279 97 450 112 583 97 205-22 278-221 181-215s-1030 49-1232 51c-189 2-493 176-669 170s162-172 168-220c6-49-152-128-243-97-91 30-369 86-302-5s535-395 632-541z"/>
  <path fill="#d07f23" d="M634 695S476 531 452 555c-25 24-26 219-26 219s-294 150-17 504c101 130 717 234 827 37 45-81 18-572 18-572s24-146-24-152c-49-6-177 152-177 152z"/>
  <path fill="#feffff" d="M1082 797s106-94 109-81c4 13 10 132 10 132s-90-26-119-51zM493 761s-9-129 0-125c10 3 110 80 110 90 0 9-110 35-110 35z"/>
  <path fill="#f6f7e2" d="M1574 1230s-34 70-122 75a412 412 0 0 0-306 184s816-22 779-37c-258-99-351-222-351-222z"/>
  <path fill="#d07f23" d="M1812 1330s-180 14-209 129c-9 39 345-7 345-7s-49-125-136-122z"/>
  <path fill="#261d2a" d="M1999 1424c-79 0-224-14-338-105a472 472 0 0 1-169-337c-9-90 12-164 63-221 56-63 138-93 197-107 64-15 116-15 117-15a5 5 0 0 1 0 10c-2 0-203 2-307 119-49 55-69 126-60 213 15 145 71 257 165 330a579 579 0 0 0 389 100c3-1 5 1 6 4 0 3-2 5-5 6 0 0-23 3-58 3zM1623 1469h-3c-2-2-3-5-2-7 23-50 48-79 75-85 20-5 33 5 34 6a5 5 0 0 1-6 8c-1-1-11-8-26-4-16 4-41 21-68 79l-4 3zM1666 1469l-3-1c-2-2-3-5-1-7 45-55 122-50 125-50s5 2 5 5c-1 3-3 5-6 5 0 0-75-4-116 46l-4 2z"/>
  <path fill="#f6f7e2" d="M313 1095s82 161 243 31c162-130 120-212 266-147 96 43 27 194 106 290 130 159 222-17 217 38-5 56-135 167-466 89-330-77-412-323-366-301z"/>
  <path fill="#261d2a" d="m733 1158-13-3c-37-19-36-118-36-122 0-3 2-5 5-5s5 2 5 5c-1 27 4 99 31 113 26 13 72-42 88-65a5 5 0 1 1 8 6c-6 8-51 71-88 71z"/>
  <path fill="#261d2a" d="M723 1155h-2c-3-1-4-4-3-6l43-139c1-3 4-4 7-3 2 0 4 3 3 6l-44 139c0 2-2 3-4 3z"/>
  <path fill="#ca7a8c" d="M814 994s-40 20-45 17c-5-2-35-39-35-39s53-8 80 22z"/>
  <path fill="#261d2a" d="M609 984c-3 0-5-3-5-5 3-36-5-63-23-81-30-28-77-23-77-23-3 1-6-1-6-4s2-5 4-5c3-1 53-7 86 25 20 20 29 49 26 88 0 3-2 5-5 5zM957 1052l-2-1c-3-1-4-4-3-6 39-104 158-95 159-95a5 5 0 1 1 0 10c-5 0-113-8-150 88 0 2-2 4-4 4zM13 1375a5 5 0 0 1-4-8c23-28 90-38 93-38 3-1 5 1 6 4 0 3-2 5-5 6 0 0-66 9-86 34l-4 2zM40 1385a5 5 0 0 1-1-10c53-5 62-17 62-17 1-3 4-4 6-2 3 1 4 4 3 6-2 3-12 18-70 23zM362 1649a5 5 0 0 1-4-9c24-18 71-37 73-37 3-1 6 0 7 2 1 3 0 6-3 7 0 0-48 18-70 36l-3 1zM398 1666h-1c-3 0-5-2-5-5s2-5 5-5h1c34 0 56-35 56-35 2-3 5-3 7-2 3 2 3 5 2 7s-26 40-65 40zM508 1068h-3L240 879a5 5 0 0 1 5-8l266 188a5 5 0 0 1-3 9zM484 1097h-2L149 972a5 5 0 0 1 4-10l333 126a5 5 0 0 1-2 9zM445 1122l-280-39c-3 0-5-3-5-6 1-2 3-4 6-4l280 39a5 5 0 0 1-1 10zM1000 1131a5 5 0 0 1-1-10l304-58a5 5 0 1 1 2 10l-304 58h-1zM1323 1160h-308a5 5 0 0 1 0-10h308a5 5 0 0 1 0 10zM1299 1257h-1l-294-49a5 5 0 1 1 2-10l294 49a5 5 0 0 1-1 10z"/>
  <path fill="#261d2a" d="M1111 1387a5 5 0 0 1-2-9c254-151 134-512 132-516v-1c1-52 2-193-14-220l-4-3c-21-3-78 47-112 77l-36 30c-20 10-151-18-177-24a5 5 0 1 1 2-10c59 13 157 31 170 25l34-28c50-44 97-83 120-80 6 1 10 4 12 8 19 34 16 208 15 224 7 20 117 375-137 526l-3 1zM544 746c-6 0-12-6-23-18-7-7-15-15-20-17-2-1-4-4-3-6 1-3 4-4 7-3 6 2 14 10 23 19l14 14c1-10-4-31-8-43a5 5 0 0 1 9-3c1 4 12 37 8 51-1 4-4 5-5 6h-2z"/>
  <path fill="#261d2a" d="m1140 823-6-2c-2-1-4-4-4-9 2-17 33-53 37-57a5 5 0 1 1 7 6c-12 15-32 41-34 52 5 0 20-6 27-9 11-5 15-7 18-6s4 4 3 7c-1 2-3 3-5 3l-12 5c-13 6-24 10-31 10zM793 825l-4-2c-11-15-8-37-7-38 0-3 3-4 5-4 3 0 5 3 5 6-1 0-3 18 5 30a5 5 0 0 1-4 8zM783 769l-4-2c-11-15-8-37-8-38 1-3 4-5 6-4 3 0 5 3 4 5 0 1-3 19 6 31a5 5 0 0 1-4 8zM818 783c-2 0-4-1-5-3-7-17 1-38 1-39 1-2 4-3 7-2 2 1 4 4 3 6-1 0-7 18-1 31a5 5 0 0 1-5 7zM849 781c-2 0-4-1-4-3-8-17 0-38 0-39 1-2 4-3 7-2 2 1 4 4 3 6 0 0-7 18-1 31a5 5 0 0 1-5 7zM876 785c-2 0-4-1-4-4-4-18 8-36 9-37a5 5 0 0 1 8 5c0 1-11 16-8 30a5 5 0 0 1-5 6zM832 828c-2 0-4-1-5-4-4-18 8-37 9-37a5 5 0 0 1 8 5s-10 16-7 30a5 5 0 0 1-5 6zM754 782c-1 0-3 0-4-2-11-15-8-37-7-38 0-2 3-4 5-4 3 1 5 3 4 6 0 0-3 19 6 30a5 5 0 0 1-4 8zM1134 1498c-25 0-49 0-69-2-3 0-5-3-4-5 0-3 3-5 5-5 161 12 533-31 537-32 2 0 5 2 5 5 1 2-1 5-4 5-3 1-290 34-470 34zM2389 1088h-1c-2 0-4-3-4-5 5-27-14-33-15-33-3 0-5-3-4-6 1-2 4-4 6-3 1 0 29 7 23 43 0 3-2 4-5 4zM2367 1027h-1c-3 0-5-3-4-6 4-26-15-32-16-32-2-1-4-3-3-6 0-3 3-4 6-4 0 1 28 8 23 44-1 2-3 4-5 4zM2318 1001c-3 0-5-3-4-5 4-27-15-32-16-33a5 5 0 1 1 3-9s28 7 22 43c0 3-2 4-5 4zM2347 956c-3 0-5-3-4-5 4-27-15-32-16-33-3 0-4-3-4-6 1-2 4-4 6-3 1 0 29 7 23 43 0 3-2 4-5 4zM2309 952h-1c-3-1-5-3-4-6 4-27-15-32-16-32a5 5 0 1 1 3-10s28 8 23 43c-1 3-3 5-5 5zM1769 390l-3-1c-21-16-34-3-36-1a5 5 0 0 1-7-7s20-22 49 0a5 5 0 0 1-3 9zM1841 383l-3-1c-21-15-34-2-36-1a5 5 0 0 1-7-6c0-1 20-22 49-1a5 5 0 0 1-3 9zM1867 419l-4-1c-20-18-35-5-35-5-2 2-5 2-7 0s-2-5 0-7c0 0 22-20 49 4a5 5 0 0 1-3 9zM1682 391l-3-1c-22-16-35-1-36-1a5 5 0 1 1-7-6c0-1 20-22 49-1a5 5 0 0 1-3 9zM1730 423l-3-1c-21-15-34-2-35-1-2 2-5 3-8 1-2-2-2-5 0-7 0 0 20-22 49-1a5 5 0 0 1-3 9zM1541 963c-2 0-4-1-4-3-1 0-15-25 15-46 2-2 5-1 7 1 1 2 1 5-2 7-21 15-13 32-12 33a5 5 0 0 1-4 8zM1538 904c-2 0-4-1-4-3-1 0-11-28 21-44 2-2 5-1 7 2 1 2 0 5-2 7-25 12-17 30-17 31a5 5 0 0 1-5 7zM1575 913c-2 0-3-1-4-3 0 0-11-27 21-44 2-1 6 0 7 2 1 3 0 6-2 7-24 13-17 31-17 32a5 5 0 0 1-5 6zM2166 1779h-1a5 5 0 0 1 0-10h1c27 0 29-19 29-20 0-3 3-5 6-5 2 1 4 3 4 6 0 0-4 29-39 29zM2210 1728h-1a5 5 0 0 1 0-10h1c26 0 28-19 29-20 0-3 3-5 5-4 3 0 5 3 4 5 0 1-3 29-38 29zM2241 1752h-1c-3 0-5-2-5-5s2-5 5-5c27 1 30-18 30-20s3-4 5-4c3 0 5 3 5 5 0 1-4 29-39 29zM2140 1747l-11-1a5 5 0 1 1 2-10c26 6 32-13 33-14 0-2 3-4 6-3s4 4 3 6c0 0-7 22-33 22zM1503 1602l-3-1c-21-18-35-4-35-4a5 5 0 0 1-7-7s21-20 49 3c2 2 2 5 0 7l-4 2zM1406 1625a5 5 0 0 1-4-8s16-24 48-8a5 5 0 0 1-4 9c-24-12-35 3-36 5l-4 2zM1384 1586l-2-1c-3-1-3-4-2-7 0 0 17-24 49-7a5 5 0 0 1-5 9c-24-13-35 3-35 4l-5 2zM1341 1615l-3-1c-2-1-3-4-1-7 0 0 16-24 48-7a5 5 0 1 1-4 9c-24-13-35 2-36 4l-4 2zM1300 1581h-3c-2-2-3-5-1-7 0-1 16-25 48-8a5 5 0 0 1-4 9c-24-13-35 3-36 4-1 2-2 2-4 2zM1271 1615l-3-1c-2-1-3-4-1-7 0 0 16-24 48-7a5 5 0 0 1-4 9c-24-13-35 2-36 4l-4 2zM2108 1789c-6 0-12-1-20-5a5 5 0 0 1 4-9c24 11 34-4 35-6a5 5 0 0 1 9 5c0 1-9 15-28 15zM1574 856c-2 0-4-1-5-3 0-1-11-28 21-45 3-1 6 0 7 3 1 2 0 5-2 6-24 13-17 31-17 32a5 5 0 0 1-4 7zM1565 1001l-4-2s-21-20 1-49a5 5 0 1 1 8 6c-17 22-3 35-2 36a5 5 0 0 1-3 9zM1661 427l-3-1c-22-16-35-2-36-1a5 5 0 1 1-7-7s20-22 49 0a5 5 0 0 1-3 9zM1807 431l-3-1c-22-16-35-1-35-1a5 5 0 1 1-8-6s20-22 49-1a5 5 0 0 1-3 9zM2374 1144h-2c-2-1-4-4-2-7 10-24-5-34-7-35-3-1-3-4-2-7 1-2 4-3 7-1 0 0 25 14 11 47-1 2-3 3-5 3zM2351 1075h-1c-3 0-5-3-4-5 4-27-15-32-16-33a5 5 0 1 1 3-9s28 7 23 43c-1 3-3 4-5 4z"/>
</svg>
