<svg xmlns="http://www.w3.org/2000/svg" xml:space="preserve" viewBox="0 0 2300 2200">
  <path fill="#ead9ba" d="M1832 40c-237-9-379 276-634 253-314-28-120 243 61 198 180-45 341-252 598-320 188-50 324 183 115 443a516 516 0 0 0-389-145c-194 9-341 111-468 248-69-2-225 42-225 42s-387 18-407 111c-14 60-31 352 52 571-315 252-606 360-455 410 153 51 536-196 570-188 34 9 144 60 85 128-60 68-460 315-400 357 59 43 740-17 1081-314 340-298 948-139 830-725 0 0-40-174-147-341 75-104 282-445-86-668-67-41-127-58-181-60z"/>
  <path fill="#f6f7e2" d="M1454 1207s90-135 71-137-176 13-180 24c-3 11 109 113 109 113zm-345 425s41-89-65-159c-107-70 84-322-89-334-172-12-181 122-273 84-126-51-181 150-25 331s460 127 452 78zm-65-761s76-120 56-120c-21 1-143 25-162 40-20 14 106 80 106 80z"/>
  <path fill="#261d2a" d="M841 1380c33 0 80-47 86-53a5 5 0 0 0-7-7c-16 17-63 57-86 49s-17-70-13-91a5 5 0 0 0-10-2c-2 9-15 90 20 102l10 2z"/>
  <path fill="#261d2a" d="m832 1378 5-2 58-110a5 5 0 1 0-9-4l-58 109a5 5 0 0 0 4 7z"/>
  <path fill="#ca7a8c" d="M872 1225s12 36 17 37c4 2 44-2 44-2s-26-37-61-35z"/>
  <path fill="#261d2a" d="m1076 1322 3-1c40-31 77-44 109-37 34 6 51 34 51 34 1 3 4 3 7 2 2-1 3-4 1-7 0-1-18-31-57-39-35-7-74 6-117 39a5 5 0 0 0 3 9zm-298-177 4-2c28-55 33-99 16-129-19-35-61-40-63-40a5 5 0 0 0-1 10s39 4 56 35c15 27 9 67-17 119a5 5 0 0 0 5 7z"/>
  <path fill="#261d2a" d="M1131 1743c402 0 432-115 433-120 46-133 13-360 10-379 6-17 63-191 71-224 1-3 0-6-2-9-16-18-118-12-240-3-35 2-69 5-73 4-14-6-188-90-204-100-3-13 10-105 23-187 1-3-1-5-4-6-1 0-115-25-232 42a5 5 0 0 0 5 8c100-56 198-45 220-41-30 185-22 190-19 192 10 7 197 97 207 101 5 2 23 1 77-3 62-5 227-17 232 0-7 34-70 222-71 224v3c0 2 38 239-9 375-1 2-39 137-564 109-150-9-268-61-352-156-156-178-137-448-137-451 1-3-1-5-4-5s-5 2-5 4c-1 3-20 277 139 458 85 98 206 151 358 160 51 2 98 4 141 4z"/>
  <path fill="#261d2a" d="M1400 1160c9 0 23-3 45-9l27-5c2-1 4-3 4-6-1-3-3-4-6-4l-27 6-40 8c11-9 41-26 68-39 2-1 3-4 2-7-2-2-5-3-7-2-77 40-77 48-77 51l2 5 9 2zm-391-318c8 0 23-20 46-59a5 5 0 1 0-9-5c-12 21-27 44-35 52 0-10 3-32 7-51a5 5 0 1 0-10-2c-3 16-10 54-4 62 1 2 3 3 5 3zm183 287c6 0 12-3 18-8 38-36 28-100 28-103-1-2-3-4-6-4-3 1-5 3-4 6 0 0 10 61-25 93-9 9-15 6-18 3-6-5-11-15-13-25 11-8 20-19 19-28 0-3-2-8-9-12-8-3-15-1-19 6s-4 18-3 30l-8 5c-21 12-53 21-72 8-16-11-14-27-9-39 3-7 8-13 13-19 21-5 44-16 46-24 1-3-1-8-7-9-12-3-31 8-45 24-9 2-17 2-23 0-3-1-7-3-5-10 7-39 69-47 70-47a5 5 0 1 0-2-10c-2 1-69 9-78 55-2 12 3 20 16 23h13l-7 13c-9 21-5 39 12 51 23 16 58 7 83-8l6-3c3 11 8 21 15 27 5 3 9 5 14 5zm-17-69 3 1c3 1 3 2 3 3 0 3-4 9-11 16-1-8 0-14 2-18 0-1 1-2 3-2zm-58-41-17 8c6-5 12-8 17-8zm-488 78 3-1c2-1 3-4 2-6L517 883a5 5 0 0 0-9 5l117 206 4 3zm-26 13a5 5 0 0 0 3-8L426 915c-2-2-5-2-7 0s-2 5 0 7l180 187 4 1zm-20 17a5 5 0 0 0 2-10l-203-96a5 5 0 1 0-5 9l204 97h2zm853 570c2 0 4-1 4-3 2-2 1-5-2-6l-246-134a5 5 0 1 0-5 9l247 133 2 1zm-20 100 4-2c2-2 1-5-1-7l-243-197a5 5 0 1 0-6 8l243 197 3 1zm-117 37 3-1c3-2 3-5 2-7l-140-207a5 5 0 1 0-9 6l140 206 4 3zm220-360 3-1c23-15 16-44 16-46-1-2-4-4-6-3-3 0-5 3-4 6 0 1 5 23-11 35a5 5 0 0 0 2 9zm-42 16 3-1c22-15 15-44 15-45-1-3-3-5-6-4s-4 3-4 6c1 1 6 24-11 35a5 5 0 0 0 3 9zm38 61 3-1c23-15 16-44 15-45 0-3-3-4-6-4-2 1-4 4-3 6 0 1 5 24-12 35a5 5 0 0 0 3 9zm-36 7 2-1c23-15 16-44 16-45-1-3-4-5-6-4-3 1-5 3-4 6 0 1 6 23-11 35a5 5 0 0 0 3 9zm23 56 3-1c22-15 15-44 15-46-1-2-3-4-6-3-3 0-4 3-4 6 1 1 6 23-11 35a5 5 0 0 0 3 9zm-49 5h2c26-8 28-38 28-39 0-3-2-5-5-5-2 0-5 2-5 4 0 1-2 24-21 30-3 1-4 4-3 6 0 3 2 4 4 4zm56-197h1c26-8 28-38 28-39 1-3-2-5-4-5-3-1-5 2-6 4 0 1-1 24-21 30-2 1-4 4-3 6s3 4 5 4zM760 806l3-1c2-3 2-6 0-8-21-17-47-2-48-2a5 5 0 0 0 5 9c1-1 21-12 36 1l4 1zm920-698c2 0 3 0 4-2 1-1 14-19 34-14 2 0 5-1 6-4 0-3-1-5-4-6-26-7-43 18-44 19a5 5 0 0 0 4 7zm-11 40 4-2c1-1 14-20 33-15a5 5 0 0 0 3-9c-27-7-44 17-44 18a5 5 0 0 0 4 8zm-50-9 4-2c1-1 14-20 34-15a5 5 0 0 0 2-10c-26-7-43 18-44 19a5 5 0 0 0 4 8zm-16 29c2 0 3 0 4-2 1-1 14-20 34-15a5 5 0 0 0 2-9c-26-7-43 17-44 19a5 5 0 0 0 4 7zm-243 424 3-2c1-1 17-17 35-9a5 5 0 0 0 4-10c-25-10-45 11-46 12a5 5 0 0 0 4 9zm49 22 4-2c0-1 16-17 35-10a5 5 0 0 0 4-9c-25-10-46 11-47 12a5 5 0 0 0 4 9zm17-47 4-2c0-1 16-17 35-9a5 5 0 1 0 4-10c-25-10-46 11-47 12a5 5 0 0 0 4 9zm189-15c1 0 3 0 4-2 2-2 1-5-1-7-21-17-47-2-48-2-2 2-3 5-1 7 1 3 4 3 6 2 1-1 21-12 37 1l3 1zm-149 42 4-2c0-1 16-17 35-10a5 5 0 1 0 4-9c-25-10-46 11-47 12a5 5 0 0 0 4 9zm30-41 4-1c1-1 17-18 35-10a5 5 0 0 0 4-9c-25-11-45 11-46 12a5 5 0 0 0 3 8zm36 24 3-1s19-15 36-4c2 1 5 0 7-2 1-2 0-5-2-7-23-14-47 5-48 6a5 5 0 0 0 4 8zm-194 55 4-1c0-1 15-19 34-13a5 5 0 0 0 3-9c-26-9-44 14-45 15a5 5 0 0 0 4 8zm398-521 4-1c0-1 17-17 35-8a5 5 0 0 0 5-9c-25-12-46 9-47 10a5 5 0 0 0 3 8zm18-34 3-1c1 0 20-14 37-3a5 5 0 0 0 5-9c-23-14-47 3-48 4a5 5 0 0 0 3 9zM683 849l3-1c1-1 18-16 36-7 2 2 5 1 7-2 1-2 0-5-2-6-24-13-47 6-48 7a5 5 0 0 0 4 9zm-45-22 3-1c1-1 18-16 36-6a5 5 0 0 0 5-9c-24-13-47 7-48 7a5 5 0 0 0 4 9zm-283 788 4-2c0-1 13-20 33-16a5 5 0 0 0 2-10c-27-6-43 19-44 20a5 5 0 0 0 5 8zm50 13 4-3c0-1 13-20 33-15 2 0 5-1 6-4 0-3-1-6-4-6-27-6-43 19-44 20a5 5 0 0 0 5 8zm20-55 4-3c0-1 13-20 33-15 2 0 5-1 6-4 0-3-1-6-4-6-27-6-43 19-44 20a5 5 0 0 0 5 8zm37 17 4-2c1-1 14-20 33-16a5 5 0 1 0 2-10c-26-6-42 19-43 20a5 5 0 0 0 4 8zm-107 60 4-2c0-1 13-20 33-16a5 5 0 0 0 2-10c-27-6-43 19-44 20a5 5 0 0 0 5 8zm-50 5 4-2c0-1 13-20 33-16a5 5 0 0 0 2-10c-27-6-43 19-44 20a5 5 0 0 0 5 8zm510 387 4-1c0-1 17-17 35-8a5 5 0 1 0 5-9c-25-12-46 9-47 10a5 5 0 0 0 3 8zm46 23 4-1c1-1 17-17 35-8a5 5 0 0 0 5-9c-25-12-46 9-47 10a5 5 0 0 0 3 8zm32-49 3-2c1 0 18-16 36-8a5 5 0 0 0 4-9c-25-12-46 9-47 10a5 5 0 0 0 4 9zm1293-722 3-2c21-18 10-46 9-47-1-2-4-4-6-2-3 1-4 4-3 6 0 1 9 23-6 36a5 5 0 0 0 3 9zm-30-47 3-1c21-18 10-46 9-47-1-3-4-4-6-3-3 1-4 4-3 6 0 1 9 23-6 36a5 5 0 0 0 3 9zm-10 80 3-1c21-18 10-46 9-47-1-3-4-4-6-3-3 1-4 4-3 6 0 1 9 23-6 36a5 5 0 0 0 3 9zm-27 57h1c26-10 26-40 26-41 0-3-2-5-5-5s-5 2-5 5c0 1 0 24-19 31a5 5 0 0 0 2 10zm-18 71 2-1c25-9 25-39 25-40 0-3-2-5-5-5s-5 2-5 5c0 1 0 24-19 31a5 5 0 0 0 2 10zm47-34h1c26-9 26-39 26-41s-2-5-5-5-5 3-5 5c0 1 0 25-19 32a5 5 0 0 0 2 9zm23-56h2c24-13 21-42 21-44a5 5 0 0 0-10 2c0 1 3 24-15 33a5 5 0 0 0 2 9zm27-144c2 0 4-1 5-3 14-22-4-46-4-47a5 5 0 0 0-8 6c0 1 14 19 3 36a5 5 0 0 0 4 8zM926 2041l3-2c1 0 17-16 36-8a5 5 0 0 0 4-9c-25-11-46 10-47 10a5 5 0 0 0 4 9zm-128 38 3-1c1-1 18-17 36-9 2 1 5 0 6-2 2-3 1-6-2-7-25-11-46 10-47 10a5 5 0 0 0 4 9zm-50-6 3-1c1-1 18-17 36-9a5 5 0 0 0 4-9c-24-11-46 10-47 11a5 5 0 0 0 4 8zM619 865l4-1s18-16 36-6a5 5 0 1 0 4-9c-24-13-46 7-47 8a5 5 0 0 0 3 8zm-51-30 3-1c1 0 18-16 36-6 2 1 5 0 7-2 1-2 0-5-2-7-24-13-47 7-48 8a5 5 0 0 0 4 8zm-10 30 3-1c1 0 18-16 36-6a5 5 0 1 0 5-9c-24-13-47 7-48 8a5 5 0 0 0 4 8zM66 1827l4-2s43-52 86-55a5 5 0 0 0 0-10c-49 4-92 57-94 59a5 5 0 0 0 4 8zm20 13h1c31-7 95-42 98-44a5 5 0 0 0-5-8s-66 36-95 42a5 5 0 0 0 1 10zm277 290c2 0 3-1 4-3 16-34 80-53 81-54a5 5 0 1 0-3-9c-3 1-69 21-87 59a5 5 0 0 0 5 7zm-7 24h1c40-7 112-46 115-48a5 5 0 1 0-5-8c-1 0-73 39-112 46a5 5 0 0 0 1 10z"/>
</svg>
