<svg xmlns="http://www.w3.org/2000/svg" xml:space="preserve" viewBox="0 0 2000 2000">
  <path fill="#d07f23" d="M535 597s33-42-445-365C5 175-15 1197 380 1424c394 227 1283 87 1510 63s-162-238-200-405c-75-330-36-363-275-555-239-191-880 70-880 70z"/>
  <path fill="#d07f23" d="M1635 527s-11-359-83-335-146 142-242 130-225-55-395-55c-91 0-117-290-200-218-84 71-425 553-140 823 153 146 535 195 835 105 332-99 225-450 225-450zM930 1400s-419 203-72 335 586-191 885 12 120 239-36 203c-155-36-406-71-789-12-383 60-550-323-335-526s347-12 347-12z"/>
  <path fill="#261d2a" d="M1204 726c2 0 4-1 4-3 30-85 151-92 152-92a5 5 0 0 0 0-10c-6 0-130 8-161 99a5 5 0 0 0 5 6zM824 692c3 0 5-2 5-4 15-113-86-167-87-168-2-1-5 0-7 2-1 3 0 6 3 7 0 1 95 52 81 158a5 5 0 0 0 5 5z"/>
  <path fill="#f6f7e2" d="M1526 458s4-179-13-171c-17 9-122 77-128 94-7 17 141 77 141 77z"/>
  <path fill="#261d2a" d="M1449 413c10 0 28-8 53-24a5 5 0 0 0-6-9c-19 13-39 22-45 23 1-9 19-37 35-60a5 5 0 1 0-8-6c-45 64-38 71-35 73 1 2 3 3 6 3z"/>
  <path fill="#f6f7e2" d="M816 306s-80-147-91-137c-10 11-70 159-66 166 3 7 157-29 157-29z"/>
  <path fill="#261d2a" d="M738 321h3c2-2 8-6 3-80 0-3-3-5-5-5-3 0-5 3-5 6 2 24 2 53 1 65-7-9-21-30-33-50a5 5 0 0 0-8 6 327 327 0 0 0 44 58z"/>
  <path fill="#bb5a44" d="M1323 325s-85 220-101 195c-15-26 5-214 5-214s82 12 96 19zM1205 306s-75 201-89 208c-28 12-25-230-12-232 12-3 101 24 101 24zM1080 279s-28 237-52 230c-25-8-45-234-25-237 20-2 77 7 77 7zM978 272s-37 214-50 204c-12-10-52-208-45-215 8-8 95 11 95 11zM1641 617s-191 5-166 18c25 12 162 72 165 62 2-10 1-80 1-80zM1637 751s-206-33-208-12c-3 20 166 119 174 103 16-30 34-91 34-91zM1574 890s-123-63-130-48c-8 15 61 98 69 98 7 0 49-44 61-50z"/>
  <path fill="#f6f7e2" d="M358 1423s-7-213 167-211c184 3 226-175 324-117 99 58 1 142 196 262 74 46 41 176 41 176s-320 139-728-110z"/>
  <path fill="#261d2a" d="M620 1498c2 0 3-2 4-3 12-28 110-69 147-83a5 5 0 1 0-3-9c-14 5-138 52-153 88a5 5 0 0 0 5 7z"/>
  <path fill="#261d2a" d="m720 1498 4-3c16-27-44-106-50-115a5 5 0 0 0-8 6c24 31 59 88 49 104a5 5 0 0 0 5 8z"/>
  <path fill="#261d2a" d="M830 1574c78 0 167-9 267-31a5 5 0 1 0-2-10c-539 117-741-139-743-141a5 5 0 1 0-8 6c2 2 139 176 486 176z"/>
  <path fill="#d07f23" d="M80 252s70 70 75 105"/>
  <path fill="#261d2a" d="M155 362h1c2 0 4-3 4-5-5-37-74-105-77-108a5 5 0 0 0-7 7c1 1 69 69 74 102 0 3 2 4 5 4z"/>
  <path fill="#d07f23" d="M125 392s-25-80-65-105"/>
  <path fill="#261d2a" d="M125 397h1c3-1 4-4 4-6-1-4-26-82-68-108-2-1-5-1-6 2-2 2-1 5 1 7 38 23 63 101 63 102 1 2 3 3 5 3z"/>
  <path fill="#d07f23" d="M210 654s-65-51-95-41"/>
  <path fill="#261d2a" d="M210 659a5 5 0 0 0 3-9c-7-5-68-53-99-42a5 5 0 1 0 3 9c22-7 72 27 90 41l3 1z"/>
  <path fill="#d07f23" d="M192 676s-57-36-82-31"/>
  <path fill="#261d2a" d="M192 681a5 5 0 0 0 2-9c-6-4-59-37-85-32a5 5 0 1 0 2 10c19-4 63 21 78 30l3 1z"/>
  <path fill="#d07f23" d="M1780 1417s65-40 130 45"/>
  <path fill="#261d2a" d="M1910 1467a5 5 0 0 0 4-8c-67-87-136-46-137-46a5 5 0 0 0 5 9c3-2 63-37 124 43 1 2 2 2 4 2z"/>
  <path fill="#d07f23" d="M1845 1377s72 23 95 68"/>
  <path fill="#261d2a" d="m1940 1450 2-1c3-1 4-4 2-6-23-47-95-70-98-70a5 5 0 0 0-3 9c1 0 71 23 92 65 1 2 3 3 5 3z"/>
  <path fill="#bb5a44" d="M473 469s177 27 164 37c-14 10-184 90-184 63s20-100 20-100zM453 612s217 4 190 20c-26 17-176 110-186 97s-4-117-4-117zM472 774s165-62 151-42c-13 20-67 123-83 120-17-2-72-48-68-78zM1653 900s-156 135-130 135 151-10 151-21c0-10-21-106-21-114zM1679 1052s-145 49-145 57c0 7 187 62 187 46 0-15-44-80-42-103zM420 1015s32-143 11-132c-21 10-88 78-81 88 8 10 70 44 70 44zM317 932s70-143 54-140c-15 3-114 75-111 91 2 15 57 49 57 49zM247 852s77-96 54-94c-23 3-101 34-101 44 0 11 47 50 47 50zM406 468s-95 112-103 104c-9-9 23-175 32-170 58 32 71 66 71 66zM315 394S206 541 203 524c-4-17 37-183 42-185s70 55 70 55z"/>
  <path fill="#261d2a" d="M540 1064c9 0 17 0 26-2a5 5 0 1 0-2-10c-127 21-278-129-378-276-58-86-82-147-77-156 9-14 96-6 294 77a5 5 0 1 0 4-9c-1-1-70-30-141-53-133-44-158-33-165-20-12 18 30 98 76 166 96 141 238 283 363 283z"/>
  <path fill="#d07f23" d="M1528 1221c-159 311-561 486-465 312 78-141 192-490 192-490"/>
  <path fill="#261d2a" d="M1107 1595c3 0 5-2 5-4 5-32 64-65 65-65a5 5 0 1 0-5-9c-3 1-65 35-70 72a5 5 0 0 0 5 6zM1075 1598c2 0 4-1 5-3 14-55 51-74 51-74a5 5 0 0 0-4-9c-2 1-42 21-57 80a5 5 0 0 0 5 6z"/>
  <path fill="#bb5a44" d="M1466 1306s-111-52-119-49c-8 2 49 132 57 132s62-75 62-83zM1381 1410s-78-114-86-94c-8 21 13 164 13 164z"/>
  <path fill="#261d2a" d="M1080 1607h4c88-4 332-156 448-384 2-2 1-5-2-7-2-1-5 0-6 2-116 225-354 376-441 379-9 0-22-1-27-9-4-7-5-22 12-52 77-140 166-424 167-427a5 5 0 1 0-10-3c-1 3-89 286-166 425-15 28-19 49-11 62 6 9 16 14 32 14z"/>
  <path fill="#bb5a44" d="M183 1186s95-91 84-93c-11-1-115 14-118 20-3 7 25 67 34 73zM136 1080s151-78 130-80c-22-1-155-12-156-5-1 8 25 77 26 85zM100 975s133-59 121-62c-13-4-136-26-137-21-2 5 10 71 16 83z"/>
  <path fill="#f6f7e2" d="M1302 1044s-30-227-115-237-41-150-137-167c-128-23-118 115-203 105s-147 52-182 207c0 0 334 177 637 92z"/>
  <path fill="#261d2a" d="m1187 861 2-1 160-87a5 5 0 1 0-5-8l-160 86a5 5 0 0 0 3 10zM1197 887h1l250-56a5 5 0 1 0-3-10l-250 56a5 5 0 0 0 2 10zM1363 924a5 5 0 0 0 0-10l-166-8c-3-1-5 2-5 4-1 3 2 6 4 6l167 8zM803 832a5 5 0 0 0 4-8l-97-115c-1-2-5-2-7-1-2 2-2 5 0 8l96 115 4 1zM793 857a5 5 0 0 0 3-9L626 728a5 5 0 0 0-6 8l170 120 3 1zM772 877a5 5 0 0 0 0-10l-155-16c-3-1-5 1-5 4-1 3 1 5 4 6l155 16h1z"/>
  <path fill="#261d2a" d="M1120 1070c127 0 249-26 344-81 113-64 233-195 169-452-1-3-3-5-6-4s-4 3-4 6c63 251-54 379-163 441-257 148-711 83-933-134-183-178 13-508 15-511a5 5 0 0 0-9-5c-2 3-202 340-13 523 143 139 379 217 600 217Z"/>
  <path fill="#ca7a8c" d="M1009 948s60 135-63 151c-123 15-36-174-36-174s25 87 99 23z"/>
  <path fill="#261d2a" d="M959 980c43 0 88-92 90-96a5 5 0 1 0-9-4c-12 25-50 90-81 90-30 0-48-73-52-101-1-2-3-4-6-4-3 1-4 3-4 6 2 11 18 109 62 109z"/>
  <path fill="#261d2a" d="M959 980c2 0 4-2 5-4l24-149a5 5 0 0 0-10-2l-24 149a5 5 0 0 0 5 6z"/>
  <path fill="#ca7a8c" d="M946 788s28 37 34 37c6-1 50-21 50-21s-45-32-84-16z"/>
  <path fill="#261d2a" d="M953 1057c3 0 5-2 5-5-1-31 1-69 5-74a5 5 0 1 0-8-6c-8 11-8 64-7 81 0 2 2 4 5 4z"/>
  <path fill="#bb5a44" d="M1585 1521s-37-92-45-90c-8 1-40 96-35 96s68-1 80-6zM1482 1534s-34-133-42-123-50 118-52 128c-1 10 94-5 94-5zM487 1632s153-5 145 3c-7 7-110 100-122 97-13-2-23-100-23-100zM520 1760s147-75 150-60c2 15-75 155-85 150s-55-46-65-90zM612 1872s128-132 125-117c-2 15-20 160-30 165s-87-35-95-48zM990 1765s35 127 45 125c10-3 65-125 52-125-12 0-90 2-97 0zM1115 1762s32 128 42 128 78-153 65-150l-107 22zM1239 1735s46 142 53 137c8-5 53-164 38-162-13 1-61 20-91 25zM1497 1915s88-143 90-128c3 15 9 140 0 140-9 1-90-12-90-12zM1610 1930s40-160 52-153c13 8 28 169 25 168-53-8-77-15-77-15zM1707 1950s28-135 40-128c13 8 38 139 32 140-13 3-49-4-72-12z"/>
</svg>
