<svg xmlns="http://www.w3.org/2000/svg" xml:space="preserve" viewBox="0 0 2000 2100">
  <path fill="#d07f23" d="M1330 1401s107 333 380 220c273-114-386-613-133-827 210-178 486 350 326 327-101-15-217-390-271-210-53 180 351 345 238 665s-513 145-567 31c-53-113 27-206 27-206z"/>
  <path fill="#d07f23" d="M217 619s-32-33 68 197c38 88 12 940-55 1016-140 160-213 254-167 260 47 7 487-120 840-100 354 20 799 69 854 54 120-34-119-135-172-215s-185-680-190-1140c-2-211-71-347-85-365C1166 140 217 619 217 619Z"/>
  <path fill="#d07f23" d="M240 406s71-240 96-215c26 26 201 152 201 152s178-82 362-91c58-2 4-255 57-245s313 179 379 336c160 380-4 562-385 683-380 120-870-85-710-620Z"/>
  <path fill="#feffff" d="M684 814s21-396 88-393c110 5 227 247 249 349s-352 133-337 44zM497 1906s18-135 138-195 85-710 240-655 226 599 325 615c53 8 183 48 143 115a524 524 0 0 1-440 206c-259-16-371-31-406-86z"/>
  <path fill="#d07f23" d="M487 526s103-50 150 75"/>
  <path fill="#261d2a" d="M637 606c-2 0-4-2-4-4-15-38-37-64-65-75-40-16-79 3-79 3a5 5 0 0 1-5-9c2-1 44-21 88-3 31 12 54 39 70 81a5 5 0 0 1-5 7zM854 704c-44 0-102-80-104-84a5 5 0 1 1 8-6c17 24 68 85 100 80 31-6 37-84 37-114-1-3 2-5 4-5 3 0 5 2 6 5 0 12 0 116-45 123l-6 1z"/>
  <path fill="#261d2a" d="M859 704c-2 0-4-2-5-4l-51-150a5 5 0 1 1 10-3l50 150a5 5 0 0 1-4 7z"/>
  <path fill="#ca7a8c" d="M839 503s-22 43-28 43c-6 1-56-12-56-12s41-41 84-31z"/>
  <path fill="#d07f23" d="M1063 429s-78-43-98 107"/>
  <path fill="#261d2a" d="m965 541-1-1c-3 0-4-2-4-5 8-60 26-97 54-111 26-13 51 0 52 0a5 5 0 0 1-5 9s-21-11-43 0c-24 12-41 48-48 103 0 3-3 5-5 5z"/>
  <path fill="#feffff" d="M472 376S367 261 357 266s-20 175-5 170 120-60 120-60zM982 236s-17-148 5-143c23 5 153 90 158 108 5 17-163 35-163 35z"/>
  <path fill="#261d2a" d="M270 748a5 5 0 0 1-1-10l298-27c3-1 5 1 5 4 1 3-1 5-4 6l-298 27zM315 846a5 5 0 0 1-2-10l270-93c3-1 6 1 7 3 1 3-1 6-3 7l-270 92-2 1zM390 913l-4-2c-2-2-1-6 1-7l200-138a5 5 0 0 1 6 9L393 912l-3 1zM1067 598l-4-2c-1-3-1-6 2-7l175-105a5 5 0 0 1 5 8l-175 105-3 1zM1085 631a5 5 0 0 1-2-10l265-108a5 5 0 0 1 4 10l-265 107-2 1zM1107 656a5 5 0 0 1 0-10l265-48c2 0 5 1 5 4 1 3-1 5-4 6l-265 47-1 1z"/>
  <path fill="#d07f23" d="M649 314s-17 67 24 82c40 15 60-70 32-59-33 14 27 94 64 73 36-22 38-124 13-98-15 16 52 86 65 57 20-40-26-94-26-94"/>
  <path fill="#261d2a" d="M755 418c-9 0-17-3-26-8-8-5-16-12-22-19-10 11-23 15-36 10-44-17-27-86-27-88 1-3 4-5 6-4 3 1 5 3 4 6 0 1-15 63 20 76 12 5 21-2 27-9-7-11-12-23-11-32 1-8 5-14 13-17 9-4 14 1 16 3 8 10 3 31-6 46 6 8 13 14 21 19 9 6 21 11 32 4 14-8 23-32 26-53-6-8-12-16-14-22-5-12-3-18 0-21 6-7 11-7 14-6 6 2 10 9 11 21v25c11 12 25 22 34 22 3 0 5-1 6-4 17-37-26-88-26-89a5 5 0 1 1 7-6c2 2 48 57 28 99-3 7-8 10-15 10-11 0-25-9-36-20-5 22-14 44-30 53-5 3-10 4-16 4zm-45-77-3 1c-4 2-6 4-7 9 0 6 2 14 7 22 6-13 8-27 4-31l-1-1zm79-28-3 2c-1 2-2 5 1 11l7 11v-8c-1-12-4-16-5-16z"/>
  <path fill="#d07f23" d="M500 1238s85-87 185-30c100 58 150 255 122 293-27 37-152-168-277-135"/>
  <path fill="#261d2a" d="M798 1510c-15 0-37-19-67-46-53-47-127-113-200-94-3 1-5-1-6-3-1-3 1-6 4-6 78-21 154 47 209 96 26 23 50 44 61 43l4-2c9-12 9-44 1-83-16-75-60-167-122-203-95-54-175 26-179 30-1 1-5 2-7 0s-2-5 0-7c1-1 89-90 191-31 65 37 110 131 127 209 9 43 8 76-3 90a16 16 0 0 1-13 7z"/>
  <path fill="#d07f23" d="M1125 1116s-233 62-160 270c77 221 52-130 235-125"/>
  <path fill="#261d2a" d="M1007 1464c-12-1-25-14-47-77-21-59-19-112 6-158 45-87 153-117 158-118 2-1 5 1 6 3 0 3-1 6-4 6-1 1-108 31-152 113-23 44-24 94-4 151s31 69 37 70c8 0 20-25 30-49 27-61 67-152 163-149 3 0 5 2 5 5 0 2-3 4-5 5l-4-1c-86 0-124 86-149 144-15 33-25 55-40 55zM802 1504c-3 0-5-2-5-4-8-48-51-82-52-82a5 5 0 1 1 6-8c2 1 47 37 55 88a5 5 0 0 1-4 6zM815 1461c-2 0-4-2-5-4-6-27-45-69-45-70a5 5 0 1 1 7-7c2 2 41 45 48 74a5 5 0 0 1-5 7z"/>
  <path fill="#261d2a" d="M1002 1458c-3 0-5-3-5-5l11-100a5 5 0 0 1 10 2l-11 98c0 3-2 5-5 5zM983 1431c-3 0-5-2-5-4-5-62 4-92 5-93 1-2 3-4 6-3s4 4 3 6c0 1-9 30-4 89 0 2-2 5-5 5zM1370 1247h-2c-3-1-4-4-3-7 8-19-4-28-4-28a5 5 0 1 1 5-8c7 4 17 19 9 40-1 2-3 3-5 3zM1363 1366l-2-1c-3-1-4-4-3-6 8-20-4-28-5-29-2-1-3-5-1-7s5-3 7-1c7 5 17 19 8 40-1 2-2 4-4 4zM1353 1306l-2-1c-3-1-4-4-3-6 8-19-4-28-5-29-2-1-2-4-1-7 2-2 5-2 7-1 7 5 17 19 8 41 0 2-2 3-4 3zM1389 1305l-1-1c-3-1-4-4-3-6 8-20-5-29-5-29a5 5 0 1 1 6-8c6 5 17 19 8 40-1 2-3 4-5 4zM1397 1369h-2c-3-1-4-4-3-7 8-19-4-28-5-28-2-2-2-5-1-7 2-2 5-3 7-1 7 4 17 19 8 40 0 2-2 3-4 3zM1388 1420h-2c-2-1-3-4-2-6 7-20-5-29-5-29-2-2-3-5-1-7 1-2 4-3 7-1 6 4 16 19 8 40-1 2-3 3-5 3zM353 1531l-4-1c-6-5-15-21-4-41a5 5 0 1 1 9 4c-10 19 2 29 2 29a5 5 0 0 1-3 9zM371 1414l-3-1c-6-6-15-21-4-41a5 5 0 1 1 9 4c-10 19 1 29 2 29 2 2 2 5 0 7l-4 2zM375 1474l-3-1c-6-5-15-20-4-41 1-2 4-3 6-2 3 1 4 4 2 7-9 18 2 28 2 28a5 5 0 0 1-3 9zM339 1472l-4-1c-6-5-15-21-4-41 1-3 4-4 7-2 2 1 3 4 2 6-10 19 2 29 2 29a5 5 0 0 1-3 9zM338 1407l-4-1c-6-6-15-21-4-41a5 5 0 0 1 9 4c-10 19 2 29 2 29a5 5 0 0 1-3 9zM351 1357l-3-1c-6-6-15-21-5-42a5 5 0 1 1 9 5c-9 19 2 29 2 29a5 5 0 0 1-3 9zM854 1998c-227 0-337-57-390-107-57-53-59-106-59-109 0-2 2-5 5-5 2 0 5 2 5 5 0 1 2 56 63 108 57 49 176 106 425 97 477-16 497-388 497-392 0-2 3-5 5-4 3 0 5 2 5 5 0 4-21 385-507 401l-49 1zM424 394h-2c-21-4-52-38-56-42a5 5 0 0 1 8-6c8 9 33 34 49 38-3-10-20-37-37-59a5 5 0 0 1 8-6c20 27 44 61 38 71-1 1-3 4-8 4zM1065 225c-4 0-12-4-40-71a5 5 0 0 1 9-4c10 23 22 49 29 60l5-65c0-3 3-5 5-4 3 0 5 2 5 5 0 2-3 60-7 74-1 5-4 5-5 5h-1zM1772 2028c-2 0-3-1-4-3-16-37-95-39-96-39-3-1-5-3-5-6 0-2 3-4 6-4s85 3 104 45a5 5 0 0 1-5 7z"/>
  <path fill="#261d2a" d="m1757 2041-4-3c-25-36-86-23-87-23a5 5 0 1 1-2-9c3-1 68-16 97 27a5 5 0 0 1-4 8zM62 2083l-3-1c-2-2-2-5-1-7 29-39 93-49 96-49 3-1 5 1 6 4 0 3-2 5-4 5-1 1-64 11-90 46l-4 2zM72 2093a5 5 0 0 1-2-9c15-8 88-32 91-33 2-1 5 0 6 3s0 5-3 6a1550 1550 0 0 0-92 33z"/>
  <g fill="#261d2a">
    <path d="M1059 1593c-3-1-5-3-5-6 1-19-7-22-8-22-2-1-4-4-3-7 1-2 4-4 7-3 0 0 16 6 14 33 0 2-2 5-5 5zM1074 1547c-3 0-5-3-5-5 1-19-8-23-8-23-3-1-4-4-3-6 1-3 4-4 6-3 1 0 16 5 15 32 0 3-3 5-5 5zM1045 1543h-1c-2 0-4-2-4-5 1-19-8-22-8-23-3-1-4-3-3-6s4-4 6-3c1 0 16 6 15 33 0 2-3 4-5 4zM1099 1598c-3 0-5-2-5-5 1-19-7-23-8-23-2-1-3-4-3-6 1-3 4-4 7-3 0 0 16 5 14 32 0 3-2 5-5 5zM1087 1634h-1c-2 0-5-2-4-5 1-19-8-22-8-23-3-1-4-3-3-6 1-2 3-4 6-3 1 0 16 6 15 33-1 2-3 4-5 4z"/>
  </g>
  <g fill="#261d2a">
    <path d="M1277 370c-3 0-5-2-5-4-3-19-12-21-13-21-2-1-4-3-4-6 1-2 3-4 6-4 1 0 17 2 21 29a5 5 0 0 1-5 6zM1282 322c-3 0-5-2-5-4-3-19-12-21-13-21-2 0-4-3-4-5 1-3 3-5 6-5 1 1 17 3 21 29a5 5 0 0 1-5 6zM1253 325c-3 0-5-2-5-5-3-18-12-20-13-20-2-1-4-3-4-6 1-3 3-5 6-4 0 0 16 2 20 29a5 5 0 0 1-4 6zM1317 367c-2 0-4-2-5-4-3-19-12-21-12-21-3 0-5-3-4-6 0-2 3-4 5-4 1 0 17 3 21 29a5 5 0 0 1-5 6zM1312 405c-2 0-5-1-5-4-3-19-12-21-12-21-3 0-5-3-4-5 0-3 2-5 5-4 1 0 17 2 21 29a5 5 0 0 1-5 5z"/>
  </g>
  <g fill="#261d2a">
    <path d="m277 645-3-1c-1-1-14-10-6-36 1-2 4-4 6-3 3 1 4 4 3 6-5 18 2 24 3 24 2 2 2 5 1 7l-4 3zM251 685l-2-1c-1 0-14-9-6-35 0-3 3-4 6-3 2 1 4 3 3 6-6 18 2 24 2 24 2 2 3 5 1 7l-4 2zM279 696l-3-1c-1 0-14-10-6-35 1-3 3-4 6-4 3 1 4 4 3 7-5 18 2 23 2 24 3 1 3 4 2 7l-4 2zM239 629l-3-1s-14-9-6-35c1-2 4-4 7-3 2 1 4 4 3 6-6 18 2 24 2 24 2 2 3 5 1 7-1 2-2 2-4 2zM261 597l-3-1c-1 0-14-9-6-35 1-3 3-4 6-3s4 3 3 6c-5 18 2 24 2 24 3 2 3 5 2 7l-4 2z"/>
  </g>
  <path fill="#d07f23" d="M1839 909s18-2 23 24"/>
  <path fill="#261d2a" d="M1862 938c-2 0-4-2-5-4-4-21-17-20-18-20-2 1-5-1-5-4-1-3 1-5 4-6 0 0 23-2 29 28a5 5 0 0 1-5 6z"/>
  <path fill="#d07f23" d="M1805 863s19-2 24 24"/>
  <path fill="#261d2a" d="M1829 892c-3 0-5-2-5-4-4-22-18-20-18-20-3 0-6-2-6-4 0-3 1-6 4-6 0 0 24-3 30 28a5 5 0 0 1-5 6z"/>
  <path fill="#d07f23" d="M1800 909s19-2 24 24"/>
  <path fill="#261d2a" d="M1824 938c-3 0-5-2-5-4-4-21-18-20-18-20-3 1-6-1-6-4s1-5 4-6c0 0 24-2 30 28a5 5 0 0 1-5 6z"/>
  <path fill="#d07f23" d="M1765 864s19-2 24 24"/>
  <path fill="#261d2a" d="M1789 893c-3 0-5-2-5-4-4-21-18-20-18-20-3 1-6-1-6-4s1-5 4-6c0 0 24-2 30 28a5 5 0 0 1-5 6z"/>
  <path fill="#d07f23" d="M1765 827s19-2 24 24"/>
  <path fill="#261d2a" d="M1789 856c-2 0-4-2-5-4-4-22-18-20-18-20-3 0-5-2-6-4 0-3 2-6 5-6 0 0 23-3 29 28a5 5 0 0 1-5 6z"/>
  <path fill="#d07f23" d="M1737 1361s19-2 24 24"/>
  <path fill="#261d2a" d="M1761 1390c-3 0-5-2-5-4-4-21-18-20-18-20a5 5 0 1 1-2-10c1 0 24-2 30 28a5 5 0 0 1-5 6z"/>
  <path fill="#d07f23" d="M1716 1318s19-3 24 24"/>
  <path fill="#261d2a" d="M1740 1347c-2 0-4-2-5-4-4-22-18-20-18-20-3 0-5-2-6-4 0-3 2-6 5-6 0 0 23-3 29 28a5 5 0 0 1-5 6z"/>
  <path fill="#d07f23" d="M1756 1331s19-2 24 24"/>
  <path fill="#261d2a" d="M1780 1360c-3 0-5-2-5-4-4-22-18-20-18-20-3 0-6-1-6-4s1-5 4-6c0 0 24-3 30 28a5 5 0 0 1-5 6z"/>
  <path fill="#d07f23" d="M1786 1378s19 3 17 30"/>
  <path fill="#261d2a" d="M1803 1413h-1c-3-1-5-3-4-6 1-22-12-24-13-24a5 5 0 0 1 1-10c1 0 24 4 22 35-1 3-3 5-5 5z"/>
  <path fill="#d07f23" d="M1771 1419s18 2 16 29"/>
  <path fill="#261d2a" d="M1787 1453c-3 0-5-3-5-5 2-21-11-24-12-24-3-1-5-3-4-6 0-2 3-4 5-4 1 0 24 3 21 34 0 3-2 5-5 5z"/>
</svg>
