<svg xmlns="http://www.w3.org/2000/svg" xml:space="preserve" viewBox="0 0 1800 2300">
  <path fill="#212438" d="M847 208s232-194 437-194c26 0-91 143-91 143s188 122 224 132c35 10 188-107 208-86 21 20 36 503-51 590-86 86-608 89-712-56-127-178-116-428-15-529z"/>
  <path fill="#feffff" d="M803 564s125-122 200-107-27 267 40 335c68 67-42 52-132 0-108-63-138-205-108-228Z"/>
  <path fill="#212438" d="M1616 714s360 1280 60 1440-1050 210-1410-60 140-610-10-980-380-400-160-420 500 190 500 510-600 734-150 840c380 90 430 60 430 60s-160 40-190-410 580-380 440-840 490-140 490-140Z"/>
  <path fill="#fcfdff" d="M936 434h-2c-3-1-4-4-3-7 54-110 11-177 11-177a5 5 0 1 1 8-6c2 3 46 73-10 188l-4 2z"/>
  <path fill="#261d2a" d="m921 682-9-2c-40-15-50-113-50-117 0-3 2-5 5-6 2 0 5 2 5 5 3 27 15 98 43 108 27 10 67-49 81-73a5 5 0 1 1 8 5c-5 9-45 80-83 80z"/>
  <path fill="#261d2a" d="M913 680h-1c-2-1-4-3-4-6l29-142a5 5 0 0 1 9 1l-28 143c0 2-2 4-5 4z"/>
  <path fill="#ca7a8c" d="M987 510s-37 24-42 22c-6-2-39-35-39-35s51-14 81 13z"/>
  <path fill="#fcfdff" d="M1138 534a5 5 0 0 1-3-9c4-3 99-74 175-59 27 5 48 21 63 46a5 5 0 1 1-9 5 82 82 0 0 0-56-41c-71-14-166 57-167 57l-3 1zM841 1354c-2 0-3 0-4-2-2-2-1-5 1-7 282-203 460-240 462-241 2 0 5 2 6 4 0 3-2 6-4 6-2 1-178 38-458 239l-3 1z"/>
  <path fill="#261d2a" d="m856 382-4-2-135-185c-2-2-1-6 1-7 2-2 5-1 7 1l135 185a5 5 0 0 1-4 8zM836 409l-4-1-242-220a5 5 0 1 1 7-7l242 220a5 5 0 0 1-3 8zM823 442l-2-1-252-125a5 5 0 0 1 4-9l252 125a5 5 0 0 1-2 10z"/>
  <path fill="#fcfdff" d="M1361 622h-1l-195-25a5 5 0 0 1 1-10l195 25a5 5 0 0 1 0 10zM1388 682h-1l-232-58a5 5 0 1 1 2-9l232 57a5 5 0 0 1-1 10zM1303 779l-3-1-157-117a5 5 0 1 1 6-8l157 117a5 5 0 0 1-3 9z"/>
  <path fill="#261d2a" d="M1061 837h-1c-228-38-271-257-272-259a5 5 0 0 1 10-2c1 2 42 214 264 251a5 5 0 0 1-1 10z"/>
  <path fill="#fcfdff" d="M1212 859c-53 0-87-12-88-12a5 5 0 0 1 3-10c2 1 170 57 325-86a5 5 0 1 1 7 7 359 359 0 0 1-247 101zM823 442l-2-1-52-25a5 5 0 1 1 4-9l52 25a5 5 0 0 1-2 10zM836 409l-4-1-60-55a5 5 0 1 1 7-7l60 55a5 5 0 0 1-3 8zM856 382l-4-2-65-88a5 5 0 1 1 8-6l65 88a5 5 0 0 1-4 8z"/>
  <path fill="#ca7a8c" d="M1473 334s125-87 133-72c7 15-23 145-30 150-8 5-103-78-103-78zM1153 137s75-75 60-75-130 17-122 32c7 15 62 43 62 43z"/>
  <path fill="#fcfdff" d="M498 1034h-1c-3 0-4-3-4-6 7-31-19-39-21-39a5 5 0 1 1 3-9s37 9 28 50c0 3-3 4-5 4zM425 1018h-1c-3-1-5-4-4-6 7-31-18-39-21-39a5 5 0 0 1 2-10c1 0 38 10 29 51-1 2-3 4-5 4zM465 951h-1c-3-1-5-3-4-6 7-32-20-39-21-39a5 5 0 0 1 2-10c1 0 38 10 29 51-1 2-3 4-5 4zM979 1341h-2c-2-1-4-4-3-6 1-1 16-36 55-21 2 1 4 4 3 6-1 3-4 4-7 3-29-11-40 13-41 15s-3 3-5 3zM949 1411h-2c-2-1-4-4-3-6 1-1 16-36 55-21 2 1 4 4 3 6-1 3-4 4-7 3-29-11-40 13-41 15s-3 3-5 3zM1011 1367h-2c-2-1-4-4-3-7 1 0 15-35 55-20 2 1 4 4 3 6-1 3-4 4-7 3-29-11-40 12-41 15-1 2-3 3-5 3zM1572 2127h-7a5 5 0 1 1 1-10c32 3 36-22 37-25 0-3 3-5 6-5 2 1 4 3 4 6 0 0-5 34-41 34zM1650 2084h-7a5 5 0 1 1 1-10c31 4 36-22 36-25 1-3 3-4 6-4s5 3 4 6c0 0-5 33-40 33zM1661 2027a5 5 0 0 1-1-10c33-1 33-29 33-30 0-3 2-5 5-5 2 0 5 2 5 5 0 0 0 38-42 40zM1646 1977a5 5 0 0 1-1-10c33-1 33-29 33-30 0-3 2-5 5-5 2 0 5 2 5 5 0 0 0 38-42 40zM1727 1957l-4-2c-2-3-1-6 1-7 27-18 13-42 12-43a5 5 0 0 1 9-5s20 33-15 56l-3 1zM1717 2034c-2 0-3 0-4-2-2-2-1-5 1-7 27-18 13-41 12-42a5 5 0 0 1 9-6c0 1 20 33-15 57h-3zM1587 2062h-7a5 5 0 1 1 1-10c32 3 36-22 37-25 0-3 3-5 6-5 2 1 4 3 4 6 0 0-5 34-41 34zM812 1448c-3 0-5-3-5-6a40 40 0 0 1 45-37 5 5 0 0 1 0 10c-32-1-35 27-35 28 0 3-2 5-5 5zM896 1385l-2-1c-3-1-4-4-3-6 0 0 15-36 55-21 2 1 3 4 2 7-1 2-3 4-6 3-30-12-41 12-42 15 0 2-2 3-4 3zM877 1456c-3-1-5-3-5-6 0 0 3-38 44-37a5 5 0 0 1 0 10h-1c-31 0-33 25-33 28 0 2-2 5-5 5zM818 1511c-3 0-5-2-5-5 0 0-5-38 36-45 3-1 5 1 6 4 0 3-1 5-4 6-31 5-29 31-28 34a5 5 0 0 1-5 6zM408 951h-1c-3-1-4-3-4-6 7-32-19-39-21-39a5 5 0 0 1 3-10s37 10 28 51c0 2-3 4-5 4zM398 878h-1c-3-1-4-4-4-6 7-32-19-39-21-39a5 5 0 1 1 3-10s37 10 28 51c0 2-3 4-5 4zM345 878h-1c-3-1-5-4-4-6 7-31-18-39-21-39a5 5 0 0 1 2-10c1 0 38 10 29 51-1 2-3 4-5 4zM489 1099h-2c-3-1-4-4-3-7 11-30-15-41-16-41a5 5 0 0 1 4-9s35 14 21 54c0 2-2 3-4 3z"/>
  <path fill="#261d2a" d="M1523 379h-2l-4-3c-1-2-4-9 26-66a5 5 0 0 1 9 5c-10 19-21 41-24 52 10-7 31-24 49-40 3-2 6-1 8 1 1 2 1 5-1 7-46 40-58 44-61 44zM1126 124l-2-1c-2-1-3-3-3-5 0-8 12-30 15-36 2-2 5-3 7-2 3 1 3 4 2 7l-11 20c8-5 18-15 27-23a5 5 0 1 1 6 7c-29 28-37 33-41 33z"/>
  <path fill="#fcfdff" d="M1187 241h-1c-2-1-4-3-4-6 5-24 24-31 34-31a5 5 0 0 1 0 10c-1 0-20 1-24 23 0 2-2 4-5 4zM1202 281h-1c-2-1-4-3-4-6 5-24 24-31 34-31a5 5 0 0 1 0 10c-1 0-20 1-24 23 0 2-2 4-5 4zM1259 278h-1c-3-1-4-4-4-6 5-25 24-31 33-31a5 5 0 0 1 0 10s-19 1-23 23c0 2-3 4-5 4zM1206 328h-1c-3-1-5-4-4-6 4-25 24-31 33-31a5 5 0 0 1 0 10c-1 0-19 1-23 23-1 2-3 4-5 4zM1261 314h-1c-3 0-5-3-4-6 4-24 24-30 33-30a5 5 0 0 1 0 10c-1 0-19 0-23 22-1 3-3 4-5 4zM1643 1035a5 5 0 0 1-5-6c1-1 6-19-14-30a5 5 0 1 1 5-8c22 12 22 32 19 41-1 2-3 3-5 3zM1612 1080l-2-1c-2-1-3-4-2-7 1 0 10-16-7-31a5 5 0 0 1 6-8c19 17 15 36 10 45l-5 2zM1667 1110l-2-1c-2-1-3-4-2-7 1 0 10-16-7-31a5 5 0 0 1 6-8c19 17 15 36 10 45l-5 2zM1681 1178h-3c-2-2-3-5-2-7 1-1 10-17-7-32a5 5 0 0 1 7-7c18 16 14 36 9 44l-4 2zM1659 1213h-2c-3-2-4-5-2-7 0-1 9-17-8-32a5 5 0 0 1 7-7c19 16 14 36 9 44l-4 2zM1627 1158h-2c-2-2-3-5-2-7 1-1 10-17-7-32a5 5 0 0 1 6-7c19 16 15 36 10 44l-5 2zM1167 306c-2 0-4-1-4-3-8-24 5-39 14-43 2-2 5-1 7 2 1 2 0 5-2 7-1 0-17 9-10 31a5 5 0 0 1-5 6z"/>
</svg>
