<svg xmlns="http://www.w3.org/2000/svg" xml:space="preserve" viewBox="0 0 2300 2600">
  <g transform="matrix(-10 0 0 10 2669 -2356)">
    <path fill="#212438" d="M159 271s5-34 9-32c4 3 16 16 19 32zM138 279s-26-39-30-34c-3 4-5 41-1 46 3 5 31-12 31-12z"/>
    <path fill="#ead9ba" d="M161 272s24-14 40 27c16 42-25 59-27 66s-36-31-53-46c-16-15 40-47 40-47z"/>
    <path fill="#ead9ba" d="M46 422s18-26 43-39c25-12 15-35 15-78 0-22 81 8 91 22 10 13 3 37 7 52s3 27-4 41c-6 13 42-2 52 20 8 16-62 2-124 0-37-1-77 17-80-18z"/>
    <circle cx="186.8" cy="306.6" r="3.7" fill="#212438"/>
    <circle cx="160" cy="313" r="3.7" fill="#212438"/>
    <path fill="#ead9ba" d="M124 275s-11-23-11-18c-1 4-5 16 0 25zM165 270s1-21 3-21c1 1 8 7 9 21z"/>
    <path fill="#261d2a" d="M174 417h-1v-1c5 2 13-9 13-9h1v1l-2 5s1 1 3-1c6-5 6-15 6-15h1c0 1 0 10-7 16l-3 1v-4c-3 3-7 7-11 7z"/>
    <path fill="#ead9ba" d="M170 312s43-3 46-1c4 4 6 26-8 28-1 0-38 10-40 4s2-31 2-31z"/>
    <path fill="#261d2a" d="M177 320v-1c1-1 21-12 28-5l-1 1c-6-6-26 5-26 5h-1zM201 333c-3 0-8-8-8-9a1 1 0 0 1 1 0c2 3 5 9 7 8 3-1 6-9 7-12h1c0 2-4 12-7 13h-1z"/>
    <path fill="#261d2a" d="M202 333h-1v-16h1v16z"/>
    <path fill="#212438" d="M42 432s-13 27 18 46 59-9 73 9c14 17 19-13-9-28-29-15-73 13-75-25z"/>
    <path fill="#ead9ba" d="M51 444s5 13 17 20c11 7 20-4 33 1 14 6 7-2 7-2s21-1 26 3c5 5-6-12-23-15-16-3-40 7-60-7z"/>
    <path fill="#261d2a" d="M249 444c-2-2-12-3-15-3a1 1 0 0 1 0-1s13 0 16 3l-1 1zM252 441h-1c-1-2-11-4-15-5v-1c1 1 14 3 16 5a1 1 0 0 1 0 1zM118 278l-2-2-2-2h-1l1-1 3 3 1 1-3-8 1-1 3 9v1h-1zM171 266l-1-1-1-7 1-1v1l1 7 1-4h1l-2 5z"/>
    <path fill="#212438" d="M192 313s11-6 15-1c2 3-1 10-5 9-5-1-15-7-10-8z"/>
    <path fill="#fcfdff" d="M206 314h-6a1 1 0 0 1 0-1h6a1 1 0 0 1 0 1z"/>
    <path fill="#261d2a" d="M172 345v-1a191 191 0 0 0 41-7s-27 8-41 8z"/>
    <path fill="#212438" d="M145 354s-21 5-3 44c14 31 47 24 67 27 4 0 12 1 14 3 6 8-6 19-6 19-45-4-75-5-86-5-12 0-31-52-26-64 4-11 14-37 40-24z"/>
    <path fill="#212438" d="M128 312s17-20 21-20c3 0 26 18 25 16 0-2 1-27 3-27l22 17c1 3-1 12-1 12h7s-8-37-22-42c-13-5-72 11-74 14-2 4-11 38-10 48 1 11 44 25 46 24 2 0-27-18-17-42z"/>
    <path fill="#212438" d="M99 330s3 23 0 30c-4 7-47 32-54 38-7 5-8 42-5 44 3 3 86 1 92-1s-13-65-10-71c2-5 13-16 13-16s-11-21-36-24z"/>
    <path fill="#fcfdff" d="m131 443-1-1c-5-30-15-48-29-53-16-7-32 5-32 5a1 1 0 0 1-1-1c1 0 17-12 33-5 15 6 25 24 30 54a1 1 0 0 1 0 1z"/>
    <path fill="#ead9ba" d="M260 419s-45-9-54-7c-8 3-4-16 1-15s80 11 53 22z"/>
    <path fill="#261d2a" d="M263 414c-2-3-11-4-11-4v-1c1 0 9 1 11 4v1zM262 418h-1c-3-3-12-5-13-5l1-1s9 2 13 5a1 1 0 0 1 0 1z"/>
    <path fill="#212438" d="m201 414 34 1c9-22-27-14-28-24l-7-50s-12 9-10 12c7 8 11 10 8 35-1 6 3 26 3 26z"/>
  </g>
  <path fill="#fcfdff" d="M1187 417c2 0 4-1 5-3 3-9 7-15 13-17 7-4 14-2 14-2 2 1 5 0 6-3 1-2 0-5-3-6 0 0-11-4-21 2-9 4-15 11-19 23a5 5 0 0 0 5 6zM1137 403c3 0 5-2 5-5 1-9 4-16 9-20 6-5 13-5 13-5a5 5 0 1 0 1-10c-1 0-11 0-21 7-7 6-11 15-12 28 0 2 2 5 5 5zM1137 456c3 0 5-2 5-5 1-9 4-16 9-20 6-5 13-5 13-5a5 5 0 1 0 1-10c-1 0-11-1-21 7-7 6-11 15-12 27 0 3 2 5 5 6zM1087 442c3 0 5-2 5-5 2-25 20-25 22-25 2 1 5-1 5-4s-2-5-5-6c0 0-11 0-20 7-7 6-11 15-12 28 0 2 2 5 5 5zM1087 487c3 0 5-2 5-5-1-26 16-28 18-28 3 0 5-2 5-5s-3-5-5-5c-1 0-12 1-20 10-6 7-9 16-8 28 0 3 2 5 5 5zM1097 391c3 0 5-2 5-5-1-9 0-17 5-22 4-6 12-7 12-7 2 0 4-2 4-5s-3-5-5-5c-1 1-12 2-19 11-6 7-8 17-7 29 0 2 2 4 5 4z"/>
  <g fill="#fcfdff">
    <path d="M1623 1676c3 0 5-2 5-5 0-18 22-22 23-22a5 5 0 0 0-2-10c-11 2-31 11-31 32 0 3 2 5 5 5zM1682 1690h1c2 0 4-2 4-5 0-18 22-21 23-22a5 5 0 0 0-2-9c-11 1-31 10-31 31 0 3 3 5 5 5zM1678 1632c3 0 5-2 5-5 0-18 22-21 23-22 2 0 4-3 4-5-1-3-3-5-6-4-11 1-31 10-31 31 0 3 2 5 5 5zM1724 1651c3 0 5-2 5-5 0-18 22-22 23-22a5 5 0 0 0-2-10c-11 2-31 11-31 32 0 3 3 5 5 5zM1732 1605c2 0 5-2 5-5-1-18 21-22 22-22a5 5 0 0 0-1-10c-11 2-32 11-31 32 0 3 2 5 5 5zM1788 1608c3 0 5-2 5-4 2-18 25-19 25-19 3 0 5-3 5-5 0-3-2-5-5-5-11 0-32 6-35 27a5 5 0 0 0 5 6zM1622 1732c2 0 5-2 5-5-1-18 21-21 22-22 3 0 5-3 4-5 0-3-3-5-5-5-11 2-32 11-31 32 0 3 2 5 5 5zM1581 1740h2c2-1 4-4 3-7-6-17 14-27 15-27a5 5 0 0 0-4-9c-10 5-27 19-21 39 1 2 3 4 5 4z"/>
  </g>
  <g fill="#fcfdff">
    <path d="M1832 2466c8 0 17-3 24-12a5 5 0 1 0-8-6c-11 15-31 4-31 4-3-1-6 0-7 2-1 3 0 6 2 7 5 2 12 5 20 5zM1794 2418c8 0 17-2 23-11a5 5 0 0 0-8-6c-10 14-31 4-31 4-2-2-5-1-7 2-1 2 0 5 2 6 5 3 13 5 21 5zM1762 2467c8 0 17-3 24-12a5 5 0 1 0-8-5c-11 14-31 4-31 3-3-1-6 0-7 2-1 3-1 6 2 7 5 3 12 5 20 5zM1736 2424c9 0 18-3 24-12a5 5 0 1 0-8-5c-10 14-31 3-31 3-2-1-5 0-7 2-1 3 0 6 2 7 5 3 13 5 20 5zM1703 2457c8 0 17-3 23-12a5 5 0 1 0-8-6c-10 15-30 4-31 4-2-1-5 0-6 2-2 2-1 5 2 7 4 2 12 5 20 5zM1662 2418c7 0 15-3 21-9a5 5 0 0 0-7-7c-13 13-31 0-32 0-2-2-5-1-7 1-1 2-1 5 1 7 6 3 15 8 24 8zM1867 2422c9 0 18-3 24-12a5 5 0 1 0-8-6c-11 15-31 4-31 4-2-1-6 0-7 2s0 5 2 7c5 2 12 5 20 5zM1897 2447c11 0 26-4 32-20 1-2-1-5-3-6-3-1-6 0-7 3-6 17-28 12-29 12a5 5 0 0 0-2 10l9 1z"/>
  </g>
  <path fill="#fcfdff" d="M1202 2065h1c46-7 83-42 109-102 19-45 25-87 25-89a5 5 0 1 0-9-1c-1 2-25 167-126 182a5 5 0 0 0 0 10zM1639 948l4-2c15-15 5-41 5-42-1-3-4-4-7-3-2 1-4 4-3 6 1 1 9 21-2 32a5 5 0 0 0 3 9zM1604 972l4-1c15-16 5-42 5-43-1-2-4-4-7-3-2 1-3 4-2 7 0 0 8 21-3 31a5 5 0 0 0 3 9zM1638 1028l3-2c16-15 5-41 5-42-1-3-4-4-6-3-3 1-4 4-3 7 0 0 8 20-3 31a5 5 0 0 0 4 9zM1594 1038l4-1c15-16 5-42 5-43-2-2-4-4-7-2-3 1-4 3-3 6 0 0 8 21-3 32a5 5 0 0 0 4 8zM1618 1096l4-2c15-15 5-41 5-42-1-3-4-4-7-3-2 1-3 4-2 6 0 1 8 21-3 32a5 5 0 0 0 3 9zM1615 895l3-1c16-16 6-41 5-43s-4-3-6-2c-3 1-4 4-3 6 0 0 8 21-3 32a5 5 0 0 0 4 8z"/>
  <g fill="#fcfdff">
    <path d="m751 2021 3-1s16-10 27-2a5 5 0 0 0 5-8c-15-12-36 1-37 2a5 5 0 0 0 2 9zM777 2047l3-1s16-9 26-2a5 5 0 0 0 6-8c-16-11-37 1-37 2a5 5 0 0 0 2 9zM820 2011l3-1s16-10 26-2a5 5 0 0 0 6-8c-16-12-37 1-38 2a5 5 0 0 0 3 9zM835 2046h3s16-10 26-3a5 5 0 0 0 6-8c-16-11-37 2-37 2a5 5 0 0 0 2 9zM881 2017h2s16-10 27-3a5 5 0 0 0 6-8c-16-11-37 2-38 2a5 5 0 0 0 3 9zM710 2049l3-1s16-9 27-2a5 5 0 1 0 5-8c-15-11-36 1-37 2a5 5 0 0 0 2 9z"/>
  </g>
  <g fill="#fcfdff">
    <path d="m417 1657 3-1s16-9 27-2a5 5 0 0 0 5-8c-15-11-36 1-37 2a5 5 0 0 0 2 9zM443 1683h3c0-1 16-10 26-3a5 5 0 0 0 6-8c-16-11-36 1-37 2a5 5 0 0 0 2 9zM486 1647l3-1s16-9 26-2a5 5 0 0 0 6-8c-16-11-37 1-38 2a5 5 0 0 0 3 9zM501 1683l3-1s16-10 26-2a5 5 0 1 0 6-8c-16-12-37 1-37 1a5 5 0 0 0 2 10zM547 1654l2-1s17-10 27-2a5 5 0 0 0 6-8c-16-12-37 1-38 1a5 5 0 0 0 3 10zM376 1685h3s16-10 27-3a5 5 0 1 0 5-8c-15-11-36 2-37 2a5 5 0 0 0 2 9z"/>
  </g>
  <path fill="#261d2a" d="m873 1315 4-1c9-4 11-23 11-40 10 15 25 33 39 37 5 1 9 1 13-1 13-8 31-33 43-51-1 11 0 23 5 28 3 3 7 4 10 3 10-2 20-10 28-23 3-5 11-17 8-28-1-2-3-4-6-3-3 0-4 3-4 6 1 4-1 12-6 20-6 10-15 17-22 19l-1-1c-4-4-3-25 1-42a5 5 0 0 0-10-3c-9 15-36 57-51 66l-5 1c-15-4-36-37-43-49a5 5 0 0 0-10 3c3 25 0 47-4 49 0 0-2 0-7-6-25-30-27-57-27-57a5 5 0 0 0-10-2c-5 13-16 33-23 34-2 0-4-2-6-5-15-22-1-56-1-57a5 5 0 0 0-9-3c-1 1-16 39 2 66 5 8 11 9 15 9 10-2 19-15 25-26 4 12 11 29 27 47 2 3 7 10 14 10z"/>
</svg>
