<svg xmlns="http://www.w3.org/2000/svg" xml:space="preserve" viewBox="0 0 2300 1700">
  <path fill="#b6b7a9" d="M1759 1055s400 0 290-290-460-250-510-480 210-340 230-230-140 180 160 360 640 690-160 740z"/>
  <path fill="#f6f7e2" d="M2023 1438s101-435-132-575-319-25-471-165-69-251-162-275c-129-32-559-163-807-75-307 108-114 1010-168 1045-55 35 1360 205 1740 45z"/>
  <path fill="#261d2a" d="M728 809c52 0 118-97 121-101a5 5 0 1 0-8-6c-1 1-71 103-118 96-37-5-46-99-46-134 0-3-2-5-5-5s-5 2-5 5c0 6 1 136 55 144l6 1z"/>
  <path fill="#261d2a" d="M722 808c3 0 5-1 5-3l57-179c1-2 0-5-3-6-2-1-5 1-6 3l-57 179a5 5 0 0 0 4 6z"/>
  <path fill="#ca7a8c" d="M742 572s27 50 35 51c7 0 65-16 65-16s-49-48-100-35z"/>
  <path fill="#b6b7a9" d="M951 347s-203 319 7 416 403 9 406-40c10-140-43-218-43-218s60-210 40-214c-20-3-247 80-267 74-20-7-143-18-143-18zM820 327s-69 243-177 286c-119 47-322-3-345-37-4-5 3-220 200-371 85-66 243-107 236-84l-47 170z"/>
  <path fill="#f6f7e2" d="M279 948s19 235-56 330-240 200-170 215 309-106 355-85c120 55 215 20 255 35s-295 225-185 240c44 6 490-170 590-250 103-83-30-140-250-195S339 913 279 948z"/>
  <path fill="#261d2a" d="m478 1688 3-1c21-17 105-56 106-57a5 5 0 1 0-4-9c-4 2-86 41-109 58a5 5 0 0 0 4 9zM458 1681l4-3c14-21 80-68 81-68a5 5 0 0 0-6-8c-3 2-68 48-84 71a5 5 0 0 0 5 8zM80 1516l4-2c14-17 85-61 86-62a5 5 0 1 0-5-8c-3 2-73 46-89 63a5 5 0 0 0 4 9zM58 1498l4-2c16-31 84-63 85-63a5 5 0 0 0-4-9c-3 1-72 33-90 67a5 5 0 0 0 5 7zM938 613l4-2c57-76 203-38 204-38 3 1 6-1 6-4 1-2-1-5-3-6-6-1-154-40-215 42a5 5 0 0 0 4 8zM653 553h1c2-1 4-3 3-6-20-82-143-122-148-124-3 0-5 1-6 4-1 2 0 5 3 6 1 0 123 40 142 116 0 3 2 4 5 4zM580 1462c28 0 59-3 92-8a5 5 0 0 0-2-10c-130 22-235-2-304-69-53-50-67-108-67-108 0-3-3-4-6-4-2 1-4 3-3 6 0 2 48 193 290 193zM1233 1488l3-1s63-48 150-9a5 5 0 0 0 4-9c-92-41-160 10-161 10a5 5 0 0 0 4 9z"/>
  <path fill="#261d2a" d="M1208 1478c2 0 4-1 4-4 19-69 124-51 125-51 2 1 5-1 5-4 1-3-1-5-4-6-1 0-114-20-135 59a5 5 0 0 0 5 6z"/>
  <path fill="#b6b7a9" d="M1648 778s-235 315 100 375-130 270 290 240c0 0 75-275-55-445s-335-170-335-170z"/>
  <path fill="#261d2a" d="M808 1082c52 0 106-5 162-14 415-70 405-417 404-420 0-3-2-5-5-5s-5 2-5 5c1 4 10 342-395 410-233 39-438-5-565-122a339 339 0 0 1-111-283c0-2-2-5-5-5-2 0-5 2-5 5a348 348 0 0 0 115 291c98 90 242 138 410 138zM1458 1503a5 5 0 0 0 1-10c-65-19-120-106-140-222-33-191 41-321 121-379 153-110 385 6 387 7a5 5 0 1 0 4-9c-2-1-239-119-396-6-83 60-160 193-126 389 21 120 78 210 147 230h2z"/>
  <path fill="#f6f7e2" d="M1273 455s53-115 38-112-130 50-135 55 97 57 97 57zM618 260s53-102 35-99c-19 4-140 69-124 75 17 7 89 24 89 24z"/>
  <path fill="#261d2a" d="m481 655 4-2c2-2 2-5 0-7L301 476c-2-2-5-2-7 0s-2 5 0 7l184 170 3 2zM454 675a5 5 0 0 0 3-10L250 555c-2-1-5 0-7 2-1 3 0 6 2 7l207 110 2 1zM448 705a5 5 0 0 0 0-10l-203-27c-3 0-5 2-5 4-1 3 1 6 4 6l203 27h1zM1248 821a5 5 0 0 0 0-10l-273-3h-1a5 5 0 0 0 0 10l274 3zM1218 921a5 5 0 0 0 1-9l-240-77a5 5 0 0 0-3 9l240 77h2zM1201 1045a5 5 0 0 0 3-9L964 859a5 5 0 1 0-6 8l240 177 3 1zM918 1518h1c121-37 181-174 183-180a5 5 0 1 0-9-4c0 2-60 139-177 174a5 5 0 0 0 2 10zM1628 357c2 0 4-2 5-3 1-3 0-6-2-7a25 25 0 0 1-14-33 5 5 0 0 0-9-4c-5 10-7 33 18 46l2 1zM1647 312c2 0 4-1 5-3s0-5-3-6a25 25 0 0 1-14-33 5 5 0 0 0-9-4c-4 10-7 33 19 46h2zM1603 296c2 0 3-1 4-3 2-2 1-5-2-7a25 25 0 0 1-14-33 5 5 0 0 0-9-4c-5 11-7 34 19 46l2 1zM1414 985c3 0 5-1 5-4 4-25 25-24 28-23 2 0 5-2 5-5s-2-5-4-5c-12-2-34 3-38 32a5 5 0 0 0 4 5zM431 1361h2c3 0 5-3 5-6 0-2-3-4-5-4-26 1-28-22-28-23 0-2-3-5-6-4-2 0-4 2-4 5 1 11 9 32 36 32zM421 1308h2c3 0 5-2 5-5s-3-5-5-5c-26 1-28-21-28-22 0-3-3-5-6-5-2 0-4 3-4 6 1 11 9 31 36 31zM479 1346h2c3 0 5-3 5-6 0-2-3-4-6-4-26 1-28-22-28-23 0-2-2-5-5-4-3 0-5 2-5 5 1 11 10 32 37 32zM489 1401h2c3 0 5-3 5-6 0-2-3-4-6-4-26 1-28-22-28-23 0-2-2-4-5-4s-5 2-5 5c1 11 10 32 37 32zM536 1398h2c3 0 5-2 5-5s-2-5-5-5c-26 1-28-21-28-22 0-3-3-5-6-5-2 0-4 3-4 6 1 11 9 31 36 31zM2233 894l3-2c8-9 16-30-5-50-2-2-5-1-7 1s-2 5 0 7c20 17 5 35 5 35a5 5 0 0 0 4 9zM2203 938l3-2c8-8 16-30-5-49-2-2-5-2-7 0s-1 5 1 7c19 18 4 35 4 36a5 5 0 0 0 4 8zM2188 871l4-2c7-9 16-30-5-49a5 5 0 1 0-7 7c19 17 6 34 4 36a5 5 0 0 0 4 8zM2220 825l4-2c7-9 16-30-5-50a5 5 0 1 0-7 8c19 18 5 35 4 35a5 5 0 0 0 4 9zM2184 793l4-2c8-8 16-30-5-49-2-2-5-2-7 0s-2 5 0 7c19 17 6 34 5 36a5 5 0 0 0 3 8zM1372 1056h1c3-1 4-4 4-6-9-25 11-33 13-34a5 5 0 0 0-3-9c-11 4-29 19-20 46 1 2 3 3 5 3zM1499 939c2 0 4-1 5-4 7-25 29-20 30-20 2 1 5-1 6-3 0-3-1-6-4-6-11-3-34-1-42 27a5 5 0 0 0 5 6zM1459 936c2 0 4-1 5-4 3-25 24-24 27-23a5 5 0 0 0 1-10c-11-2-34 3-38 32a5 5 0 0 0 5 5zM1403 1037c2 0 4-2 5-5 4-25 25-23 27-23 3 0 5-2 5-5 1-2-1-5-4-5-11-1-34 4-38 32a5 5 0 0 0 5 6zM1461 995c3 0 5-2 5-5 4-25 25-23 27-23 3 0 5-2 6-5 0-2-2-5-5-5-11-1-34 4-38 32a5 5 0 0 0 5 6zM1724 439a5 5 0 0 0 2-10c-25-8-19-30-18-31a5 5 0 1 0-10-3c-3 11-2 34 25 44h1zM1677 377l5-2c1-3 0-6-2-7a25 25 0 0 1-14-33 5 5 0 0 0-9-4c-5 10-7 33 18 46h2zM1677 424c2 0 4-1 5-3s0-5-2-6a25 25 0 0 1-14-33 5 5 0 0 0-9-5c-5 11-7 34 18 47h2zM1230 427c5 0 17-5 49-22a5 5 0 1 0-5-9l-32 16 22-30a5 5 0 1 0-8-6l-30 40c-3 4-2 8-1 9s2 2 5 2zM589 255c3 0 9-3 26-44a5 5 0 0 0-9-4c-5 12-11 25-16 33l-5-34c0-2-3-4-5-4-3 1-5 3-5 6l7 42c1 4 4 5 6 5h1z"/>
</svg>
