<svg xmlns="http://www.w3.org/2000/svg" xml:space="preserve" viewBox="0 0 2100 1700">
  <path fill="#b6b7a9" d="M1060 275s720-341 938 363c219 704-199 1008-485 1017-285 10-608-304-1084-171-475 133-171-390 248-256 418 133 656 332 865 161 0 0-711 80-977-244-266-323 133-743 495-870Z"/>
  <path fill="#b6b7a9" d="M40 768s31-494 76-482c44 13 177 146 228 140 51-7 228-127 247-140 19-12-38-260 13-241 50 19 659 153 615 622-45 469-609 614-907 532C14 1116 40 768 40 768Z"/>
  <path fill="#261d2a" d="M1061 1318c-10 0-21-11-37-27-43-43-114-114-230-48a5 5 0 0 1-5-9c123-69 200 8 242 50 12 12 26 25 30 24 2-1 4-3 5-8 11-36 2-82-25-127-32-51-81-89-125-96-97-17-165 12-205 40-43 29-64 63-64 64a5 5 0 0 1-9-6c1-1 88-141 279-108 48 8 99 47 132 101 29 47 39 96 27 135-3 8-7 13-12 14l-3 1zM1160 1258c-23 0-56-30-104-94-70-94-94-173-70-236 33-84 138-107 143-108 3 0 5 1 6 4 0 3-1 5-4 6-1 0-105 22-135 102-23 59 0 135 68 226 66 88 92 94 101 89 30-15 3-161-21-249a5 5 0 1 1 10-3s16 59 26 120c14 84 11 131-11 141l-9 2z"/>
  <path fill="#f6f7e2" d="M629 1028s-63-418 19-412c83 6 317 165 298 234-19 70-273 248-317 178z"/>
  <path fill="#261d2a" d="M777 913c-38 0-93-55-96-58a5 5 0 0 1 7-7c18 18 70 63 97 54 26-9 19-77 15-102a5 5 0 0 1 10-2c2 10 17 100-22 114l-11 1z"/>
  <path fill="#261d2a" d="M787 912c-2 0-4-1-5-3l-65-122a5 5 0 1 1 9-5l65 122a5 5 0 0 1-4 8z"/>
  <path fill="#ca7a8c" d="M742 741s-13 40-18 42c-6 1-50-3-50-3s29-41 68-39z"/>
  <path fill="#f6f7e2" d="M260 484S153 347 143 360c-10 14-28 171-13 176 15 4 110-14 130-52zM675 235S625 90 635 93c10 2 173 90 173 90z"/>
  <path fill="#8c8e83" d="M333 425s146 169 165 140c5-7-75-178-84-176-8 2-81 36-81 36z"/>
  <path fill="#261d2a" d="m1167 1229-4-2c-16-30-25-96-26-98a5 5 0 0 1 10-2c0 1 10 67 25 95a5 5 0 0 1-5 7zM1152 1249l-4-2c-37-39-40-95-40-98 0-2 2-5 5-5s5 2 5 5c0 0 3 55 38 91a5 5 0 0 1-4 9zM1055 1314c-2 0-4-1-4-4-6-33-64-91-65-92a5 5 0 0 1 7-7c3 3 61 62 67 97a5 5 0 0 1-5 6zM1067 1295l-4-2c-12-20-53-98-54-101a5 5 0 0 1 8-5l54 100a5 5 0 0 1-4 8zM293 968a5 5 0 0 1-1-10l190-40c2-1 5 1 6 4 0 3-2 5-4 6l-190 40h-1zM308 1080a5 5 0 0 1-3-9l192-142c2-2 6-1 7 1 2 2 1 5-1 7l-192 142-3 1zM413 1120h-3c-2-2-3-5-2-7l108-160c2-3 5-3 7-2 2 2 3 5 1 7l-107 160c-1 2-3 2-4 2zM888 703l-4-1c-2-2-2-5 0-7l130-145a5 5 0 0 1 7 6L891 701l-3 2zM935 730a5 5 0 0 1-2-9l182-88c3-1 6 0 7 3 1 2 0 5-2 6l-183 88h-2z"/>
  <path fill="#8c8e83" d="M438 385s160 180 152 140c-7-40-61-195-77-187-35 16-75 47-75 47zM595 279s90 184 70 179-132-135-132-135z"/>
  <path fill="#f6f7e2" d="M293 657s175-65 243 44c68 110 44 199-199 187s-160-196-44-231Z"/>
  <path fill="#261d2a" d="m340 803-4-2c-1-2-1-5 1-7 84-74 180-13 181-13a5 5 0 0 1-6 9c-3-3-90-57-169 12l-3 1z"/>
  <path fill="#f6f7e2" d="M879 340s-101 4-127 109c-35 145 38 291 145 160 107-130 44-284-18-269Z"/>
  <path fill="#261d2a" d="M810 623c-2 0-4-2-5-4-18-81 39-163 41-166s5-3 7-2c2 2 3 5 1 7 0 1-56 82-39 159a5 5 0 0 1-5 6z"/>
  <path fill="#8c8e83" d="M425 1230s65 175 85 155 45-180 25-180-95 5-110 25zM380 1240s55 165 40 160-135-95-130-115 70-45 90-45zM590 1215s10 170 25 155 95-125 80-140-65-25-105-15zM1271 209s74 221 89 196 46-214 30-213c-55 1-71 3-119 17zM85 985s111-28 119-17c7 11-80 97-86 91-7-7-33-44-33-74zM66 954s102-22 97-31c-5-10-103-30-109-27-7 3 1 50 12 58zM135 1081s83-52 86-44-31 98-38 98c-6 0-47-42-48-54zM1075 308s-67 127-52 120c15-8 110-45 107-63-2-17-55-57-55-57zM1140 398s-100 100-82 100c17 0 120-8 112-30-7-23-30-70-30-70zM1180 520s-127 45-100 48c28 2 108 30 108 22l-8-70z"/>
  <path fill="#261d2a" d="M1038 870c-1 0-3 0-4-2s-1-5 2-7c274-175 71-524 69-528a5 5 0 1 1 9-5c2 4 210 362-73 542h-3z"/>
  <path fill="#261d2a" d="M910 715c-1 0-3 0-4-2-2-2-1-5 1-7l198-140a5 5 0 1 1 6 9L913 715h-3z"/>
  <path fill="#8c8e83" d="M1418 193s22 210 35 197c12-12 70-195 70-195s-47-13-105-2zM1241 214s69 201 54 199c-15-3-147-158-140-170 8-13 80-26 86-29zM1844 357s-106 176-81 168c25-7 147-77 137-100-10-22-56-68-56-68zM1929 475s-149 118-126 125c22 8 172-21 165-46-8-25-39-79-39-79zM1989 609s-154 36-131 56c22 20 158 45 156 23-3-23-25-79-25-79zM1373 533s137 140 115 137c-23-2-185-42-173-67 13-25 58-70 58-70zM1293 630s197 128 180 133c-18 5-238-20-230-43 7-22 50-90 50-90zM1219 754s166 74 151 81c-15 8-180 15-180-2 0-18 29-79 29-79zM1290 1208s115-118 118-103c2 15-13 173-35 168-23-5-83-65-83-65zM1405 1285s78-210 95-185c18 25 25 210 13 215-13 5-108-30-108-30zM1538 1328s42-190 60-158c17 33 7 163 7 163s-52 7-67-5z"/>
  <path fill="#261d2a" d="M1627 1347c-1 0-85-9-181-42-89-30-207-87-264-188-51-91-47-201 13-329 94-200 197-313 304-336 85-18 139 28 141 30s3 5 1 7-5 3-7 1c-1-1-54-45-133-28-72 15-181 85-297 330-58 125-63 232-14 320 56 98 172 154 259 184 95 32 178 41 179 41 3 0 5 2 4 5 0 3-2 5-5 5zM1035 1364l-2-1c-223-130-396-153-503-149-115 4-178 39-179 39a5 5 0 1 1-5-9c3-1 261-141 692 110a5 5 0 0 1-3 10z"/>
  <path fill="#8c8e83" d="M1073 1376s-9 139 9 127c19-11 81-88 81-88zM1187 1424s-20 122-8 120c11-1 89-94 76-102s-68-18-68-18zM1268 1445s0 119 15 122 74-112 67-113c-7-2-67-2-82-9zM1628 1635s-18-182-11-175 122 120 114 132c-7 12-41 31-103 43zM1761 1582s-91-201-60-185c31 17 157 105 143 122-23 28-83 63-83 63zM1871 1495s-129-153-103-146c27 7 154 58 157 72 2 15-32 60-54 74zM2045 1159s-144-91-132-96 136-8 143 4c8 12-11 92-11 92zM2060 1024s-169-9-159-19c9-10 148-76 155-60 8 17 4 79 4 79zM2040 1178s-139-48-130-33c10 14 87 113 104 115 17 3 26-82 26-82z"/>
  <path fill="#261d2a" d="M216 520h-2c-5-1-13-7-25-18-10-10-25-23-32-24a5 5 0 1 1 1-10c10 2 24 14 38 26 5 5 11 11 16 14-2-12-12-41-22-66a5 5 0 1 1 10-3c27 71 22 77 20 79-1 2-3 2-4 2zM722 203l-5-1c-8-5-32-49-39-62a5 5 0 1 1 9-4c13 23 28 49 34 56 2-6 4-20 4-37a5 5 0 0 1 10 0c0 16-1 43-10 48h-3z"/>
</svg>
