<svg xmlns="http://www.w3.org/2000/svg" xml:space="preserve" viewBox="0 0 2300 1850">
  <path fill="#212438" d="M701 181S860 9 921 21c60 12 0 219 0 219s145 85 194 73c48-12 170-122 206-110 37 13 6 230 12 243 33 63 486-145 771 182 286 328 176 753-151 886-328 134-862-84-1142-109-279-24-728 85-631-48 97-134 325-117 349-177 25-61 67-153-33-151-198 4-538 78-441-43s472-94 429-297c-83-386 132-423 217-508Z"/>
  <path fill="#fcfdff" d="M919 963c-80 0-158-19-231-55-117-59-187-148-202-206a5 5 0 0 1 9-2c15 56 83 142 197 199 133 67 285 72 428 14 132-53 216-140 242-252 19-84-1-153-1-154a5 5 0 0 1 9-3c1 3 82 286-246 418-67 27-137 41-205 41zM1710 1533l-3-1c-59-49-282-293-212-506a351 351 0 0 1 273-238c3-1 5 2 6 4 0 3-2 6-5 6-2 0-198 27-265 231-67 208 152 447 210 495a5 5 0 0 1-4 9z"/>
  <path fill="#212438" d="M2189 1321s108 181-235 416c-342 235-758-64-1081 29-322 93-122-234 132-220 255 15 754 230 945 78 190-151 137-278 122-283s117-20 117-20z"/>
  <path fill="#fcfdff" d="M36 1035a5 5 0 0 1-3-9c16-13 107-14 125-14a5 5 0 0 1 0 10 413 413 0 0 0-122 13zM49 1013c-2 0-4-1-4-3-2-2-1-5 2-6 40-22 90-29 92-29s5 2 5 4c1 3-1 6-4 6a294 294 0 0 0-91 28zM167 1394l-3-2c-2-2-2-6 0-7 51-41 128-48 131-48s5 2 5 4c1 3-1 6-4 6a264 264 0 0 0-129 47zM189 1412l-3-1c-2-3-2-6 0-8 26-22 114-34 118-35a5 5 0 1 1 1 10s-89 12-112 33l-4 1z"/>
  <path fill="#feffff" d="M477 654s414-273 490-206c77 66-36 504-52 514-17 10-413-15-438-308z"/>
  <path fill="#261d2a" d="M837 696c-7 0-14-2-20-6-38-29-18-140-17-145 0-2 3-4 5-4 3 1 5 3 4 6-5 31-14 114 14 135 27 19 91-34 113-56a5 5 0 0 1 7 7c-3 3-63 63-106 63z"/>
  <path fill="#261d2a" d="m820 691-2-1c-3-1-4-4-2-7l76-149a5 5 0 0 1 9 5l-76 149c-1 2-3 3-5 3z"/>
  <path fill="#ca7a8c" d="M954 527s-49 14-54 10-32-51-32-51 62 1 86 41z"/>
  <path fill="#feffff" d="M940 1424s124-146 341-96c216 50 253-40 253-40s161 259 241 269c0 0-295 0-498-49-177-43-337-84-337-84z"/>
  <path fill="#fcfdff" d="M762 442c-3 0-5-3-5-6 7-51-69-94-70-95a5 5 0 1 1 5-8c4 2 83 47 75 105 0 2-2 4-5 4zM1037 592a5 5 0 0 1-3-9c41-39 80-57 116-52 44 6 66 42 67 43a5 5 0 0 1-9 6c0-1-21-34-59-39-33-4-69 12-108 50l-4 1z"/>
  <path fill="#261d2a" d="m700 579-4-1-277-272a5 5 0 0 1 7-8l277 273a5 5 0 0 1-3 8zM665 592l-2-1-325-162a5 5 0 0 1 4-9l325 162a5 5 0 0 1-2 10zM645 612h-1l-308-53a5 5 0 0 1 2-9l308 52a5 5 0 0 1-1 10z"/>
  <path fill="#fcfdff" d="m665 542-4-1-165-163c-2-2-2-5 0-7s5-2 7 0l165 162a5 5 0 0 1-3 9zM622 574h-2l-160-83a5 5 0 1 1 5-8l160 82a5 5 0 0 1-3 9zM580 604h-1l-113-22a5 5 0 1 1 2-10l113 23a5 5 0 0 1-1 9z"/>
  <path fill="#ca7a8c" d="M783 173s57-81 113-82c12 0-16 122-27 122-12 0-86-40-86-40zM1172 345s112-92 118-75c5 17 5 129-6 132-12 3-112-57-112-57z"/>
  <path fill="#fcfdff" d="M948 340c-3 0-5-2-5-5 0-24 17-34 18-35a5 5 0 0 1 5 9c-1 0-13 8-13 26 0 3-3 5-5 5zM959 377c-3 0-5-2-5-5 0-24 17-35 18-35 3-2 6-1 7 1 2 3 1 6-2 7 0 0-13 9-13 27 0 3-2 5-5 5zM991 344c-3 0-5-2-5-5 0-24 17-35 18-36 2-1 5 0 7 2 1 3 0 6-2 7-1 0-13 9-13 27 0 3-3 5-5 5zM1000 383c-2 0-5-2-5-5 0-24 18-34 19-35 2-1 5-1 6 2 2 2 1 5-1 7-1 0-14 8-14 26 0 3-2 5-5 5zM1038 370l-4-2c-2-2-1-5 1-7 0-1 11-11 8-29a5 5 0 0 1 10-1c4 23-11 37-12 37l-3 2z"/>
  <path fill="#261d2a" d="M838 188h-1c-2 0-4-2-5-5l-8-40a5 5 0 1 1 9-2l7 32 19-32a5 5 0 0 1 9 5c-20 38-26 42-30 42zM1234 374l-1-1c-3 0-4-1-5-3-5-9 5-35 11-50 1-2 4-3 6-2 3 1 4 4 3 6-7 17-12 33-12 39 6-1 20-8 33-17a5 5 0 1 1 5 8c-9 6-29 20-40 20z"/>
  <path fill="#fcfdff" d="m1342 734-285-25a5 5 0 0 1 1-10l285 25a5 5 0 0 1-1 10zM1325 849h-2l-273-107a5 5 0 0 1 4-10l273 108a5 5 0 0 1-2 9zM1212 964l-3-1-170-190a5 5 0 0 1 7-7l170 190a5 5 0 0 1-4 8zM1934 553l-4-2c-15-18-30-17-31-17-2 0-5-2-5-5-1-2 1-5 4-5 1 0 21-2 39 20a5 5 0 0 1-3 9zM1994 585l-4-1c-14-19-29-17-30-17-3 0-5-2-6-5 0-3 2-5 5-5 1 0 21-2 39 20a5 5 0 0 1-4 8zM2003 634c-2 0-4-1-5-3-9-22-24-26-25-26-3 0-4-3-4-6 1-2 3-4 6-3 1 0 21 4 33 31a5 5 0 0 1-5 7zM1545 1050c-2 0-4-1-5-3 0-1-8-20 8-45 1-2 5-3 7-2 2 2 3 5 1 7-12 21-7 35-6 36a5 5 0 0 1-5 7zM1587 1042l-4-3c0-1-8-19 7-45 2-2 5-3 7-1 3 1 3 4 2 7-13 20-7 35-7 35a5 5 0 0 1-5 7zM1622 959c-2 0-4-2-5-4 0-1-5-21 15-43a5 5 0 0 1 7 7c-16 18-12 33-12 34a5 5 0 0 1-5 6zM1572 1105l-4-3c0-1-8-20 7-45a5 5 0 0 1 9 5c-13 21-7 35-7 36a5 5 0 0 1-5 7z"/>
  <path fill="#261d2a" d="M1373 1498c-6 0-14-2-24-8a5 5 0 0 1 5-8c17 10 26 5 27 4 2-1 5 0 6 2 2 2 1 5-1 7 0 0-5 3-13 3zM1339 1455c-6 0-15-2-24-8a5 5 0 0 1 5-9c17 11 26 5 26 5 3-1 6-1 7 2 2 2 1 5-1 7-1 0-5 3-13 3zM1309 1480c-6 0-14-2-24-8a5 5 0 0 1 5-8c17 10 26 4 27 4 2-1 5-1 7 2 1 2 0 5-2 7 0 0-5 3-13 3zM1282 1450c-6 0-15-2-24-7a5 5 0 0 1 5-9c17 10 26 5 26 4 3-1 6 0 7 2 2 2 1 5-1 7-1 0-5 3-13 3zM1234 1466c-6 0-14-2-24-8a5 5 0 0 1 5-8c17 10 26 5 27 4 2-1 5 0 6 2 2 2 1 5-1 7 0 0-5 3-13 3zM1398 1466c-6 0-14-2-24-8a5 5 0 0 1 5-8c17 10 26 5 27 4 2-1 5 0 6 2 2 2 1 5-1 7 0 0-5 3-13 3zM1432 1507c-6 0-14-2-24-7a5 5 0 0 1 5-9c17 10 26 5 27 4 2-1 5 0 7 2 1 2 0 5-2 7 0 0-5 3-13 3z"/>
  <path fill="#fcfdff" d="m1542 1140-4-2c-1-1-12-17-3-45 1-3 4-4 7-3 2 1 4 3 3 6-8 23 1 36 1 36a5 5 0 0 1-4 8zM1028 1592a5 5 0 0 1-3-9c1 0 18-12 46-2 2 1 4 4 3 6-1 3-4 4-7 3-22-8-35 1-36 2h-3zM924 1633a5 5 0 0 1-3-9s17-12 45-2c2 1 4 4 3 6-1 3-4 4-6 3-23-7-36 1-37 2h-2zM1083 1629a5 5 0 0 1-3-9c1-1 17-12 45-3 3 1 4 4 3 7 0 2-3 4-6 3-23-8-36 1-36 1l-3 1zM1158 1606l-3-1c-20-15-35-10-35-10-3 1-6 0-6-3-1-3 0-5 3-6 0-1 20-7 44 11a5 5 0 0 1-3 9zM1010 1627a5 5 0 0 1-3-9c1-1 18-13 45-3a5 5 0 0 1-3 10c-23-8-35 0-36 1l-3 1zM953 1597a5 5 0 0 1-3-9c1-1 18-12 45-2 3 0 4 3 4 6-1 3-4 4-7 3-23-8-35 1-36 1l-3 1zM1576 982c-2 0-4-1-5-4 0 0-6-20 11-43 2-3 5-3 7-2 3 2 3 5 1 7-14 20-10 35-9 35a5 5 0 0 1-5 7zM1930 590c-2 0-4-1-5-3-5-12-24-15-31-16-2 0-4-3-4-5 0-3 3-5 5-5 1 0 31 3 39 22a5 5 0 0 1-4 7zM1871 539c-2 0-4-1-5-3-5-11-24-15-30-15a5 5 0 0 1 0-10c2 0 31 2 39 21a5 5 0 0 1-4 7zM1941 627c-2 0-3-1-4-3-5-11-24-15-31-16a5 5 0 0 1 1-10c1 0 30 3 39 22a5 5 0 0 1-5 7zM1808 512l-4-2c-7-9-26-7-33-6a5 5 0 0 1-2-10c1 0 30-6 43 10a5 5 0 0 1-4 8zM1849 570c-2 0-3-1-4-3-5-11-24-15-31-16-3 0-5-2-4-5 0-3 2-5 5-5 1 0 30 3 39 22a5 5 0 0 1-5 7zM2161 1235l-3-2c-2-2-2-5 0-7 18-15 16-30 16-31 0-3 2-5 5-5 2-1 5 1 5 4 0 1 3 21-19 40l-4 1zM2130 1296c-1 0-3 0-4-2-2-2-1-5 1-7 18-15 16-30 16-30 0-3 2-6 4-6 3 0 6 2 6 4 0 1 2 21-20 40l-3 1zM2082 1306a5 5 0 0 1-2-9c21-11 24-26 25-26a5 5 0 0 1 9 1c0 1-3 21-30 34h-2zM2124 1232a5 5 0 0 1-2-10c13-6 15-31 15-31 0-3 2-5 5-5 3 1 5 3 5 6 0 1-2 30-21 39l-2 1zM2173 1172a5 5 0 0 1-2-10c13-6 15-31 15-31 0-3 2-5 5-4 3 0 5 2 5 5 0 1-2 30-21 39l-2 1zM2087 1244c-2 0-3-1-4-3s0-5 2-6c11-6 15-24 15-31 0-3 2-5 5-5s5 3 5 5-2 31-21 40h-2zM2199 1108a5 5 0 0 1-3-9c9-7 7-26 5-33a5 5 0 0 1 10-2c0 1 7 30-9 43l-3 1zM2142 1151c-2 0-4-1-5-3s0-5 3-7c11-5 14-24 15-31 0-2 2-4 5-4s5 2 5 5c0 1-2 30-21 39l-2 1z"/>
  <path fill="#261d2a" d="M1724 1563c-435 0-782-132-786-134-3-1-4-4-3-6 1-3 4-4 7-3s374 142 828 133c2 0 5 2 5 4 0 3-2 6-5 6h-46z"/>
</svg>
