<svg xmlns="http://www.w3.org/2000/svg" xml:space="preserve" viewBox="0 0 2400 1800">
  <path fill="#ead9ba" d="M1074 719s41 145 352 122c312-24 543-70 630 254 86 323 86 583-127 664-214 80-427-99-572-35-144 63-554-75-704-35-150 41-526-23-595 12-69 34-46-168 110-173 156-6 369 40 398-104 29-145-58-341-58-445s566-260 566-260z"/>
  <path fill="#d07f23" d="M1265 1170s104 213 260 132c156-80 167 81 358 110 190 29 219-185 219-185s-35-340-254-398c-138-36-583 341-583 341z"/>
  <path fill="#261d2a" d="M1028 1060s-6 156 167 196c174 41 226-127 353-109 127 17 306-243 300-318 0 0-97-29-281-14-292 25-481-50-527 8-47 58-12 237-12 237z"/>
  <path fill="#ead9ba" d="M632 1142s-17 190-248 225c-231 34-264 28-324 104-71 90 364 17 503 34 138 18 69-363 69-363z"/>
  <path fill="#261d2a" d="M465 1525h2c193-105 82-349 81-352a5 5 0 1 0-9 4c1 3 108 238-77 339a5 5 0 0 0 3 9z"/>
  <path fill="#d07f23" d="M574 268s-220 15-289 110c-70 96 23 190-31 277-53 88-146 135-105 234 41 100 136 164 179 136 43-29 369-703 246-757z"/>
  <path fill="#ead9ba" d="M807 274s-188-18-261 3c-73 20-114 310-190 401s87 102 66 163c-22 60-42 177-28 199 14 21 164 149 266 130 103-18 76-236 110-240 35-4 148 110 178 25s270-556-141-681z"/>
  <path fill="#d07f23" d="M924 324S736 649 733 719c-3 71 47 189 126 267 79 77 492-574 65-662zm-143-62S653 543 632 608c-45 141-312 119-312 119s137-422 237-475c51-27 224 10 224 10z"/>
  <path fill="#261d2a" d="M620 896s-77-44-111-34 34 112 34 112 103-58 77-78z"/>
  <path fill="#261d2a" d="M520 1078c2 0 4-2 5-4l31-141a5 5 0 1 0-10-2l-31 141a5 5 0 0 0 5 6z"/>
  <path fill="#261d2a" d="M520 1085c32 0 91-66 98-74a5 5 0 1 0-7-7c-27 31-76 77-94 70-18-6-28-81-31-126 0-3-2-5-5-5s-5 2-5 5c1 21 8 125 37 136z"/>
  <circle cx="-859.3" cy="776.7" r="33.8" fill="#261d2a" transform="scale(-1 1)"/>
  <circle cx="-511.3" cy="648.4" r="33.8" fill="#261d2a" transform="scale(-1 1)"/>
  <path fill="#d07f23" d="M1057 425s254 179 225 317c-29 139-104 145-121 220s92 144 11 231c-80 86-288 69-346 34-58-34 260-756 231-802z"/>
  <path fill="#261d2a" d="M1369 1706h1c3-1 4-4 3-7-59-169-56-298 9-382 98-125 302-108 304-108 3 1 5-2 5-4 1-3-2-5-4-6-2 0-212-17-312 112-68 87-72 218-11 391 1 3 3 4 5 4zM23 1671l4-1c18-18 125-39 165-45a5 5 0 0 0-2-10c-15 2-147 24-170 48a5 5 0 0 0 3 8zm14-33 4-2c39-55 100-53 101-53 3 0 5-2 5-5s-2-5-4-5c-3 0-68-2-110 57a5 5 0 0 0 4 8z"/>
  <path fill="#d07f23" d="M2050 1060s92 110 179-35c87-144-63-335-35-329 29 6 249 121 168 324-81 202-220 213-260 207-40-5-52-167-52-167z"/>
  <path fill="#261d2a" d="M942 895c2 0 4-1 5-3 10-31 45-54 78-76 33-21 63-41 74-69 23-55 4-275 3-285 0-2-2-4-5-4s-5 3-5 5c1 3 20 227-2 280-10 25-39 44-70 65-35 23-71 46-82 81a5 5 0 0 0 4 6zM335 743h1c3-1 4-4 4-7-1-1-31-111 29-200 62-92 191-253 192-255a5 5 0 0 0-8-6c-1 1-130 163-192 255-63 93-31 208-31 209 1 2 3 4 5 4zm262 413c20 0 39-4 55-13 51-29 69-94 82-142 6-20 11-39 17-44 12-11 36 1 59 13 21 11 44 23 61 18 36-11 58-76 59-79a5 5 0 0 0-10-3c0 1-21 63-52 72-13 4-34-7-54-17-26-13-52-27-70-12-8 7-13 25-20 50-12 46-29 109-77 135-27 15-60 16-101 4a5 5 0 0 0-3 10c19 5 37 8 54 8zm345-483a5 5 0 0 0 4-8c0-1-18-23-42-25-13 0-25 5-35 17-2 2-2 5 0 7s5 2 7 0c9-10 18-14 28-14 19 1 34 21 34 21zM582 573c3 0 5-2 5-5 0-18-5-31-15-41-16-15-39-14-40-14-3 0-5 2-5 5s3 5 6 5c0 0 19-1 32 12 8 7 12 18 12 33 0 3 3 5 5 5z"/>
  <path fill="#fcfdff" d="m522 895 3-1c13-8 36-4 36-4 3 1 6-1 6-4 1-2-1-5-4-6-1 0-27-5-43 6a5 5 0 0 0 2 9z"/>
  <path fill="#261d2a" d="m80 1465 3-1c28-23 89-26 90-26 2 0 4-3 4-5 0-3-2-5-5-5s-64 3-95 28a5 5 0 0 0 3 9zm-10 28 3-1c44-35 99-12 100-12a5 5 0 0 0 4-9c-3-1-61-26-110 13-2 2-3 5-1 7zm593 202c96 0 154-117 156-123a5 5 0 0 0-9-4c0 1-61 125-157 116-3 0-5 2-5 5s2 5 4 5zm560-930c1 0 3 0 4-2 15-20 9-39 3-46-2-2-5-2-7-1-2 2-2 5-1 7 1 1 11 15-3 34a5 5 0 0 0 4 8zm9 54c1 0 3 0 4-2 15-20 9-39 3-46-2-2-5-2-7-1-2 2-3 5-1 7 1 1 11 15-3 34a5 5 0 0 0 4 8zM282 476l2-1c2 0 4-3 3-6 0-1-5-18 15-30 2-2 3-5 2-7-2-3-5-3-7-2-22 14-22 34-20 42 1 2 3 4 5 4zm28 33 1-1c3 0 5-3 4-6-1-1-5-18 15-30 2-2 3-5 1-7-1-3-4-3-6-2-22 14-23 34-20 42 1 2 3 4 5 4zm539-131h1c3-1 5-4 4-6-1-1-5-18 15-31 2-1 3-4 1-7-1-2-4-3-6-1-22 13-23 33-20 42 1 2 3 3 5 3zm-17-25 3-1c2-1 3-4 2-6 0-1-8-17 11-32a5 5 0 1 0-6-8c-20 16-18 36-14 44zm-36 5h2c3-2 4-5 2-7 0-1-7-17 11-32a5 5 0 1 0-6-8c-20 16-18 36-14 44 1 2 3 3 5 3zm16 49 2-1c2-1 3-4 2-6 0-1-7-17 11-33a5 5 0 0 0-6-7c-20 16-18 36-14 44 1 2 3 3 5 3zM536 1681l3-1c1-1 13-14 34-2 3 1 6 0 7-2 1-3 0-6-2-7-23-12-40-3-46 4a5 5 0 0 0 4 8zm53-20 4-1c0-1 12-14 34-2a5 5 0 0 0 4-9c-22-12-40-3-46 4a5 5 0 0 0 4 8zm1241 99c2 0 3 0 4-2 1-1 10-15 33-8a5 5 0 0 0 3-10c-24-7-39 5-44 13a5 5 0 0 0 4 7zM546 1621l3-1c1-1 13-14 34-2a5 5 0 0 0 5-9c-23-12-40-3-46 4a5 5 0 0 0 4 8zm643 90 4-1c0-1 12-14 34-2a5 5 0 0 0 4-9c-22-12-40-3-46 4a5 5 0 0 0 4 8zm-50-30 4-1c0-1 12-14 34-2 2 1 5 0 6-3 2-2 1-5-2-6-22-12-40-3-46 4a5 5 0 0 0 4 8zm-40 30 4-1c0-1 12-14 34-2a5 5 0 0 0 4-9c-22-12-40-3-46 4a5 5 0 0 0 4 8zm117-33 3-2c1 0 13-13 34-2a5 5 0 0 0 5-9c-23-12-40-2-46 5a5 5 0 0 0 4 8zm36 33 4-1c0-1 13-14 34-2a5 5 0 0 0 5-9c-23-12-40-3-47 4a5 5 0 0 0 4 8zm-750-56 4-2c0-1 13-13 34-2a5 5 0 0 0 5-9c-23-12-40-3-47 4a5 5 0 0 0 4 9zm1339 73c2 0 4-1 5-3 0-1 8-17 31-12 3 0 6-2 6-5 1-2-1-5-4-5-25-5-39 9-42 18a5 5 0 0 0 4 7zm216-523c3 0 5-2 5-4 3-26-13-38-22-41a5 5 0 0 0-3 9c1 1 17 7 15 31 0 3 2 5 5 5zm0-62c3 0 5-2 5-5 3-25-13-38-21-41-3-1-6 1-7 3-1 3 1 6 3 7 1 0 18 6 15 30 0 3 2 5 5 6zm-36 1c2 0 4-2 5-4 2-26-13-38-22-41-3-1-6 0-6 3-1 3 0 5 3 6 0 1 17 7 15 31-1 3 2 5 4 5zm10-58c2 0 4-2 5-5 2-25-13-37-22-40a5 5 0 0 0-3 9s17 7 15 31c-1 2 2 5 4 5zm-39-10c3 0 5-2 5-5 3-25-13-37-21-40a5 5 0 0 0-4 9c1 0 18 7 15 31 0 2 2 5 5 5zm-29 590c2 0 4-1 4-3 1-1 9-16 32-12a5 5 0 1 0 2-10c-25-5-39 10-43 18a5 5 0 0 0 5 7zm-76 24c2 0 4-1 5-3 0 0 8-16 32-12 2 1 5-1 5-4 1-3-1-5-4-6-25-4-39 10-42 18a5 5 0 0 0 4 7zm13 44 5-2c0-1 9-16 32-9a5 5 0 1 0 3-10c-25-7-40 6-44 14a5 5 0 0 0 4 7zm35-34 4-2c0-1 11-16 33-7a5 5 0 0 0 4-10c-25-8-40 3-45 11a5 5 0 0 0 4 8zm-1489-69 3-1c1-1 13-14 34-2 3 1 6 0 7-2 1-3 0-6-2-7-23-12-40-3-46 4a5 5 0 0 0 4 8zm-10 47 3-2c1 0 13-13 34-2a5 5 0 0 0 5-9c-23-12-40-2-46 5a5 5 0 0 0 4 8zm-44-20 4-2s13-13 34-2a5 5 0 0 0 5-9c-23-12-40-2-47 5a5 5 0 0 0 4 8zM290 541a5 5 0 0 0 4-9c-1 0-13-13-2-34a5 5 0 1 0-8-5c-13 22-4 40 3 46z"/>
  <path fill="#fcfdff" d="m1496 869 3-2c2-2 2-5 0-7-20-17-39-11-46-6a5 5 0 0 0 6 8s15-10 33 6zm48 38 4-1c2-2 2-6 0-7-20-17-39-12-46-7a5 5 0 0 0 5 9c1-1 16-11 34 5zm35-33 4-1c2-3 1-6-1-7-19-17-38-12-46-7a5 5 0 0 0 6 9c1-1 16-11 34 5zm33 39 4-2c2-2 1-5-1-7-19-17-38-12-46-6a5 5 0 0 0 6 8c1-1 16-10 34 5zm33-27 4-1c2-2 1-5-1-7-19-17-38-12-46-6a5 5 0 0 0 6 8c1-1 16-11 34 5zm-156 25 3-2c2-2 2-5 0-7-19-17-39-11-46-6a5 5 0 0 0 6 8s15-10 33 6zm-53-31 4-2c2-2 2-5 0-7-20-17-39-12-46-6a5 5 0 0 0 6 8c0-1 15-10 33 5z"/>
  <path fill="#261d2a" d="M1164 878c1 0 3 0 4-2 15-20 9-39 3-46-2-2-5-2-7-1-2 2-2 5-1 7 1 1 11 15-3 34a5 5 0 0 0 4 8zm31-19h2c22-13 24-33 21-41-1-3-3-5-6-4s-4 4-3 6c0 1 4 18-17 30a5 5 0 0 0 3 9z"/>
</svg>
