<svg xmlns="http://www.w3.org/2000/svg" xml:space="preserve" viewBox="0 0 2200 1800">
  <path fill="#d07f23" d="M1202 272S1305 3 1373 26c39 14 133 188 149 199 17 10 237 53 268 35 30-18 145-194 180-153s236 433-19 1041c-397 947-1190 597-1378 299s10-722 330-807c186-49 26-274 299-368Z"/>
  <path fill="#feffff" d="M1374 638s110-264 232-249c133 17 124 325 110 340-114 119-304-13-342-91z"/>
  <path fill="#d07f23" d="M859 1346s140 283-284 404C60 1897-54 1367 86 1036 227 705 7 484 240 672s352 304 114 653 385 264 382 31c-2-207 123-10 123-10z"/>
  <path fill="#feffff" d="M1889 276s53-122 63-110c10 13 52 123 52 123zM1429 201s-54-132-69-123-75 93-66 98c8 6 135 25 135 25z"/>
  <path fill="#261d2a" d="M1569 642c-4 0-7 0-11-2-42-15-52-121-53-125 0-3 2-5 5-6 3 0 5 2 5 5 3 29 17 106 47 117 29 11 72-53 87-79 1-3 4-3 7-2 2 1 3 4 2 7-6 9-49 85-89 85z"/>
  <path fill="#261d2a" d="M1560 641h-1c-3-1-5-4-4-6l31-154a5 5 0 0 1 9 2l-30 154c-1 2-3 4-5 4z"/>
  <path fill="#ca7a8c" d="M1639 459s-40 25-45 23c-6-2-42-38-42-38s56-15 87 15z"/>
  <path fill="#261d2a" d="M1459 411c-3 0-5-2-5-5-5-43-20-71-44-85-35-20-79-1-79-1a5 5 0 1 1-4-9c2-1 48-21 88 1 27 16 43 47 49 93a5 5 0 0 1-5 6zM1731 475l-2-1c-3-1-3-4-2-6 42-63 81-93 115-91 33 2 48 33 49 34a5 5 0 0 1-9 4c-1 0-14-26-41-28-29-2-66 28-105 86-1 2-3 2-5 2z"/>
  <path fill="#feffff" d="M893 1015s234-256 483-219c249 36 15 682-351 700-274 13-407-314-132-481z"/>
  <path fill="#261d2a" d="m1274 451-3-2-213-177a5 5 0 1 1 7-8l212 178a5 5 0 0 1-3 9zM1264 468h-2L979 333a5 5 0 0 1 4-9l283 135a5 5 0 0 1-2 9zM1239 488h-1l-255-38c-3 0-5-2-4-5 0-3 3-5 6-4l255 37c2 0 4 3 4 6-1 2-3 4-5 4zM1846 573a5 5 0 0 1 0-10l282-35a5 5 0 1 1 1 10l-282 35h-1zM2164 641h-1l-300-33a5 5 0 1 1 1-10l300 33a5 5 0 0 1 0 10zM2159 776l-2-1-295-127a5 5 0 1 1 4-10l295 128a5 5 0 0 1-2 10zM1642 371c-8 0-16-5-22-13-8-12-12-29-12-46-8 6-18 9-29 9-11-1-19-5-25-13-16-22-5-62-5-64 1-2 3-4 6-3 3 0 4 3 4 6 0 0-10 37 3 55 4 5 9 8 17 9 14 0 23-6 29-12 0-14 3-25 7-30 5-4 9-3 10-2 6 3 4 13 2 18-1 5-5 12-9 18-1 17 2 37 10 49 6 9 14 11 24 6 14-6 24-16 30-27-7-8-11-17-10-26 0-8 4-13 10-16s10-2 12 0c5 3 7 10 6 19-1 7-3 13-6 20l2 1c5 4 14 6 25 0 32-18 21-62 21-62a5 5 0 1 1 9-3c0 1 13 52-25 73-12 7-25 7-35 1l-1-1c-8 12-19 24-34 31-5 2-9 3-14 3zm46-74-2 1c-3 1-4 4-4 7 0 5 1 11 5 16l3-14c0-6-1-9-2-10z"/>
  <path fill="#d07f23" d="M1049 636s110 35 147 82c38 48-15 178-47 263-28 72-108 62-88-138 8-76-72-60-72-60"/>
  <path fill="#261d2a" d="m1106 1027-7-1c-29-7-55-59-43-183 2-20-2-35-12-44-19-18-54-11-54-11-3 1-6-1-6-4-1-3 1-5 4-6 2 0 40-7 63 13 12 12 18 29 15 53-12 118 12 167 35 172 16 4 33-11 43-37l5-12c31-81 77-203 43-246-36-46-144-80-145-81a5 5 0 1 1 3-9c5 1 112 36 150 84s-8 168-42 256l-4 11c-11 28-29 45-48 45z"/>
  <path fill="#261d2a" d="m1084 1011-3-1c-2-2-3-5-1-7 11-17 5-66 1-84 0-3 2-5 4-6 3 0 6 1 6 4 1 3 13 67-3 91l-4 3zM1101 1019l-4-1c-2-2-2-5 0-7 21-26 27-85 27-86 0-3 3-5 5-4 3 0 5 2 5 5s-6 63-30 91l-3 2z"/>
  <path fill="#d07f23" d="M1654 1083s-45-190-143-202c-97-13-240 192-232 212 7 20 85 13 163-44 52-38 62 102 62 102"/>
  <path fill="#261d2a" d="M1504 1156c-3 0-5-2-5-5-2-25-12-92-34-102-6-3-12-2-20 4-61 44-128 62-157 53-9-3-13-8-14-11-5-14 29-64 53-94 25-32 113-135 185-125 100 12 145 198 147 206a5 5 0 0 1-10 2c0-2-45-187-138-198-37-5-87 23-141 80-52 55-88 116-86 125 0 2 3 4 7 5 22 7 84-5 148-51 11-8 21-10 30-5 32 15 39 100 40 110 0 3-2 5-5 6z"/>
  <path fill="#261d2a" d="M1279 1098h-2c-2-1-4-4-3-6 7-25 66-48 73-51 3-1 5 0 6 3 1 2 0 5-2 6-24 10-63 30-67 44-1 3-3 4-5 4zM1306 1104l-4-2c-2-2-2-5 0-7 10-10 56-29 62-31 2-1 5 0 6 3s0 5-3 7a307 307 0 0 0-61 30z"/>
  <path fill="#d07f23" d="M672 946s165 9 221 69c56 61-21 291-177 354-157 63 40-150 36-247"/>
  <path fill="#261d2a" d="M672 1385c-8 0-14-2-17-6-15-16 7-59 36-112 27-50 57-107 56-145 0-2 2-5 5-5s5 2 5 5c2 40-30 98-57 150-24 44-48 89-38 100 3 4 14 7 52-8 101-41 167-152 186-238 11-49 7-88-11-107-54-58-216-68-217-68-3-1-5-3-5-6s2-5 5-4c7 0 167 10 224 71 20 22 25 64 14 116-20 89-88 203-193 245-19 9-34 12-45 12z"/>
  <path fill="#d07f23" d="M1472 1499s17-193-137-237c-153-43-313 174-316 274-4 100 226-164 266-110"/>
  <path fill="#261d2a" d="M1034 1563c-4 0-7 0-10-2-7-4-11-12-10-26 2-62 63-171 152-236 58-42 117-57 171-42 155 44 140 240 140 242 0 3-3 5-5 5-3 0-5-3-5-6 0-1 15-189-133-231-64-18-124 12-163 40-85 63-145 169-147 229 0 9 1 14 5 16 16 8 66-30 111-63 54-41 105-79 134-75 7 1 12 4 16 9a5 5 0 0 1-9 6c-2-3-5-5-8-5-25-4-79 37-127 73-47 35-89 66-112 66zM656 1371a5 5 0 0 1-4-9c16-13 59-50 64-66 1-3 3-4 6-4 3 1 4 4 3 7-7 22-60 66-66 70l-3 2zM669 1386a5 5 0 0 1 0-10c22 0 61-45 74-62a5 5 0 0 1 8 6c-5 7-51 66-82 66z"/>
  <path fill="#261d2a" d="M1039 1559h-1c-3-1-5-3-4-6 5-37 74-83 77-85a5 5 0 0 1 6 8c-1 1-69 46-73 79-1 2-3 4-5 4zM1019 1541l-2-1c-2-1-4-3-3-6 21-62 70-78 72-78 2-1 5 0 6 3s-1 5-3 6c-1 0-47 15-65 72-1 2-3 4-5 4zM396 1073l-4-2c-1-2-1-5 1-7 1 0 34-24 36-66 0-10-1-13-2-14-4-1-17 10-27 22a5 5 0 0 1-8-5c8-17 27-64 11-82-4-4-7-6-9-5-5 2-9 17-10 29v1a5 5 0 0 1-10-1v-2c2-18 2-63-19-68-5-1-8 0-9 1-8 8-7 32-5 46a5 5 0 1 1-10 1c0-4-6-41 8-54 4-3 9-6 19-4 18 5 24 27 26 47 2-3 4-5 7-6 6-2 13 1 19 8 15 17 9 48 1 69 7-5 14-8 19-6 10 4 9 18 9 23-3 47-38 73-40 74l-3 1zM146 1558l-2-1c-3-1-58-34-58-69 0-9 3-14 8-16l2-1c-15-20-28-44-19-60 5-9 11-11 16-12 8 0 16 6 22 12-9-36-23-99-14-113 2-4 5-5 7-5 23-3 38 55 41 66a5 5 0 0 1-10 3c-6-26-19-60-30-59-6 6 4 65 22 129a5 5 0 0 1-9 4c-6-11-20-27-29-27-1 1-4 1-7 6-8 15 12 44 32 67l15 15c1 2 1 5-1 7s-5 2-7 0l-13-14c-7-6-13-9-14-9 0 0-2 2-2 7 0 29 52 60 53 61 2 1 3 4 2 7l-5 2zM796 884h-2c-5-1-12-4-17-14-12-23 7-45 25-58l-13-4c-4-3-9-9-8-20 2-17 16-31 31-41-6 0-12-1-15-3-4-3-6-6-6-11 0-23 59-31 77-32 3-1 6 1 6 4s-2 5-5 6c-32 3-68 13-68 22l1 2c7 5 30-1 45-7 3-1 6 1 7 3 0 3-1 6-3 7h-1c-16 6-57 27-59 50 0 9 3 11 4 12 7 5 26-1 32-4 2-1 5 0 6 2 2 3 1 6-2 7-1 0-60 31-45 61 2 5 5 7 9 8 13 1 36-22 47-36a5 5 0 0 1 8 6c-3 4-31 40-54 40zM1641 1376c-34 0-37-68-37-75 0-3 2-5 5-5 2 0 5 2 5 4 0 17 7 66 27 66 3 0 6-2 8-4 11-12 10-48 8-65l-1-4a5 5 0 0 1 10-1l1 4c1 10 6 29 15 34 4 2 9 2 14-1 24-13 14-63 8-82a5 5 0 1 1 10-3c1 5 7 18 14 20 4 0 8-2 12-7 20-22-3-58-3-59a5 5 0 0 1 9-5c1 2 26 43 2 71-8 8-15 11-22 9l-6-2c3 23 3 55-19 66-9 5-17 6-24 2-4-2-7-5-9-9-1 15-4 30-11 38-4 5-10 8-16 8z"/>
  <g fill="#261d2a">
    <path d="M1970 945c-2 0-4-1-5-3s0-5 2-6c13-7 9-30 9-30a5 5 0 1 1 10-2c0 1 5 30-14 40l-2 1zM1925 962c-2 0-4-1-5-3s0-6 2-7c13-7 9-29 9-30 0-2 2-5 5-5 2-1 5 1 5 4 0 1 5 30-14 40l-2 1zM1950 1007c-2 0-4-1-5-3s0-6 2-7c13-7 9-29 9-30 0-2 2-5 5-5 2-1 5 1 5 4 0 1 5 30-14 40l-2 1zM1913 1023l-4-2c-2-3-1-6 2-7 12-7 9-30 9-30a5 5 0 1 1 10-2c0 2 4 30-15 41h-2zM1952 900c-2 0-4 0-5-2-1-3 0-6 2-7 13-7 10-29 10-30a5 5 0 1 1 9-1c1 1 5 30-14 40h-2zM1993 877a5 5 0 0 1-3-9c12-8 6-30 6-31a5 5 0 1 1 10-2c0 1 8 29-10 41l-3 1z"/>
  </g>
  <g fill="#261d2a">
    <path d="M1271 1727c-5 0-9-1-14-4a5 5 0 1 1 6-8c12 8 30-6 30-6 2-2 5-1 7 1s1 5-1 7c-1 0-14 10-28 10zM1235 1696c-5 0-10-1-14-4a5 5 0 1 1 5-9c12 8 31-6 31-6a5 5 0 1 1 6 8c-1 1-14 11-28 11zM1207 1739c-4 0-9-1-14-4a5 5 0 1 1 6-8c12 8 30-6 30-6a5 5 0 1 1 6 8s-13 10-28 10zM1175 1715c-4 0-9-1-14-4a5 5 0 1 1 6-8c12 7 30-6 30-7 2-1 6-1 7 1 2 2 2 6-1 7 0 1-14 11-28 11zM1302 1691c-5 0-10-2-14-4a5 5 0 1 1 5-9c12 8 30-6 31-6 2-2 5-1 7 1 1 2 1 5-1 7-1 0-14 11-28 11zM1340 1715l-12-3a5 5 0 0 1 5-9c13 7 29-9 29-9 2-2 6-2 8 0 1 2 1 5-1 7 0 1-14 14-29 14z"/>
  </g>
  <g fill="#261d2a">
    <path d="M381 1742c-8 0-16-2-22-9a5 5 0 0 1 8-6c9 10 31 2 31 2 2-2 5 0 6 2 1 3 0 6-2 7-1 0-10 4-21 4zM354 1702c-7 0-15-2-21-9a5 5 0 1 1 7-6c10 10 31 2 31 2a5 5 0 0 1 4 9c-1 0-10 4-21 4zM316 1737c-7 0-15-2-21-9a5 5 0 0 1 7-7c10 11 31 2 31 2 3-1 6 0 7 3s0 5-3 7c-1 0-10 4-21 4zM292 1705c-8 0-16-2-22-9a5 5 0 1 1 7-6c10 10 31 2 31 2 3-2 6 0 7 2 1 3 0 6-3 7 0 0-10 4-20 4zM420 1714c-7 0-16-2-22-8a5 5 0 0 1 8-7c9 11 31 2 31 2 2-1 5 0 6 3 2 2 0 5-2 6-1 0-10 4-21 4zM449 1747c-6 0-13-1-18-6a5 5 0 1 1 7-7c11 9 31-2 31-2a5 5 0 0 1 5 9c-1 0-12 6-25 6z"/>
  </g>
  <path fill="#fff" d="M1340 135s9 58 20 48c11-9 10-56 10-56"/>
  <path fill="#261d2a" d="m1357 190-2-1c-11-4-17-35-20-53a5 5 0 1 1 10-1c3 20 9 40 12 44 7-7 9-34 8-52 0-3 2-5 5-5s5 2 5 5c0 8 1 49-12 60-1 2-3 3-6 3z"/>
  <path fill="#fff" d="M1946 227s-12 50-3 50c8 0 28-36 28-36"/>
  <path fill="#261d2a" d="m1943 282-6-3c-6-7 0-36 4-53 0-2 3-4 6-4 2 1 4 4 4 6-4 16-7 35-6 43 4-5 14-18 22-32a5 5 0 1 1 8 5c-9 17-23 38-32 38z"/>
</svg>
