<svg xmlns="http://www.w3.org/2000/svg" xml:space="preserve" viewBox="0 0 1800 1750">
  <path fill="#7d3f2e" d="M1201 1306s-38 190 134 115c173-74 64-266 142-210 77 56 133 208 1 314-132 105-330-28-349-117-20-89 72-102 72-102z"/>
  <path fill="#ead9ba" d="M508 739s-180 267-153 674c6 90-207 146-207 186s454-20 507-26c53-7 340-14 407 40 66 53 233 146 226 93-6-53-93-193-93-193s93-314-40-800c-14-53-553-60-620 20"/>
  <path fill="#7d3f2e" d="M664 91S500-43 382 73c-119 115-87 294-200 330-113 35-229 120-70 229 158 108 332-14 357-193S664 91 664 91z"/>
  <path fill="#ead9ba" d="M1161 134s-443-69-556-3c-114 67-170 450-142 538 48 148 595 195 788 75s-23-590-90-610z"/>
  <path fill="#7d3f2e" d="M921 111s108 88 54 230c-54 141 124 265 355 227 0 0 3-320-95-410-99-90-314-47-314-47zM825 103s-26 9-57 83c-30 74 44 307-302 313 0 0-1-529 359-396z"/>
  <path fill="#261d2a" d="M820 657c3 0 5-2 5-4l13-174a5 5 0 0 0-10-1l-13 174c0 3 2 5 5 5z"/>
  <path fill="#212438" d="M917 430s-90-56-149-4l69 85z"/>
  <circle cx="-1078.9" cy="418.4" r="36.6" fill="#212438" transform="scale(-1 1)"/>
  <circle cx="-641.2" cy="364.8" r="36.6" fill="#212438" transform="scale(-1 1)"/>
  <path fill="#7d3f2e" d="M998 144s151-118 291-82c139 36 132 133 256 120 125-13 243 36 218 168-26 133-96 257-265 189-169-69-192-344-351-293-160 51-149-102-149-102Z"/>
  <path fill="#ead9ba" d="M1068 313s55 6 72 22c17 15 14-38-34-51-48-14-67 32-38 29zM642 273s-54 6-71 22c-17 15-14-38 34-51 48-14 67 32 37 29z"/>
  <path fill="#261d2a" d="M1066 798c204 0 240-126 241-127a5 5 0 0 0-10-3s-10 34-47 65c-35 29-102 62-222 53-2 0-5 2-5 5s2 5 5 5l38 2zM684 767l14-1a5 5 0 1 0 0-10c-2 0-132 7-196-58-27-27-38-62-35-105a5 5 0 0 0-10-1c-4 46 9 84 37 113 56 56 154 62 190 62zM972 481l4-1c2-2 2-6 0-8-3-2-77-71-163-67-44 3-82 23-115 61a5 5 0 0 0 8 7c31-36 67-56 107-58 82-4 155 64 156 65l3 1zM670 1239c2 0 5 0 8-2 44-30 82-140 28-293-20-60-47-94-79-102-31-8-54 13-55 14a5 5 0 0 0 6 7c1 0 21-18 47-12 28 7 53 41 72 97 51 146 15 254-25 280-2 2-3 1-3 1-10-4-21-46-30-84-19-77-43-172-98-164a5 5 0 1 0 2 10c45-7 68 84 86 157 14 54 22 85 36 90l5 1zM829 1209l8-2c17-6 32-27 51-55 34-48 75-108 150-108a5 5 0 0 0 0-10c-80 0-125 65-158 113-17 25-32 46-46 51-5 1-12 2-17-9-22-46 15-230 91-279 90-58 188-26 189-26 2 1 5-1 6-3 1-3 0-6-3-6-1-1-103-34-198 27-81 52-118 242-94 292 5 10 12 15 21 15zM723 1578h12c232-7 310-56 313-58a5 5 0 0 0-6-8s-78 49-307 56c-119 3-189-43-227-83-41-43-55-87-55-87a5 5 0 1 0-9 3c0 1 55 177 279 177z"/>
  <path fill="#261d2a" d="m675 1238 4-2c24-25 0-100-2-108-1-3-4-4-7-3-2 0-4 3-3 6 7 21 22 81 5 98a5 5 0 0 0 3 9zM708 1188c3 0 5-2 5-4 7-35-22-85-24-87a5 5 0 0 0-8 5s29 49 23 80a5 5 0 0 0 4 6zM848 1201c3 0 5-2 5-5 0-48 20-84 20-84a5 5 0 1 0-9-5c-1 1-21 38-21 89 0 3 3 5 5 5zM818 1194c3 0 5-2 5-5 0-38 16-74 17-74a5 5 0 0 0-9-4c-1 1-18 38-18 78 0 3 3 5 5 5zM195 1624l4-2c25-47 94-35 95-34 3 0 6-2 6-5 1-2-1-5-4-5-3-1-77-14-105 39a5 5 0 0 0 4 7zM172 1601c2 0 4-1 5-4 15-49 72-46 74-46 3 0 6-2 6-5s-2-5-5-5c-1 0-67-3-85 53a5 5 0 0 0 5 7zM1245 1724c2 0 4-1 5-3 11-38-57-59-60-60a5 5 0 0 0-3 10c1 0 62 19 53 47a5 5 0 0 0 5 6zM1288 1711c3 0 5-2 5-5 0-25-68-66-82-74a5 5 0 1 0-5 8c32 19 77 52 77 66 0 3 3 5 5 5z"/>
  <path fill="#bb5a44" d="M892 581s50 67 13 128c-37 62-65-65-65-65s13-11 26-26c11-12 23-26 26-37z"/>
  <path fill="#261d2a" d="M885 675c3 0 5-2 5-4 0-1 6-31-20-56a5 5 0 0 0-7 7c22 21 17 46 17 47a5 5 0 0 0 5 6z"/>
  <path fill="#261d2a" d="m822 653 9-2c47-16 77-104 78-107a5 5 0 1 0-9-3c-1 0-30 86-72 101-5 1-9 1-13-2-25-16-38-98-41-128-1-3-3-5-6-5-3 1-5 3-4 6 0 5 11 114 45 136 5 2 9 4 13 4zM1316 392c3-1 5-3 5-6-10-112-50-160-51-162-2-3-5-3-7-1s-3 5-1 7c0 0 39 48 49 157 0 3 2 5 5 5z"/>
  <path fill="#fcfdff" d="M846 434a5 5 0 0 0 1-10c-4 0-37-7-50-2a5 5 0 0 0 3 9 117 117 0 0 1 46 3z"/>
  <path fill="#261d2a" d="M1487 232a5 5 0 0 0 3-9c-20-19-38-12-39-12a5 5 0 0 0 4 9c1 0 13-4 28 10l4 2zM1520 267a5 5 0 0 0 4-9c-21-19-38-12-39-12a5 5 0 0 0 4 9s13-4 28 10l3 2zM1568 262a5 5 0 0 0 4-9c-20-19-38-12-39-12a5 5 0 0 0 4 9c1 0 13-4 28 10l3 2zM1613 240a5 5 0 0 0 4-9c-20-19-38-12-39-11a5 5 0 0 0 4 9c1-1 13-5 28 10l3 1zM1617 277a5 5 0 0 0 3-9c-20-19-38-12-39-12a5 5 0 0 0 4 9c1 0 13-4 28 10l4 2zM1550 228a5 5 0 0 0 4-8c-21-20-38-12-39-12a5 5 0 0 0 4 9s12-5 28 10l3 1zM368 202h2c2-1 4-4 3-6-6-21 5-30 5-30a5 5 0 1 0-6-8c-1 1-16 13-8 40 0 3 2 4 4 4zM383 248h2c2-1 4-4 3-6-6-21 4-29 5-30 2-1 2-5 0-7-1-2-4-2-6-1-1 1-16 13-8 40 0 2 2 4 4 4zM356 288h1c3-1 5-4 4-6-6-21 4-29 4-30 2-1 3-4 1-7-2-2-5-2-7 0-1 0-15 12-8 39 1 3 3 4 5 4zM315 317h2c2-1 4-3 3-6-5-20 4-29 5-29 2-2 2-5 1-7-2-2-5-3-7-1-1 0-16 13-8 40 0 2 2 3 4 3zM346 338h1c3-1 5-4 4-7-6-20 4-29 5-29 2-2 2-5 0-7-1-2-5-2-7-1 0 1-15 13-8 40 1 2 3 4 5 4zM335 256h2c2-1 4-4 3-6-6-21 4-29 5-30 2-1 2-4 0-7-1-2-4-2-6 0-1 0-16 12-8 39 0 3 2 4 4 4zM469 444c3 0 5-2 5-5 7-150 61-211 61-211a5 5 0 0 0-7-7c-2 2-57 64-64 217 0 3 2 6 5 6zM1164 1216l4-3c6-14-4-33-6-35-1-2-4-3-6-2-3 2-4 5-2 7 2 5 8 18 5 25a5 5 0 0 0 5 8zM1190 1184c2 0 4-1 4-3 7-14-4-32-5-34-2-3-5-3-7-2s-3 4-2 7c3 4 9 17 5 25a5 5 0 0 0 5 7zM1199 1237l4-3c6-14-4-33-5-35-2-2-5-3-7-2-3 2-3 5-2 7 3 5 8 18 5 25a5 5 0 0 0 5 8zM1170 1270c2 0 4-1 5-3 6-14-5-32-6-34-1-3-4-4-7-2-2 1-3 4-2 7 3 4 9 17 6 25a5 5 0 0 0 4 7zM1166 1326l3-2c11-12 5-33 5-34-1-3-3-5-6-4s-4 3-4 6c2 5 3 19-2 26a5 5 0 0 0 4 8zM1195 1296l4-2c9-12 3-34 3-34-1-3-4-5-7-4-2 1-4 4-3 7 2 4 4 18-1 25a5 5 0 0 0 4 8zM431 1130h2c2-1 4-4 3-7-4-8 3-20 6-25a5 5 0 0 0-8-5c-2 2-13 20-8 34 1 2 3 3 5 3zM406 1097h2c3-1 4-4 3-7-3-7 4-20 6-24a5 5 0 0 0-8-6c-1 2-13 20-7 34 0 2 2 3 4 3zM395 1149h2c2-1 3-4 2-7-3-7 4-20 7-24a5 5 0 0 0-9-6c-1 2-12 20-7 34 1 2 3 3 5 3zM422 1184h1c3-1 4-4 3-7-3-8 4-20 7-25a5 5 0 0 0-9-5c-1 2-13 20-7 34 1 2 3 3 5 3zM423 1240l3-1c2-2 3-5 1-7-5-7-3-21-1-25a5 5 0 0 0-10-3s-6 22 3 34l4 2zM395 1209l3-1c2-1 3-5 1-7-4-7-1-21 1-25a5 5 0 0 0-10-4c0 1-8 22 1 35l4 2zM1220 711h1c18-4 22-27 22-28a5 5 0 0 0-9-1c-1 0-4 17-15 19a5 5 0 0 0 1 10zM1223 664h1c18-4 23-26 23-27a5 5 0 0 0-10-2s-3 17-15 19a5 5 0 0 0 1 10zM1258 629h1c18-4 23-26 23-27a5 5 0 0 0-10-2s-3 17-15 19a5 5 0 0 0 1 10zM1260 668l1-1c18-3 22-26 22-27a5 5 0 0 0-9-2c-1 0-4 17-15 20a5 5 0 0 0 1 10zM555 693c2 0 4-2 5-4 1-3-1-6-4-6-11-3-14-19-14-20a5 5 0 0 0-10 2c0 1 4 24 22 28h1zM552 646c2 0 4-2 5-4 0-3-2-5-4-6-12-2-15-19-15-19 0-3-3-5-5-4-3 0-5 3-5 5 1 1 5 24 23 28h1zM1370 1458c2 0 24-1 30-17a5 5 0 0 0-9-4c-4 11-21 10-22 11a5 5 0 0 0 0 10h1zM1425 1431l2-1c1 0 22-10 21-28a5 5 0 1 0-10 0c1 12-15 19-15 19a5 5 0 0 0 2 10zM1342 1445c2 0 24 0 31-17a5 5 0 0 0-9-3c-5 10-22 10-22 10-2 0-5 2-5 5s2 5 5 5zM1392 1415c3 0 25 0 31-17a5 5 0 0 0-9-3c-4 10-22 10-22 10a5 5 0 0 0 0 10zM1437 1380h2c1-1 23-7 25-26a5 5 0 0 0-10 0c-1 11-18 16-18 16a5 5 0 0 0 1 10zM517 611c2 0 4-2 5-4 0-3-2-5-4-6-12-2-15-19-15-19 0-3-3-5-5-4-3 0-5 3-5 5 1 1 5 24 23 28h1zM515 649c2 0 4-1 5-4 1-2-1-5-4-6-11-2-14-19-14-19a5 5 0 1 0-10 2c0 1 4 23 22 27h1z"/>
</svg>
