<svg xmlns="http://www.w3.org/2000/svg" xml:space="preserve" viewBox="0 0 2100 1900">
  <path fill="#f6f7e2" d="M1024 608s435-211 709-49c273 161 622 1256-199 1293-821 38-871-385-1182-336-311 50 32-214 296-56 578 346 979 295 1021 152 31-107-1106-332-1479-295-373 38-25-236 311-161l-12-75s-373 25-423-50c-50-74 236-199 448-174 211 25 510-249 510-249z"/>
  <path fill="#f6f7e2" d="M348 553s-38-287-8-274l194 75s367-105 367-118c0-12 4-181 25-173 21 9 156 165 156 165s275 148 304 253c30 105-337 633-384 662-46 30-662-244-683-287-21-42 29-303 29-303z"/>
  <path fill="#212438" d="M674 314s88 323 92 403-217 65-232 186c-5 38-13 63-13 63S294 865 281 827s34-270 34-270-38-304 0-291 219 84 219 84z"/>
  <path fill="#d07f23" d="M791 276s85 340 135 365c51 26 296-160 399 20l99-223-329-240S939 34 922 38s-43 206-43 206z"/>
  <path fill="#212438" d="M1293 705s72 244 165 261 291-63 337-21c47 42-33 139 34 203 68 63 224 29 224 29s-127-591-270-641c-144-51-390-42-390-42z"/>
  <path fill="#d07f23" d="M2034 1102s-144 43-148 145c-4 101 78 158 78 175s-122 109 21 173c0 0 154-206 49-493z"/>
  <path fill="#261d2a" d="M964 579c-3-1-5-3-5-6a144 144 0 0 1 117-132c3 0 6 2 6 5s-2 5-4 5c-4 1-94 13-109 123 0 3-2 5-5 5z"/>
  <path fill="#fcfdff" d="m677 676-4-2c0-1-33-44-85-50-34-5-70 7-105 35a5 5 0 1 1-6-8c37-29 75-42 112-37 57 7 91 52 92 54a5 5 0 0 1-4 8z"/>
  <path fill="#261d2a" d="M66 1036a5 5 0 0 1-3-9c35-20 129-24 133-24 3 0 5 2 6 5 0 3-2 5-5 5-1 0-96 4-129 23h-2zM45 1266c-2 0-3 0-4-2-2-2-1-5 1-7 81-59 189-39 193-38a5 5 0 0 1-1 9c-1 0-109-20-186 37l-3 1zM57 1304a5 5 0 0 1-2-9c81-38 176-30 180-30 3 0 5 3 5 5-1 3-3 5-6 5a391 391 0 0 0-177 29zM1327 1427l-2-1s-58-20-106-8a5 5 0 0 1-3-10c52-12 110 8 113 9a5 5 0 0 1-2 10zM1129 1397a5 5 0 0 1-3-9c4-3 109-77 174-42a5 5 0 0 1-5 8c-60-32-162 42-163 42l-3 1z"/>
  <path fill="#261d2a" d="m1175 1414-3-1c-2-2-2-5 0-7 0-1 53-58 115-27a5 5 0 0 1-4 9c-55-27-102 22-104 24-1 2-2 2-4 2z"/>
  <path fill="#d07f23" d="M644 1614s68-52 24-133c-43-80-176-90-294-77-117 12-182 65-158 111 25 47 245-34 428 99z"/>
  <path fill="#212438" d="M907 1590s-53 43-127 43-164-127-149-192c0 0 242 139 276 149zM944 1775s56-77 139-40c84 37 44 77 124 71s139-59 186 56c0 0-293-11-449-87z"/>
  <path fill="#d07f23" d="M1650 1645s0 112-75 149c-74 37-62-43-139-28s-87-48-87-48 208 2 301-73z"/>
  <path fill="#212438" d="M1953 1658s-53-44-127-13-71 146-99 149-59 46-59 46 192-31 285-182zM1616 1063s-84-43-164 34c-81 78-10 112 24 158 34 47-53 84 47 141 97 56 201 23 235-88 34-112-99-239-142-245z"/>
  <path fill="#261d2a" d="M861 1027c-168 0-339-55-341-56a5 5 0 1 1 3-10c2 1 233 76 420 51 185-25 361-328 363-331a5 5 0 0 1 9 5c-1 1-46 78-113 158-91 107-178 167-258 178-27 3-55 5-83 5z"/>
  <path fill="#261d2a" d="M901 861c-48 0-106-93-109-97a5 5 0 0 1 9-6c16 27 67 97 103 93 34-3 46-88 47-120 0-3 2-5 6-5 2 0 4 2 4 5 0 5-7 125-56 130h-4z"/>
  <path fill="#261d2a" d="M904 861c-2 0-4-1-5-3l-44-166a5 5 0 0 1 10-3l44 166a5 5 0 0 1-5 6z"/>
  <path fill="#ca7a8c" d="M896 643s-27 45-33 45c-7 1-60-17-60-17s48-41 93-28z"/>
  <path fill="#261d2a" d="m1141 652-3-1c-2-2-3-5-1-7l160-213a5 5 0 0 1 8 6l-160 213-4 2zM1165 656c-2 0-3 0-4-2-2-2-2-5 1-7l237-201a5 5 0 0 1 6 8l-237 201-3 1zM1177 674a5 5 0 0 1-2-10l191-96a5 5 0 1 1 5 9l-192 96-2 1z"/>
  <path fill="#f6f7e2" d="M482 400s-127-74-129-67c-3 7 36 178 38 170 3-7 91-103 91-103zM923 247s17-148 38-132c22 17 86 103 89 110 2 8-127 22-127 22z"/>
  <path fill="#261d2a" d="m454 449-2-1c-10-2-66-30-73-34a5 5 0 0 1 5-9l63 31c-6-12-21-33-34-52a5 5 0 0 1 9-6c42 60 39 65 37 68-1 1-3 3-5 3zM982 236c-5 0-9-2-28-76-1-3 1-6 4-6 2-1 5 1 6 3 5 23 12 47 17 61l11-33a5 5 0 0 1 10 4s-12 31-14 42c-1 5-5 5-6 5z"/>
  <path fill="#d07f23" d="M1655 1011s-19 91-88 121c-69 31-132-80-153-59-21 20-50 56-76 56s-67-42-67-42 153-160 384-76z"/>
  <path fill="#261d2a" d="M672 825h-1l-301-73a5 5 0 1 1 2-10l301 73a5 5 0 0 1-1 10zM666 850h-1l-338-25c-3 0-5-3-5-5 0-3 3-5 5-5l339 25c3 1 5 3 5 6 0 2-3 4-5 4zM406 907a5 5 0 0 1-1-10l248-31c2-1 5 1 5 4 1 3-1 5-4 6l-247 31h-1z"/>
  <path fill="#fcfdff" d="M615 806h-1l-244-54c-3-1-4-3-4-6 1-3 4-4 6-4l244 54a5 5 0 0 1-1 10zM569 845l-243-20c-2 0-4-3-4-5 0-3 3-5 5-5l242 20a5 5 0 0 1 0 10zM391 911a5 5 0 0 1-1-10l147-22c2 0 5 2 5 4 1 3-1 6-4 6l-146 22h-1z"/>
  <path fill="#261d2a" d="m1395 1469-4-1c-6-6-154-146-155-282 0-47 18-88 54-122 161-153 420-45 423-43a5 5 0 0 1-4 9c-3-1-256-107-412 41-34 32-51 70-51 115 1 131 151 273 152 274a5 5 0 0 1-3 9z"/>
  <path fill="#fcfdff" d="M1792 613c-2 0-4-1-5-4-1-7-4-12-9-15-10-6-23-2-23-2-3 1-6-1-7-4 0-2 1-5 4-6 0 0 17-5 31 3 7 4 12 12 14 22a5 5 0 0 1-5 6zM1844 662c-3 0-5-2-5-5 0-8-2-13-6-18-8-7-22-6-22-6-3 0-5-2-6-5 0-3 2-5 5-5 1 0 18-2 30 9 6 6 9 15 9 25 0 3-2 5-5 5zM1810 679c-3 0-5-2-5-5 1-8-2-14-6-18-8-7-22-7-22-7-2 1-5-1-5-4s2-5 4-6c1 0 19-1 30 10 6 6 10 15 9 25 0 3-2 5-5 5z"/>
  <path fill="#261d2a" d="M869 1346c-2 0-4-1-4-3-4-7-9-11-15-12-10-3-22 5-22 5a5 5 0 0 1-6-8c1-1 16-10 31-7 8 2 15 8 20 17a5 5 0 0 1-4 8zM830 1307l-4-2c-4-7-9-11-14-13-11-2-23 5-23 5a5 5 0 0 1-5-8s15-10 30-6c9 2 16 7 21 17a5 5 0 0 1-5 7zM784 1338c-2 0-4-1-5-3-3-6-8-10-14-12-11-2-22 5-22 5a5 5 0 1 1-6-8c1 0 15-10 31-6 8 2 15 7 20 17a5 5 0 0 1-4 7zM753 1299l-5-2c-3-7-8-11-14-12-10-3-22 5-22 5a5 5 0 0 1-6-9c1 0 15-10 31-6 8 2 15 8 20 17a5 5 0 0 1-4 7zM711 1337c-2 0-3-1-4-3-4-7-9-11-14-12-11-3-23 5-23 5a5 5 0 0 1-6-9c1 0 16-10 31-6 8 2 15 8 20 17a5 5 0 0 1-4 8zM672 1310l-4-2c-4-7-8-11-14-13-11-2-23 5-23 5a5 5 0 1 1-5-8s15-10 30-6c9 2 16 8 21 17a5 5 0 0 1-5 7zM911 1324l-5-2c-3-7-8-11-14-13-11-2-22 5-22 5a5 5 0 1 1-6-8c1 0 15-10 31-6 8 2 15 7 20 17a5 5 0 0 1-4 7zM937 1360c-2 0-3-1-4-3-4-7-9-11-14-12-11-3-23 5-23 5a5 5 0 0 1-6-8c1-1 16-11 31-7 8 2 15 8 20 17a5 5 0 0 1-4 8z"/>
  <path fill="#fcfdff" d="M1859 724a5 5 0 0 1-5-6c3-7 2-14 0-19-6-10-19-13-20-13-2 0-4-3-3-6 0-2 3-4 6-4 0 1 17 5 25 18 5 8 5 17 2 27-1 2-3 3-5 3zM1651 556c-3 0-5-1-5-4-2-7-5-12-10-15-10-6-23-2-23-2a5 5 0 0 1-3-9s17-6 31 2c7 4 12 12 15 22a5 5 0 0 1-5 6zM1749 633c-2 0-5-2-5-4-1-8-5-13-10-16-9-6-23-2-23-2-2 1-5 0-6-3s1-5 3-6c1 0 18-6 31 3 8 4 13 12 15 22a5 5 0 0 1-5 6zM1727 580c-3 0-5-2-5-4-2-8-5-13-10-16-10-6-23-2-23-2-3 1-6-1-6-3-1-3 0-6 3-6 1-1 17-6 31 2 7 5 12 12 14 23a5 5 0 0 1-4 6zM1690 598c-2 0-4-2-5-4-1-8-5-13-10-16-9-6-22-2-23-2-2 1-5 0-6-3s1-5 3-6c1 0 18-6 31 3 8 4 13 12 15 22a5 5 0 0 1-5 6z"/>
  <path fill="#261d2a" d="M55 1011a5 5 0 0 1-2-9c61-38 143-38 146-38a5 5 0 0 1 0 10 314 314 0 0 0-144 37zM1218 325c-3 0-5-1-5-4-3-16-20-17-20-17a5 5 0 0 1 0-10c9 0 27 6 30 26a5 5 0 0 1-5 5zM1221 362c-2 0-5-1-5-4-2-16-19-17-20-17a5 5 0 0 1 1-10c8 0 26 7 29 26a5 5 0 0 1-5 5zM1257 358c-3 0-5-2-5-4-3-16-20-18-21-18a5 5 0 0 1 1-10c9 1 27 7 29 26a5 5 0 0 1-4 6zM1267 392c-2 0-4-2-5-4-2-16-19-18-20-18a5 5 0 0 1 1-10c9 1 26 7 29 26a5 5 0 0 1-5 6zM1178 325c-3 0-5-1-5-4-3-16-20-17-21-17a5 5 0 0 1 1-10c9 0 27 6 30 26a5 5 0 0 1-5 5z"/>
  <path fill="#fcfdff" d="M317 666c-3 0-5-2-5-4-2-9-1-28 17-35 3-1 6 0 7 2 1 3 0 6-3 7-15 6-12 23-12 24a5 5 0 0 1-4 6zM352 653c-3 0-5-1-5-4-2-9 0-27 17-35 3-1 6 0 7 3 1 2 0 5-3 6-14 7-12 24-11 24a5 5 0 0 1-5 6zM338 620c-2 0-4-2-5-4-2-9 0-27 17-35 3-1 6 0 7 3 1 2 0 5-2 6-15 7-12 23-12 24a5 5 0 0 1-5 6zM368 601c-2 0-4-2-5-4-2-9 0-28 18-35a5 5 0 0 1 4 9c-15 6-12 23-12 24a5 5 0 0 1-5 6zM327 705c-2 0-5-2-5-4-2-9 0-28 17-35 3-1 6 0 7 2 1 3 0 6-3 7-14 6-11 23-11 24a5 5 0 0 1-5 6z"/>
</svg>
