<svg xmlns="http://www.w3.org/2000/svg" xml:space="preserve" viewBox="0 0 2100 2250">
  <path fill="#d07f23" d="M525 334S705-26 745 38c43 70 76 276 76 276l421 89s225-225 225-165 60 270 60 270 85 173 308 400c380 386 187 830 187 830s-1840 75-1945 15-9-509 24-599c215-578 424-820 424-820Z"/>
  <path fill="#feffff" d="M755 884s126-288 196-286c85 1 179 188 212 325 10 43-465 51-408-39z"/>
  <path fill="#261d2a" d="M958 1768c-30 0-65-49-117-122-51-69-119-164-210-251a5 5 0 0 1 7-7c91 87 160 183 211 252 49 69 85 119 110 118 8-1 15-7 22-19 14-24-21-256-48-406a5 5 0 0 1 10-2c7 38 67 378 47 413-9 15-19 23-30 24h-2zM1035 1766c-3 0-6-1-9-4-34-36-12-442-10-488 0-3 2-5 5-5s5 3 5 6c-13 232-13 475 9 481 2 0 12-2 34-25 71-73 172-251 167-403 0-3 2-5 5-5s5 2 5 4c5 155-98 337-169 410-19 19-33 29-42 29zM979 878h-3c-41-4-76-96-77-100a5 5 0 0 1 9-4c9 25 40 91 69 94s53-65 59-91c1-3 4-5 7-4 2 1 4 3 3 6-2 10-26 99-67 99z"/>
  <path fill="#261d2a" d="M977 878c-3 0-5-2-5-5l-9-145c0-2 2-5 5-5s5 2 5 5l9 145c0 3-2 5-5 5z"/>
  <path fill="#ca7a8c" d="M1006 695s-30 33-35 32c-6-1-47-24-47-24s46-27 82-8z"/>
  <path fill="#261d2a" d="M1219 1623c-3-1-5-3-5-6 6-205 68-350 184-431 192-134 469-44 471-43a5 5 0 0 1-3 9c-2-1-275-89-462 42-114 79-174 222-180 424 0 2-3 5-5 5zM691 1648c-2 0-4-2-5-4-54-233-145-382-270-443-124-61-238-9-239-9-3 1-6 0-7-2-1-3 0-6 2-7s120-54 248 9c128 62 221 213 276 449a5 5 0 0 1-5 7zM778 666c-2 0-4-2-5-4-38-137-137-133-142-133-2 0-5-2-5-4 0-3 2-6 5-6 1 0 111-5 152 141a5 5 0 0 1-5 6z"/>
  <path fill="#feffff" d="M635 298s66-160 83-140 70 160 53 160c-16 0-136-20-136-20zM1328 411s93-133 103-120 10 150 4 163c-7 14-107-43-107-43z"/>
  <path fill="#261d2a" d="M955 1759c-2 0-4-2-5-4-2-24-24-88-24-89a5 5 0 1 1 9-3c1 2 23 65 25 91a5 5 0 0 1-5 5zM973 1754h-1c-3 0-5-3-4-6 5-23-12-94-13-95 0-3 1-5 4-6s6 1 6 4c1 3 18 73 13 99-1 3-3 4-5 4zM1031 1758c-2 0-4-2-5-5-2-15 25-96 30-112a5 5 0 1 1 10 3c-12 36-32 98-30 108a5 5 0 0 1-5 6zM1056 1753l-2-1c-2-1-3-4-2-6l34-98c1-2 4-4 7-3 2 1 4 4 3 7l-35 98c-1 1-3 3-5 3zM1108 666h-2c-2-1-4-4-3-7 1-2 22-57 73-80 29-14 63-14 100 1a5 5 0 1 1-3 9c-35-13-66-14-93-1-48 21-67 74-67 75-1 2-3 3-5 3zM786 1773c-3-1-5-3-5-6 7-63-76-99-77-100-2-1-3-4-2-6 1-3 4-4 6-3 4 2 91 40 83 110 0 3-2 5-5 5zM759 1780c-3 0-5-2-5-5-3-37-63-96-64-96a5 5 0 0 1 7-8c3 3 64 62 67 104 0 2-2 5-5 5zM1159 1758c-2 0-4-2-5-4-18-60 51-113 54-115a5 5 0 0 1 6 8s-67 51-51 104a5 5 0 0 1-4 7z"/>
  <path fill="#261d2a" d="M1176 1748c-2 0-4-2-5-5-2-16 46-72 61-89a5 5 0 0 1 8 7 309 309 0 0 0-63 86l-1 1zM942 1201c-73 0-238-122-280-154 1 15 0 41-17 54-17 12-45 7-81-14a448 448 0 0 1-153-156c3 28 4 61-7 68-3 1-8 2-14-2-125-95-69-304-69-306a5 5 0 0 1 10 3c-1 2-54 204 65 295l3 1c5-3 5-43-1-83a5 5 0 0 1 9-3c1 1 54 112 162 174 32 19 56 24 70 15 20-14 12-56 12-56 0-2 1-4 3-5h5c2 2 213 165 287 159 74-7 275-151 277-153h5c2 1 3 2 3 4 1 14 5 37 13 42h4c25-8 192-95 220-176 1-3 4-4 6-4 3 1 4 4 4 6-6 26-8 57-3 62l3-1c15-6 130-92 127-228-1-3 2-5 4-5h1c2 0 4 2 5 4 3 133-106 226-134 238-6 3-10 1-12-1-7-6-8-23-6-39a592 592 0 0 1-212 154c-5 2-9 1-13-2-10-7-14-28-16-40-37 26-205 143-275 149h-5z"/>
  <path fill="#261d2a" d="m720 761-3-1-230-140a5 5 0 1 1 5-8l230 140a5 5 0 0 1-2 9zM705 778l-2-1-238-76a5 5 0 1 1 3-10l238 77a5 5 0 0 1-1 10zM450 801a5 5 0 0 1-1-10l259-8c2-1 5 2 5 4 0 3-2 5-5 6l-258 8zM1175 769a5 5 0 0 1-2-9l226-87a5 5 0 1 1 4 9l-227 87h-1zM1183 796a5 5 0 0 1-1-10l275-40c3 0 5 1 6 4 0 3-2 5-4 6l-275 40h-1zM1435 829h-1l-245-18c-3 0-5-3-4-5 0-3 2-5 5-5l245 18c3 0 5 3 5 6-1 2-3 4-5 4zM961 558c-8 0-15-4-20-11-14-19-13-61-8-90-11 8-25 16-37 18-20 5-35-3-43-21-22-53 34-119 36-121s5-3 7-1 2 5 1 7c-1 1-55 63-35 112 5 11 13 16 24 16 18-1 39-15 50-25l4-9c3-5 6-6 9-5 3 0 5 2 5 6 0 3-3 8-9 13-5 21-10 69 2 91 4 8 10 11 18 10 12-3 25-14 37-34 11-17 20-37 25-53-2-16 0-29 6-35 3-4 6-3 8-2 5 2 4 9 3 12 0 5-3 14-6 25 2 16 7 33 15 45 2 4 8 12 13 10 11-4 31-30 39-62 4-19 5-46-14-66a5 5 0 1 1 7-7c23 23 21 54 16 75-8 35-30 64-44 70-7 2-16 1-26-15-5-8-9-19-13-32-13 33-36 73-64 78l-6 1z"/>
  <path fill="#d07f23" d="M1996 1668s115 270-155 475-695-70-995 0-85-155 115-210 355 15 355 15-104-73-135-90c-35-20 135-125 295 15s565 90 460-210z"/>
  <path fill="#261d2a" d="m1189 2113-2-1c-11-5-37-5-62-5-48-1-77-3-83-18-3-10 8-21 16-28 40-34 94-44 129-47-21-7-37-15-36-23 0-9 11-13 37-16 74-8 151 22 179 35-5-15-10-36-1-44 8-6 21 2 25 5 42 26 125 41 126 42a5 5 0 0 1-2 9 441 441 0 0 1-143-48c-4 3 1 24 9 44a5 5 0 0 1-7 6c-1 0-97-49-185-39-20 2-26 5-28 6 5 6 32 15 61 22 3 0 4 3 4 5 0 3-2 5-5 5-1 0-96-5-157 46-10 9-13 15-12 17 3 9 45 10 73 11 28 0 54 0 66 6a5 5 0 0 1-2 10zM1813 2112c-3 0-6-1-8-3-6-6-1-20 6-33-16 9-42 20-84 29-14 3-34 5-39-6-8-18 36-56 50-68 2-2 5-1 7 1s2 5-1 7c-25 21-50 49-47 56 0 0 3 5 28 0 82-17 102-42 102-43 2-2 5-3 7-1a5 5 0 0 1 1 7c-14 19-25 40-23 44h1c2 0 10-1 31-14 74-46 92-123 92-124 1-3 4-4 6-4 3 1 5 3 4 6s-19 83-97 131c-17 10-28 15-36 15zM706 304h-2c-13-4-30-52-38-72a5 5 0 1 1 10-4c9 28 23 59 29 65 4-8 2-45-1-77-1-3 1-6 4-6s5 2 6 4c3 30 7 81-4 89l-4 1zM1384 433l-4-2c-2-2-5-6 9-86 0-2 3-4 6-4 2 1 4 3 4 6-5 26-9 54-10 69l41-50a5 5 0 0 1 8 6c-48 61-52 61-54 61zM491 1378c-2 0-4-2-5-5-4-25-27-28-28-28-3 0-5-3-4-5 0-3 3-5 5-5 11 1 33 10 37 37a5 5 0 0 1-5 6zM422 1376c-2 0-4-1-4-4-5-26-28-28-29-28-2 0-4-3-4-6 0-2 3-4 5-4 11 1 33 10 37 36a5 5 0 0 1-5 6zM435 1333c-2 0-5-2-5-5-4-25-27-28-28-28-3 0-5-3-5-5 1-3 3-5 6-5 11 1 32 10 37 37a5 5 0 0 1-5 6zM376 1324c-2 0-4-2-5-4-4-26-27-29-28-29-3 0-5-2-4-5 0-3 3-5 5-5 11 1 33 10 37 37a5 5 0 0 1-5 6zM375 1285c-2 0-5-2-5-4-4-26-27-28-28-28-3-1-5-3-5-6 1-3 3-5 6-4 11 1 32 9 37 36a5 5 0 0 1-5 6zM324 1286c-3 0-5-1-5-4-5-26-27-28-28-28-3 0-5-3-5-6 0-2 3-4 6-4 10 1 32 10 37 36a5 5 0 0 1-5 6zM492 1419c-2 0-4-2-4-4-5-26-28-29-29-29-2 0-4-2-4-5s3-5 5-5c11 1 33 10 37 37a5 5 0 0 1-5 6zM1399 1314h-1c-2 0-4-3-4-6 5-26 26-35 37-36 3 0 5 2 6 4 0 3-2 5-5 6-1 0-24 2-28 28 0 3-2 4-5 4zM1468 1313h-1c-3-1-5-3-4-6 4-27 26-36 37-36 2-1 5 1 5 4 1 3-1 5-4 5-1 1-24 3-28 29-1 2-3 4-5 4zM1455 1269c-3 0-5-3-5-6 5-26 27-35 37-36 3 0 6 2 6 4 0 3-2 5-5 6-1 0-23 2-28 28 0 3-2 4-5 4zM1514 1260h-1c-2 0-4-3-4-5 5-27 26-36 37-37 3 0 5 2 6 5 0 2-2 5-5 5-1 0-24 3-28 28 0 3-2 4-5 4zM1515 1222c-3-1-5-3-5-6 5-27 27-36 37-37 3 0 6 2 6 5s-2 5-5 5c-1 0-23 3-28 29 0 2-2 4-5 4zM1567 1223h-1c-3-1-5-3-4-6 4-27 26-36 37-36 2-1 5 1 5 4s-2 5-4 5c-1 1-24 3-28 29-1 2-3 4-5 4zM1398 1355h-1c-3 0-5-3-4-5 4-27 26-36 37-37 2 0 5 2 5 5 1 2-1 5-4 5-1 0-24 3-28 28-1 3-3 4-5 4zM1818 1614c-5 0-9-2-12-4-15-11-12-41-8-60-18 15-48 38-63 38-4 0-6-2-8-4-8-10-2-33 4-49-26 20-69 50-82 47-3 0-5-2-6-4-7-15 4-51 5-55a5 5 0 1 1 10 3c-4 13-9 37-6 47 10-1 53-30 88-58h6c2 2 2 4 1 6-9 19-19 49-12 57h1c13 0 48-28 67-46a5 5 0 0 1 8 5c-6 21-11 56 1 65 5 4 16 1 32-9 50-32 67-79 74-99 3-9 4-12 8-13 2-1 4 0 5 1 2 2 4 6 7 16 4 12 14 41 22 42 2 1 4-2 7-7 20-34 1-103 1-104a5 5 0 1 1 10-3c1 3 20 74-2 112-6 9-11 13-17 12-14-1-22-23-30-49l-2-4v1c-7 21-25 70-78 104-12 8-23 12-31 12zM261 1652l-16-3c-43-12-64-41-74-64-2 17-6 34-17 38-8 3-18-3-30-19-45-60-28-106-27-108 0-3 3-4 6-3s4 4 3 6c0 1-15 44 26 99 10 13 16 17 19 16 8-3 11-32 10-58 0-3 2-5 5-5 2 0 5 2 5 4 1 3 11 66 77 84 12 4 21 3 26-2 14-16-3-66-11-84a5 5 0 0 1 9-5c23 28 47 52 53 52h1c3-3 1-26-5-50a5 5 0 0 1 9-3c1 0 50 76 93 89 7 2 12 2 14 0 5-7-5-31-13-46a5 5 0 1 1 8-5c4 7 24 43 13 57-5 6-13 7-25 4-32-10-66-50-84-75 2 15 2 31-5 37-1 1-3 2-7 2-9-1-28-19-42-35 7 22 12 54-1 68-5 6-11 9-20 9z"/>
</svg>
