<svg xmlns="http://www.w3.org/2000/svg" xml:space="preserve" viewBox="0 0 1700 1850">
  <path fill="#584b45" d="M593 111S376-76 228 93c-54 62-4 133-104 207C23 374-60 480 99 575c158 95 531-362 494-464Z"/>
  <path fill="#ead9ba" d="M979 141S747 29 569 88 134 399 135 601c2 382 488 414 828 401 424-15 384-706 16-861z"/>
  <path fill="#ead9ba" d="M1194 769s-32 110 109 200c141 91 337-36 379 328 41 364-76 380-361 442s-393 123-371 52c22-70 129-93 152-116 23-24-263-53-323-30-61 22-160 200-334 182-163-17 136-235 73-268s-166-75-239 15c-74 91-128 186-197 127-69-60 60-153 145-405 86-251-61-583 142-636 202-54 825 109 825 109z"/>
  <path fill="#261d2a" d="M691 1035c25 0 51-2 78-5 291-40 300-94 300-100a5 5 0 0 0-10-1c-1 2-12 53-291 91-268 36-394-125-396-127a5 5 0 1 0-8 6c2 2 106 136 327 136z"/>
  <path fill="#bb5a44" d="M694 760s-55-58-155 15c-101 72-100 340 10 335 192-9 190-259 145-350z"/>
  <path fill="#584b45" d="M969 808s-50-300-330-297c-274 4-359 183-330 237 103 193 323 40 323 40s17 168 210 180c148 9 127-160 127-160zM1117 262s167-51 246-9 101 247 140 301-3 174-212 147c-153-21-84-338-174-439z"/>
  <path fill="#584b45" d="M785 601s55-229 211-200c155 28 135 314-20 333-156 19-191-133-191-133zM628 522s6-228-139-220c-144 9-212 251-88 304s227-84 227-84z"/>
  <path fill="#261d2a" d="M1102 1680a5 5 0 0 0 3-10c-61-36-96-83-102-141-18-152 160-327 161-329a5 5 0 0 0-7-7c-7 7-183 180-164 337 7 61 43 111 106 149l3 1zM564 1563l8-1a5 5 0 0 0-2-10s-36 6-155-32c-75-24-112-80-112-81-2-2-5-3-7-1-2 1-3 5-2 7 2 2 40 59 118 84 92 30 135 34 152 34z"/>
  <circle cx="-948.7" cy="564.6" r="35" fill="#261d2a" transform="scale(-1 1)"/>
  <circle cx="-508.7" cy="479.6" r="35" fill="#261d2a" transform="scale(-1 1)"/>
  <path fill="#261d2a" d="M802 558s-113-83-187-43c-55 30-23 86 44 126 66 40 216-23 143-83z"/>
  <path fill="#261d2a" d="m892 703 2-1c3-1 4-4 3-6-50-104-114-163-193-178-71-13-141 15-186 40-49 28-81 58-83 60a5 5 0 0 0 7 7c1-1 129-121 260-97 75 14 138 72 185 172 1 2 3 3 5 3z"/>
  <path fill="#261d2a" d="M631 796c2 0 4-1 5-4l54-179a5 5 0 1 0-9-3l-55 179a5 5 0 0 0 5 7z"/>
  <path fill="#261d2a" d="M764 938c10 0 20-2 30-5 52-19 75-84 76-87 1-2 0-5-3-6s-5 0-6 3c-1 1-22 63-71 80-20 7-40 6-59-3-60-30-94-133-94-134a5 5 0 0 0-8-2c-1 1-128 82-204 51-26-11-44-35-51-71-1-3-4-5-6-4-3 0-5 3-4 6 8 39 28 66 57 78 73 30 182-33 208-48 9 23 41 105 97 133 13 6 25 9 38 9z"/>
  <path fill="#261d2a" d="M585 1013c3 0 5-2 5-4 0-1 17-117 30-173a5 5 0 0 0-10-3c-13 57-29 173-30 174a5 5 0 0 0 5 6zM834 402l4-2c41-56 89-82 142-78 40 3 67 23 67 23 3 2 6 1 7-1 2-2 1-5-1-7-1-1-119-84-223 57a5 5 0 0 0 4 8zM645 378c3-1 5-3 5-6-23-132-119-126-120-126a5 5 0 0 0 1 10c3 0 88-5 109 118 0 2 2 4 5 4zM649 170c100 0 115-72 115-73a5 5 0 0 0-10-2c-1 3-16 73-124 64a5 5 0 1 0 0 10l19 1zM1011 281a5 5 0 0 0 1-10c-4-1-102-18-93-112 1-2-2-5-4-5-3 0-5 2-6 5-10 103 101 121 102 122zM892 281l4-2c2-2 2-5 0-7-1-1-68-68-86-117-3-8-8-13-13-14-11-3-22 8-37 22-29 27-72 67-136 49a5 5 0 1 0-3 10c70 19 116-23 146-51 11-11 22-22 28-20a465 465 0 0 0 98 130zM368 1053a5 5 0 0 0 2-9c-1-1-95-49-111-140-1-3-3-5-6-4-3 0-5 3-4 6 17 96 112 145 116 147h3zM1004 1073c8 0 187-2 209-160a5 5 0 1 0-10-2c-21 152-197 152-199 152a5 5 0 0 0 0 10zM563 1220c14 0 29-5 44-16 93-69 234-100 235-100a5 5 0 0 0-2-10c-1 1-145 32-239 102-16 11-31 16-45 14-29-5-54-39-78-73-23-32-47-65-77-74-3-1-6 0-7 3 0 3 1 6 4 6 26 8 49 40 72 71 25 35 51 71 85 77h8z"/>
  <path fill="#fcfdff" d="M693 553a5 5 0 0 0 2-9c-2-1-45-25-70-13a5 5 0 0 0 4 9c17-8 50 6 61 13h3z"/>
  <path fill="#261d2a" d="m744 1675 2-1c56-30 110-157 112-162a5 5 0 0 0-9-4c0 1-55 128-108 157a5 5 0 0 0 3 10zM489 1805l4-3c19-28 58-53 58-53a5 5 0 1 0-5-9c-2 1-41 26-61 57a5 5 0 0 0 4 8zM439 1800h1c2-1 4-4 4-6-5-24 43-62 62-75a5 5 0 0 0-5-9c-8 6-74 51-67 86 0 2 2 4 5 4zM129 1685c2 0 4-2 5-5 4-33 43-71 43-72a5 5 0 0 0-7-7c-2 2-41 42-46 78a5 5 0 0 0 5 6zM94 1685c3-1 5-3 5-6-10-61 41-85 42-85a5 5 0 0 0-4-9c-1 0-59 27-48 95 0 3 2 5 5 5zM984 1815l4-2c28-38 77-36 78-36 3 0 5-2 5-5 0-2-2-5-5-5-2 0-55-2-86 40a5 5 0 0 0 4 8zM966 1802c2 0 5-1 5-4 7-32 59-54 60-54a5 5 0 1 0-4-9c-3 1-58 24-66 61a5 5 0 0 0 5 6zM1590 1153c3 0 5-2 5-5-3-26-22-33-32-34-2 0-5 2-5 5s2 5 5 5c2 0 19 2 22 25 0 3 2 4 5 4zM1537 1141h1c2 0 4-3 4-6-3-26-21-33-31-33-2 0-5 2-5 5s2 5 5 5c2 0 19 1 21 24 0 3 3 5 5 5zM1617 1263c3 0 5-2 5-4 2-27-15-37-25-39a5 5 0 0 0-2 10c2 0 19 5 17 28a5 5 0 0 0 5 5zM1630 1218c3 0 5-2 5-5-3-26-22-33-32-34-2 0-5 2-5 5s2 5 5 5c2 0 19 2 22 25 0 3 2 4 5 4zM1543 1102a5 5 0 0 0 5-7c-10-24-30-26-39-24-3 1-4 3-4 6 1 3 3 4 6 4 2-1 19-4 27 18 1 2 3 3 5 3zM1574 1196c3 0 5-2 5-5-2-26-20-34-30-35-3 0-5 2-5 5s2 5 5 5c2 1 18 3 20 26 0 2 2 4 5 4zM482 1505c6 0 11-2 14-3a5 5 0 0 0-5-9c-2 1-17 8-31-11a5 5 0 0 0-8 6c10 13 21 17 30 17zM534 1490c6 0 10-2 14-3a5 5 0 0 0-5-9c-2 1-17 8-31-11-1-2-5-3-7-1-2 1-3 4-1 7 10 13 21 17 30 17zM406 1427l8-1a5 5 0 0 0-3-9c-2 0-18 5-28-16a5 5 0 1 0-9 4c8 18 22 22 32 22zM415 1468c6 0 11-2 14-3a5 5 0 0 0-5-9c-2 1-17 8-30-11-2-2-5-3-7-1-3 1-3 4-2 7 10 13 21 17 30 17zM544 1520c9 0 17-4 21-8a5 5 0 0 0-7-7c-2 1-15 12-33-2-2-2-5-2-7 0-1 2-1 6 1 7 9 8 18 10 25 10zM475 1461c5 0 9-2 12-3a5 5 0 1 0-4-9c-2 1-17 7-30-12a5 5 0 0 0-9 5c10 15 22 19 31 19zM1087 1580a5 5 0 0 0 2-9c-1-1-16-10-8-32a5 5 0 1 0-10-3c-8 25 5 39 14 44h2zM1129 1614a5 5 0 0 0 2-9c-1-1-16-10-8-32a5 5 0 1 0-10-3c-8 25 5 39 14 44h2zM1103 1471a5 5 0 0 0 3-9c-2-2-15-12-3-33a5 5 0 0 0-9-5c-13 23-2 40 6 46l3 1zM1079 1504a5 5 0 0 0 2-9c-2-1-16-9-9-31a5 5 0 1 0-9-4c-9 25 5 40 14 44h2zM1117 1643c2 0 4-2 4-4 1-3-1-6-3-6-2-1-19-5-17-28a5 5 0 0 0-10-1c-2 26 15 36 25 38l1 1zM1118 1549a5 5 0 0 0 3-10c-2-1-16-10-8-32a5 5 0 0 0-9-3c-10 24 3 39 12 44l2 1z"/>
  <path fill="#fcfdff" d="M1417 434c2 0 4-2 5-5 2-14-9-31-10-31a5 5 0 1 0-8 5c3 4 9 16 8 25a5 5 0 0 0 5 6zM1394 466c3 0 5-2 5-4 2-14-9-31-9-32a5 5 0 0 0-9 6c3 4 10 16 8 24a5 5 0 0 0 5 6zM1434 484c3 0 5-2 5-5 2-14-9-31-9-31a5 5 0 0 0-9 5c3 4 10 16 8 25a5 5 0 0 0 5 6zM1414 511c3 0 5-2 5-4 2-14-9-31-9-32a5 5 0 0 0-9 6c3 4 10 16 8 24a5 5 0 0 0 5 6zM1454 541c3 0 5-2 5-4 2-14-9-31-9-32a5 5 0 0 0-9 6c3 4 10 16 8 24a5 5 0 0 0 5 6zM280 108c3 0 5-2 5-4 1-9 10-19 14-22a5 5 0 0 0-7-8c0 1-15 15-17 29 0 2 2 5 5 5zM294 145c3 0 5-2 5-4 1-9 10-19 14-22a5 5 0 0 0-7-8c0 1-15 15-17 29 0 2 2 5 5 5zM251 152c3 0 5-1 5-4 1-9 10-19 14-22a5 5 0 0 0-7-7s-15 14-17 28a5 5 0 0 0 5 5zM264 184c2 0 5-2 5-5 1-8 10-18 14-22a5 5 0 0 0-7-7c-1 1-16 14-17 28 0 3 2 6 4 6h1zM218 203c2 0 5-2 5-4 1-9 10-19 14-22a5 5 0 0 0-7-7c-1 0-16 14-17 28 0 3 2 5 4 5h1z"/>
</svg>
