<svg xmlns="http://www.w3.org/2000/svg" xml:space="preserve" viewBox="0 0 1900 1900">
  <path fill="#b6b7a9" d="M417 1342s7 311-47 460c-37 102-288 87-163-43 34-36 43-477 76-582 34-105 134 165 134 165zM312 1026s-150-27-235-25c-85 1-82-97 103-149 185-51 132 174 132 174z"/>
  <path fill="#b6b7a9" d="M938 398s27-198-18-180-203 114-203 114-169-51-224-86c-23-15 85-271 4-235S231 246 42 408C-90 521 173 812 245 956s27 729 72 864 846 36 1233 54 396-630 99-927 18-486 153-342 189-432-315-243c-512 192 639 1314-27 1269 0 0 234-1071-522-1233z"/>
  <path fill="#feffff" d="M656 836s-48-207-131-262c-34-23-371 93-308 183s403 205 439 79z"/>
  <path fill="#261d2a" d="m560 1864 4-2c34-56 131-17 132-16a5 5 0 1 0 4-9c-4-2-107-43-144 20a5 5 0 0 0 4 7z"/>
  <path fill="#261d2a" d="M527 1891c2 0 4-2 5-4 0-1 20-71 75-93 34-13 75-6 120 22a5 5 0 1 0 6-8c-49-30-92-38-129-23-60 23-81 96-82 99a5 5 0 0 0 5 7z"/>
  <path fill="#ca7a8c" d="M387 754s-51-3-63 78 86-11 96-9c11 1-19-51-33-69z"/>
  <path fill="#261d2a" d="M635 658c2 0 4-1 5-3 25-79 134-48 135-48 2 1 5-1 6-4 1-2-1-5-4-6-1 0-119-33-147 55a5 5 0 0 0 5 6zM347 571c2 0 5-2 5-4 6-54-76-119-80-122a5 5 0 0 0-6 8c1 1 82 65 76 112a5 5 0 0 0 5 6z"/>
  <path fill="#feffff" d="M875 398s33-108 18-108-141 57-126 69 108 39 108 39z"/>
  <path fill="#8c8e83" d="M708 331s-90 158-96 128 23-145 28-148c15-11 68 20 68 20zM617 297s-83 161-89 149 12-179 30-169c12 7 59 20 59 20zM530 268s-66 165-78 147 32-169 41-169 37 22 37 22z"/>
  <path fill="#feffff" d="M443 227s22-148 6-141a392 392 0 0 0-119 110c3 9 113 31 113 31z"/>
  <path fill="#261d2a" d="M822 382c5 0 23-13 51-38 2-2 3-5 1-7s-5-2-7 0c-15 13-34 28-42 33 1-9 5-28 10-45a5 5 0 1 0-10-2c-14 49-10 55-8 57l5 2zM381 210c4 0 10-2 35-56a5 5 0 0 0-9-4c-8 17-17 35-23 44-1-9 0-26 1-41 0-3-2-6-5-6-2 0-5 2-5 5-1 7-3 45 0 54 1 2 3 4 6 4zM280 681l4-2c2-2 1-5-1-7L132 543c-3-1-6-1-7 1-2 2-2 5 0 7l152 128 3 2zM258 699c2 0 4-1 5-3s0-5-2-6L69 583a5 5 0 1 0-5 9l192 106 2 1zM245 724c2 0 4-2 5-4s-1-5-4-6L53 662c-3 0-5 1-6 4s1 5 3 6l194 52h1zM612 774l193-3c3 0 5-3 5-6 0-2-3-4-5-4l-193 3a5 5 0 0 0 0 10zM857 832a5 5 0 0 0 0-10l-233-25a5 5 0 0 0-1 10l233 25h1zM800 896c2 0 4-2 5-4 1-3-1-5-4-6l-188-55a5 5 0 1 0-3 9l189 55 1 1zM362 819c2 0 3-1 4-3 1-1 14-26 38-21 3 1 5-1 6-3 1-3-1-6-4-6-25-6-43 14-49 26a5 5 0 0 0 5 7z"/>
  <path fill="#261d2a" d="M446 840c43 0 88-92 90-96a5 5 0 1 0-9-4c-12 25-50 90-81 90-30 0-48-73-52-101-1-2-3-4-6-4-3 1-5 3-4 6 2 11 18 109 62 109z"/>
  <path fill="#261d2a" d="M446 840c2 0 4-2 5-4l23-149a5 5 0 0 0-9-2l-24 149a5 5 0 0 0 5 6z"/>
  <path fill="#ca7a8c" d="M433 648s28 37 34 37c6-1 50-21 50-21s-45-32-84-16z"/>
  <path fill="#8c8e83" d="M127 331s91 90 76 91c-15 2-121-46-118-51s42-40 42-40zM65 391s112 85 98 91c-13 7-145-38-141-46 3-9 38-40 43-45zM8 479s104 32 99 40-94 27-97 22-5-54-2-62ZM912 572s-72 14-82 19 97 48 93 40c-3-9-6-49-11-59zM925 654s-118-2-113 8 121 62 123 54c2-9-10-62-10-62zM930 746s-93-19-90-9 80 77 85 77 15-32 5-68z"/>
  <path fill="#261d2a" d="M605 937c83 0 207-16 278-64 38-26 57-58 58-96 4-161-37-313-38-314-1-3-3-5-6-4s-4 4-3 6c0 2 41 152 37 311-1 35-19 65-54 88-100 69-313 69-349 55-3-1-5 1-6 3-1 3 0 6 3 7 13 4 42 8 80 8zM27 986l4-3c4-6 54-16 96-22 3-1 5-3 5-6-1-3-3-5-6-4-22 3-94 14-103 27a5 5 0 0 0 4 8zM30 951l3-1c33-24 81-20 82-19 2 0 5-2 5-5s-2-5-4-5c-3-1-53-5-89 20a5 5 0 0 0 3 10z"/>
  <path fill="#8c8e83" d="M448 1056s2-105-5-102c-6 3-51 68-50 77 2 8 55 25 55 25zM373 1031s32-132 10-117c-21 15-86 95-81 100s71 17 71 17zM278 1016s10-119 2-110c-8 8-70 95-68 101 1 7 66 9 66 9z"/>
  <path fill="#261d2a" d="M530 1150h2c3-1 4-4 2-7-57-125-236-134-367-141-71-4-133-7-141-29-5-12 6-31 33-58 133-133 385-14 506 44 55 25 74 34 82 28a5 5 0 0 0-6-8c-6 2-39-14-71-29-124-59-380-180-518-42-30 30-42 52-36 69 11 28 70 31 151 35 128 6 303 15 358 135 1 2 3 3 5 3zM560 1891l4-2c31-31 101-15 102-15 2 0 5-1 6-4 0-3-2-5-4-6-3-1-77-17-112 18a5 5 0 0 0 4 9zM212 1874c2 0 4-1 4-3 14-41 64-59 64-59a5 5 0 0 0-3-10c-3 1-54 20-70 65a5 5 0 0 0 5 7zM190 1862c2 0 5-2 5-4 6-44 39-59 39-60a5 5 0 1 0-4-9c-2 1-38 19-45 68a5 5 0 0 0 5 5z"/>
  <path fill="#8c8e83" d="M287 1301s93 55 80 65c-14 10-97 25-97 20l17-85zM272 1406s113 15 101 26c-11 12-111 44-111 37s10-63 10-63zM280 1271s90 21 107 8c16-13-87-68-92-65s-15 57-15 57z"/>
  <path fill="#261d2a" d="M242 1880c32 0 69-13 98-41 53-51 49-300 48-310 0-3-2-5-5-5s-5 2-5 5 5 255-45 303c-51 49-118 45-143 21-19-18-15-45 10-74 49-55 120-639 77-750-1-2-4-4-7-3-2 1-4 4-3 7 42 106-30 689-74 739-29 33-33 66-10 88 14 13 35 20 59 20z"/>
  <path fill="#8c8e83" d="M1087 452s-97 180-100 200c-4 20 190-150 190-150s-57-50-90-50zM1210 529s-190 180-183 210c6 30 273-110 270-127-4-16-77-80-87-83zM1324 640s-191 119-201 149 250-50 250-60-35-76-49-89zM1462 952s-211 44-218 68c-6 23 236 39 235 30-5-48-17-98-17-98zM1487 1085s-260 1-247 14 237 140 247 123c10-16 0-137 0-137zM1490 1272s-187-53-180-40c7 14 167 180 180 170s3-106 0-130zM937 1009s16 217 3 207-132-185-118-191c13-7 115-29 115-16zM777 1042s113 254 96 257c-16 3-216-143-196-169 20-27 100-88 100-88zM630 1212s190 110 167 117c-24 7-187-10-190-30-4-20 23-87 23-87zM593 1566s180-17 160 0c-20 16-118 90-131 84-14-7-29-84-29-84zM633 1692s161-93 157-76c-3 14-83 143-100 143s-60-57-57-67zM783 1812s60-116 40-113-120 73-110 87c10 13 70 26 70 26zM1257 1872s-34-213-50-190c-17 24-70 197-54 197 17 0 87 0 104-7zM1127 1876s-24-217-40-200c-17 16-58 209-58 209s94-3 98-9zM1283 1879s21-179 37-183c29-9 51 162 47 174-5 12-84 9-84 9z"/>
  <path fill="#261d2a" d="M818 1834a5 5 0 0 0 1-10c-105-13-179-91-210-217-48-192 14-449 128-530 90-64 178-86 263-67 150 35 238 193 239 195s4 3 7 2c2-2 3-5 2-7s-91-164-246-199c-88-20-179 3-271 68-116 83-181 345-132 540 32 131 110 211 218 225h1z"/>
  <path fill="#feffff" d="M597 1776s-30-424-114-367c-83 57-90 430-103 447-13 16 107 36 123 26 17-10 84-106 94-106z"/>
  <path fill="#261d2a" d="m487 1888 17-1c2 0 5-2 4-5 0-3-2-5-5-5-1 0-96 6-150-32-2-2-5-1-7 1s-1 5 1 7c44 31 109 35 140 35z"/>
  <path fill="#8c8e83" d="M1649 330s-2 150-22 140-93-120-78-125 88-15 100-15zM1522 350s50 175 27 167c-22-7-142-107-125-122 18-15 98-45 98-45zM1379 462s115 118 103 130c-13 13-128-17-130-32-3-15 10-83 27-98zM1529 1062s148-25 125-2c-22 22-80 82-92 72-13-10-33-70-33-70zM1564 1150s129-37 138-28c10 10-95 120-100 113-5-8-38-85-38-85zM1612 1257s120-75 132-65c10 8-85 158-102 140-18-17-30-75-30-75zM1834 1655s-132-45-135-30c-2 15 100 110 108 102 7-7 35-62 27-72zM1789 1750c3-8-135-115-140-95s75 155 85 155 48-43 55-60zM1702 1835s-68-120-75-105c-8 15-5 132 7 132 13 0 58-12 68-27z"/>
  <path fill="#261d2a" d="m1433 1523 4-1c16-15 11-34 6-42a5 5 0 0 0-9 5c1 1 10 17-4 30a5 5 0 0 0 3 8zM1400 1556l3-1c16-15 11-35 6-43a5 5 0 1 0-8 5c0 1 9 17-5 30a5 5 0 0 0 4 9zM1427 1583l3-1c16-15 12-34 7-42a5 5 0 1 0-9 5c1 1 10 17-4 30a5 5 0 0 0 3 8zM1390 1612l3-1c16-15 11-34 6-43a5 5 0 0 0-8 5c0 1 9 18-5 31a5 5 0 0 0 4 8zM1412 1647l3-1c16-15 12-34 7-43a5 5 0 0 0-9 5c1 1 10 18-4 31a5 5 0 0 0 3 8zM1412 1481l3-1c16-15 12-35 7-43a5 5 0 0 0-9 5c1 1 10 17-4 30a5 5 0 0 0 3 9zM1378 842c2 0 3-1 4-3 11-19 0-36-7-42-2-2-5-2-7 0s-2 5 0 7c1 1 15 13 6 30a5 5 0 0 0 4 8zM1407 899l4-3c11-19 0-36-7-42-2-2-5-1-7 1s-2 5 0 7c1 0 15 13 5 30a5 5 0 0 0 5 7zM1830 1429c2 0 3-1 4-3 11-19 0-36-7-42-2-2-5-1-7 1s-2 5 0 7c1 0 15 13 6 30a5 5 0 0 0 4 7zM1817 1359l4-3c11-19 0-36-7-42a5 5 0 0 0-7 8c1 0 15 13 5 30a5 5 0 0 0 5 7zM1800 1399c2 0 3-1 4-3 11-19 0-36-7-42-2-2-5-1-7 1s-2 5 0 7c1 0 15 13 6 30a5 5 0 0 0 4 7zM1803 1469c2 0 4-1 5-3 10-19 0-36-8-42-2-2-5-1-7 1-1 2-1 5 1 7 0 0 14 13 5 30a5 5 0 0 0 4 7zM1836 1500c2 0 4-1 5-3 10-19-1-36-8-42-2-2-5-1-7 1s-1 5 1 7c0 0 14 13 5 30a5 5 0 0 0 4 7zM1383 928c2 0 3-1 4-3 11-19 0-36-7-42-2-2-5-2-7 0s-2 6 0 7c1 1 15 14 6 30a5 5 0 0 0 4 8zM1343 822c2 0 3-1 4-3 11-19 0-36-7-42-2-2-5-2-7 0s-2 5 0 7c1 1 15 13 6 30a5 5 0 0 0 4 8zM1729 533a5 5 0 0 0 4-8 34 34 0 0 0-41-14 5 5 0 0 0 4 9c1 0 18-6 28 10 1 2 3 3 5 3zM1680 539a5 5 0 0 0 4-9 34 34 0 0 0-43-4 5 5 0 0 0 5 8c1 0 17-10 30 3l4 2zM1609 513l4-2s13-14 30-4c2 2 5 1 7-2 1-2 0-5-2-6-19-12-36-2-43 5a5 5 0 0 0 4 9zM1711 497a5 5 0 0 0 4-9c-16-15-35-8-43-3a5 5 0 0 0 6 8s16-11 30 2l3 2zM1584 551l3-2c1 0 15-13 31-2a5 5 0 0 0 5-9c-18-12-36-2-43 4a5 5 0 0 0 4 9zM1355 883c2 0 4-1 5-3 10-19 0-36-7-42-3-2-6-2-8 0-1 2-1 6 1 7 1 1 14 14 5 30a5 5 0 0 0 4 8z"/>
</svg>
