<svg xmlns="http://www.w3.org/2000/svg" xml:space="preserve" viewBox="0 0 1700 1800">
  <path fill="#7d3f2e" d="M1186 895s100 260 135 275c240 102 231 211 210 310-50 240-240 150-440 140s-30-690 95-725zM1087 227s282-72 372 48c89 121 88 298 120 401 32 104-280 240-299 130-20-110-97-550-193-579z"/>
  <path fill="#7d3f2e" d="M1184 251S860 93 596 140c-264 46-329 422-285 519 45 96 70 10 70 10s-15 194 126 278c142 84 413 50 413 50s-56 14-11 38 397-143 414-409-139-375-139-375z"/>
  <path fill="#7d3f2e" d="M767 235S595 6 416 47C237 87 9 395 35 518c26 122 214 335 354 74 137-256 378-357 378-357ZM436 1315s87-568 237-587c151-18 404-86 454-30 50 57 233 831 130 893-411 249-881 114-821-276z"/>
  <path fill="#d07f23" d="M356 727s8-34 68-25c32 5 77 38 77 38s-55-103 22-92 158 122 158 122 72-63 108-49c37 14 33 49 33 49s122-72 162-39c41 33 22 63 22 63s82-29 129 15-24 82-24 82 49-6 56 14-4 134-360 108c-393-30-433-141-451-286ZM930 441s13-47 70-39c57 7 80 44 70 53-11 9-138 2-140-14zM613 429s-19-45-74-31c-56 13-75 53-64 60 11 8 138-12 138-29z"/>
  <path fill="#212438" d="M676 670s92-15 135 21c42 35-2 99-78 98-55 0-129-107-57-119z"/>
  <circle cx="572.3" cy="576.4" r="47.9" fill="#212438"/>
  <circle cx="959.8" cy="613.7" r="47.9" fill="#212438"/>
  <path fill="#d07f23" d="M551 915s-109 107-82 188c17 48 67-33 67-33s-48 138 30 250c45 64 80-5 80-5s37 148 155 120c118-29 150-220 150-220s17 58 52 61c35 4 124-287 28-357-95-70-480-4-480-4z"/>
  <path fill="#261d2a" d="M920 1009c-38 0-63-8-64-9a5 5 0 0 1 3-9s48 15 112 3c25-5 26-11 26-12 1-5-13-15-27-20a5 5 0 0 1 4-10c1 0 89 24 115-20a5 5 0 0 1 9 5c-20 34-69 34-99 30 5 5 9 11 8 16-1 10-12 16-34 20-19 4-37 6-53 6zM639 1011c-17 0-30-2-35-10-4-5-5-11-4-18l8-13c-34 2-112 0-148-52a5 5 0 1 1 8-5c43 60 154 46 155 45 3 0 5 2 6 4s0 5-2 6c-4 2-15 9-17 18-1 3 0 6 2 10 7 10 59 5 104-5a5 5 0 0 1 2 9c-11 3-50 11-79 11z"/>
  <path fill="#7d3f2e" d="M441 1370s-28 190 52 336c31 58 183 39 178 9s-10-65-20-170"/>
  <path fill="#261d2a" d="M588 1748c-41 0-84-10-100-39a623 623 0 0 1-52-340c1-3 3-5 6-4 3 0 4 3 4 5s-27 190 51 334c22 40 109 40 149 26 13-4 21-10 20-15-5-28-10-62-20-170 0-3 2-5 5-5 2 0 5 1 5 4 10 108 15 142 20 170 1 7-2 17-26 25-16 6-39 9-62 9z"/>
  <path fill="#7d3f2e" d="M846 1525s15 150 5 200 185 35 235-50 35-345 35-345"/>
  <path fill="#261d2a" d="M909 1758c-17 0-32-2-43-6-21-8-21-21-20-28 10-49-5-197-5-199 0-3 2-5 5-5 2-1 5 1 5 4 1 6 15 151 5 202-1 2-2 10 14 17 45 17 173-6 212-71 48-83 34-339 34-342s2-5 5-5c3-1 5 2 5 4 1 11 15 263-36 348-32 55-121 81-181 81z"/>
  <path fill="#7d3f2e" d="M1441 1190s80-45 70-170 105-20 95 65c0 0 5-65 30-25s75 165-55 235-260-15-140-105z"/>
  <path fill="#261d2a" d="M331 630c-2 0-4-2-5-4-20-61 23-162 42-202-6 3-14 5-20 3-5-2-10-6-12-17-12-72 107-180 112-184 2-2 5-2 7 0s1 6-1 7c-1 1-119 109-108 176 1 5 3 8 5 9 7 2 21-7 27-12a5 5 0 0 1 7 6c0 1-73 139-49 211a5 5 0 0 1-5 7zM1201 845a5 5 0 0 1-4-8c48-63 49-156 49-157 0-3 2-5 4-5 2-1 4 0 5 2 13 22 31 46 39 45l2-4c7-21-23-144-45-222 0-2 1-5 3-6s4 0 6 1c9 12 26 26 34 24 4-2 7-11 7-25 0-62-82-136-83-137a5 5 0 1 1 6-7c4 3 87 77 87 144 0 19-4 31-14 34-10 4-22-4-31-12 14 51 48 183 40 209-3 9-8 11-11 11-13 1-29-20-40-36-2 31-12 97-50 147l-4 2z"/>
  <path fill="#7d3f2e" d="M1471 1605s80 55 20 90-165-60-200-70 150-55 180-20z"/>
  <path fill="#261d2a" d="M723 921c-5 0-9-1-14-3-42-22-74-147-75-152a5 5 0 0 1 9-3c1 2 32 126 71 146 5 3 10 3 15 1 48-19 85-116 85-117 1-3 4-4 6-3 3 1 4 4 3 6-1 5-39 103-90 123-3 2-7 2-10 2z"/>
  <path fill="#261d2a" d="M731 920c-3 0-5-2-5-5l-7-128c-1-2 2-5 4-5 3 0 5 2 6 5l7 127c0 3-2 6-5 6z"/>
  <path fill="#7d3f2e" d="M1181 1385s-55 170 70 235"/>
  <path fill="#261d2a" d="m1251 1625-2-1c-53-27-82-78-85-146-2-51 12-93 12-95a5 5 0 0 1 10 3c-1 2-52 167 67 229a5 5 0 0 1-2 10z"/>
  <path fill="#fcfdff" d="m801 717-4-2c-18-24-69-13-70-13-3 1-5-1-6-4 0-2 1-5 4-6 2 0 58-13 80 17a5 5 0 0 1-4 8z"/>
  <path fill="#261d2a" d="M774 235c-2 0-3-1-4-3-9-22 3-39 11-45a5 5 0 0 1 6 8c0 1-16 13-8 33a5 5 0 0 1-5 7zM881 245c-2 0-4-1-5-3-9-22 4-39 12-45a5 5 0 0 1 6 8c-1 1-17 13-8 33a5 5 0 0 1-5 7zM844 306c-2 0-3-1-4-3-9-21 3-38 11-44a5 5 0 0 1 6 8c0 1-16 13-8 32a5 5 0 0 1-5 7zM772 305l-4-2c-15-18-8-38-2-46a5 5 0 0 1 8 6c0 1-12 18 2 34a5 5 0 0 1-4 8zM826 235c-2 0-4-1-5-3-9-22 4-39 12-45a5 5 0 0 1 6 8c-1 1-17 13-8 33a5 5 0 0 1-5 7zM803 281c-2 0-4-1-5-3-9-21 4-38 12-44a5 5 0 0 1 6 8c-1 1-17 13-9 32a5 5 0 0 1-4 7zM731 216c-2 0-4-1-5-3-9-21 4-38 12-44a5 5 0 0 1 6 8c-1 1-17 13-8 32a5 5 0 0 1-5 7zM731 275l-4-2c-15-17-9-37-3-46 1-2 5-2 7-1 2 2 3 5 1 7 0 1-12 18 2 33a5 5 0 0 1-3 9zM151 318h-1c-2 0-4-3-4-6 1-11 5-19 12-23 9-6 19-4 19-4a5 5 0 0 1-2 10c0-1-6-2-11 2-4 3-7 9-8 17 0 2-2 4-5 4zM183 265h-1c-3-1-5-3-4-6 1-11 5-19 12-24 9-6 18-4 19-4a5 5 0 0 1-2 10s-7-1-12 3c-4 3-6 8-7 16-1 3-3 5-5 5zM198 298h-1c-3 0-5-3-4-6 1-11 5-19 12-23 9-6 18-4 19-4a5 5 0 0 1-2 10c-1-1-7-2-12 2-4 3-6 9-7 17-1 2-3 4-5 4zM169 350c-3-1-5-3-5-6 2-11 6-19 12-24 9-6 19-4 20-4a5 5 0 0 1-3 10s-6-1-11 3c-4 3-7 8-8 16 0 3-2 5-5 5zM123 390h-1c-3-1-5-3-4-6 1-11 5-19 12-24 9-6 18-4 19-4a5 5 0 0 1-2 10c-1 0-7-1-12 3-4 3-6 8-7 16-1 3-3 5-5 5zM231 263h-1c-2 0-4-3-4-6 1-11 5-19 12-23 9-6 19-4 19-4a5 5 0 0 1-2 10c0-1-6-2-11 2-4 3-7 9-8 17 0 2-2 4-5 4zM1491 426h-2c-3-2-4-5-2-7 0 0 3-6 1-11s-7-9-14-13a5 5 0 0 1 4-9c10 5 16 11 19 18 4 10-1 19-1 20l-5 2zM1470 463l-3-1c-2-1-3-4-2-6 0 0 3-6 1-12-2-5-6-9-14-12a5 5 0 1 1 4-9c10 4 17 10 19 18 4 10-1 19-1 19l-4 3zM1443 420l-3-1c-2-1-3-4-2-7 1 0 3-5 1-11-1-5-6-9-14-12a5 5 0 0 1 4-9c10 4 17 10 20 18 3 10-2 19-2 19-1 2-2 3-4 3zM1455 390l-3-1c-2-1-3-4-2-7 0 0 3-5 1-11-2-5-6-9-14-12a5 5 0 1 1 4-9c10 4 17 10 19 18 4 10-1 19-1 19l-4 3zM1506 481h-2c-3-2-4-5-2-7 0 0 3-6 1-11s-7-9-14-13a5 5 0 0 1 4-9c10 5 16 11 19 18 4 10-1 19-1 20l-5 2zM1485 530l-3-1c-2-1-3-4-2-7 0 0 3-5 1-11-2-5-6-9-14-12a5 5 0 1 1 4-9c10 4 17 10 19 18 4 10-1 19-1 19l-4 3zM1516 544l-4-1c-2-2-2-5 0-7 0 0 4-5 3-11 0-5-4-10-10-15-2-2-3-5-1-7 1-2 5-3 7-1 9 7 14 14 14 22 1 11-5 18-6 19l-3 1zM228 310h-1c-3-1-5-3-4-6 1-11 5-19 12-24 9-6 18-4 19-4a5 5 0 0 1-2 10s-7-1-12 3c-4 3-6 8-7 16-1 3-3 5-5 5zM114 358c-3 0-5-3-5-6 2-11 6-19 12-23 9-7 19-4 20-4a5 5 0 0 1-3 10c0-1-6-2-11 2-4 3-7 9-8 17 0 2-2 4-5 4zM623 1746h-1c-2 0-4-2-4-5 1-24-24-54-24-55a5 5 0 0 1 8-6c1 1 28 33 26 62 0 2-3 4-5 4zM578 1745c-3 0-5-2-5-4-3-17-24-45-24-45a5 5 0 0 1 8-6c1 1 22 29 26 49a5 5 0 0 1-5 6zM899 1755c-2 0-4-2-4-4-6-16 7-61 8-66 1-3 3-4 6-3 3 0 4 3 4 6-5 18-12 50-9 60a5 5 0 0 1-5 7zM951 1755c-2 0-4-2-5-4-5-27 21-67 23-69 1-2 4-3 7-1 2 1 2 4 1 6 0 1-26 39-21 62a5 5 0 0 1-5 6zM487 1484l-3-1c-19-18-9-40-1-49 2-2 5-2 7-1 2 2 2 5 1 7-1 1-17 20-1 35a5 5 0 0 1-3 9zM511 1398l-3-1c-19-17-9-40-1-49 2-2 5-2 7 0 2 1 3 4 1 7-1 0-17 20-1 34a5 5 0 0 1-3 9zM513 1470l-4-2c-18-17-8-39 0-48 2-2 5-3 7-1s2 5 1 7c-1 1-17 20-1 35a5 5 0 0 1-3 9zM499 1343l-3-1c-19-17-8-40 0-49 1-2 5-2 7 0 2 1 2 4 0 7 0 0-16 20 0 34a5 5 0 0 1-4 9zM1064 1383h-3c-2-2-3-5-1-7 0-1 13-23-6-34-2-2-3-5-1-7 2-3 5-3 7-2 21 14 15 38 8 48-1 2-2 2-4 2zM1041 1435l-3-1c-2-1-3-4-2-6 1-1 13-23-5-35-2-1-3-4-1-7 1-2 4-3 7-1 21 14 14 37 8 48l-4 2zM1081 1440l-3-1c-2-1-3-4-2-6 1-1 13-23-5-35-2-1-3-4-1-7 1-2 4-3 7-1 21 14 14 37 8 48l-4 2zM1066 1485l-3-1c-2-1-3-4-2-6 1-1 13-23-5-35-2-1-3-4-1-7 1-2 4-3 7-1 21 14 14 37 8 48l-4 2zM479 1405l-4-1c-18-17-8-39 0-48 2-3 5-3 7-1s2 5 0 7c0 1-16 20 0 35a5 5 0 0 1-3 8zM1415 1318c-3 0-5-2-5-5 0-1-1-26-23-26-3 0-5-2-5-5s2-5 5-5c25 0 32 24 33 36 0 3-2 5-5 5zM1360 1313c-3 0-5-2-5-5 0-1-1-26-23-26a5 5 0 0 1 0-10c25 0 32 24 33 36 0 3-2 5-5 5zM1365 1273c-3 0-5-2-5-5 0-1-1-26-23-26a5 5 0 0 1 0-10c25 0 32 24 33 36 0 3-2 5-5 5zM1410 1366c-3 0-5-3-5-5 0-1-1-26-23-26a5 5 0 0 1 0-10c25 0 32 23 33 36 0 2-2 5-5 5zM1456 1377h-1c-3 0-5-3-4-5 0-2 4-26-17-31a5 5 0 1 1 2-10c25 6 27 30 24 42 0 3-2 4-4 4zM715 1252c-6 0-13-4-20-10-30-23-34-64-33-93-9 17-20 33-29 33h-1c-3 0-8-2-10-10-12-30 4-77 5-79 1-3 4-4 6-3 3 1 4 4 3 6 0 1-15 46-5 73l2 3c5 0 21-27 33-56 1-2 4-4 7-3 2 1 3 4 3 6 0 1-19 81 25 116 5 4 13 8 17 6 8-5 10-29 9-50l-2-19c0-2 2-4 5-5 2 0 5 2 5 5l2 17c2 10 8 23 21 25 3 1 7 0 10-2 14-9 23-41 25-52 0-3 3-4 5-4 3 0 5 2 5 5 1 16 5 60 17 71l4 2c5-1 13-6 22-21 16-26 27-68 13-101-1-2 1-5 3-6 3-1 6 0 7 2 14 36 3 81-14 110-6 9-17 24-30 26-4 0-8-2-12-5-10-9-15-32-18-52-4 13-12 27-21 33-6 4-12 5-18 4-9-2-15-6-19-11-1 16-4 31-14 36-2 2-5 3-8 3zM1486 1703c-2 0-4-1-5-3-4-11-41-31-64-41a5 5 0 0 1 4-9c11 5 63 28 70 46a5 5 0 0 1-5 7zM1494 1686c-2 0-4-1-4-3-9-27-37-39-37-39a5 5 0 0 1 3-9c2 1 33 13 43 45a5 5 0 0 1-5 6z"/>
  <path fill="#261d2a" d="M1351 1645a5 5 0 0 1 0-10c102-6 144-60 161-104 32-85 0-199-49-248a459 459 0 0 0-168-109c-3 0-5-3-4-6 1-2 4-4 7-3 0 0 88 28 172 111 51 52 85 170 51 258-18 47-62 105-170 111zM1527 1265h-4c-2 0-5-3-4-6 0-2 2-5 5-4 27 1 54-17 65-35 3-5 8-16 3-25-2-4-5-5-9-5l-8 3c-4 10-10 18-17 21-8 4-11 1-12-2-4-7 12-21 21-26l2-10c6-21 5-43 3-49-5 2-16 17-24 33-1 2-4 3-7 2-2-2-3-5-2-7 8-15 24-41 36-38 6 2 8 11 8 17 1 12 0 31-4 47 9-2 17 1 21 9 6 10 5 22-3 35a86 86 0 0 1-70 40z"/>
</svg>
