<svg xmlns="http://www.w3.org/2000/svg" xml:space="preserve" viewBox="0 0 1900 2150">
  <path fill="#d07f23" d="M446 362S497-6 546 24c49 31 177 254 177 254s244-15 409 22c24 5 206-303 261-272 54 30 33 300 36 323 12 78 153 112 185 362 36 274-127 396-97 542s182 383 182 606c0 55 179 145 167 200s-309 13-406-6c-97-18-1038-6-1123 13-85 18-352 75-298-24 84-153 184-95 197-226 33-327 150-507 156-640 6-134-243-315 54-816z"/>
  <path fill="#ead9ba" d="M460 972s-28-222 89-278c210-101 313 116 410 60 327-186 468-89 480 104 11 171-40 202-125 305s-6 134 85 279c91 146-75 604-130 622-54 18-386 54-483-13s-264-437-247-520c27-127 75-212 75-266 0-55-142-147-154-293z"/>
  <path fill="#d07f23" d="M553 1624s221 431 257 462c37 30-164 82-242-43-54-85-169-285-169-285"/>
  <path fill="#261d2a" d="M727 2128c-57 0-125-21-164-82-53-85-167-284-168-286a5 5 0 0 1 9-5c1 2 114 201 168 286 43 68 128 83 187 74 32-4 49-15 51-21 0 0 0-2-3-4-37-31-250-446-259-463-1-3 0-6 2-7 3-1 6-1 7 2 77 149 228 436 257 460 7 6 6 12 5 15-4 15-33 25-59 28-10 2-21 3-33 3z"/>
  <path fill="#d07f23" d="M1433 1598s-157 416-194 500c-11 24 148 18 221-43 73-60 109-291 109-291"/>
  <path fill="#261d2a" d="M1281 2116c-20 0-35-2-42-7-5-4-6-9-4-13 36-83 191-496 193-500 1-3 4-4 6-3 3 1 4 4 3 6-1 4-157 418-193 501l8 4c34 8 146-3 205-52 70-59 107-286 107-289 1-2 3-4 6-4 3 1 5 3 4 6-1 9-37 233-111 294-46 39-130 57-182 57z"/>
  <circle cx="750.9" cy="608.1" r="53.2" fill="#261d2a"/>
  <circle cx="1110.2" cy="614.2" r="53.2" fill="#261d2a"/>
  <path fill="#261d2a" d="M909 953c-3-1-5-3-5-6l10-156c1-3 3-5 6-5 2 0 5 2 4 5l-10 157c0 3-2 5-5 5z"/>
  <path fill="#261d2a" d="M856 718s107-9 125 3c19 12-26 93-62 105s-105-84-63-108z"/>
  <path fill="#d07f23" d="M1606 1628s103-117 120-237 143 130 107 260c-37 130-197 193-210 143-14-50-17-166-17-166z"/>
  <path fill="#ead9ba" d="M663 291s-107-3-124 7c-16 10 0-130 27-124 27 7 117 104 97 117zM1226 308s90-164 117-134c26 30 46 167 33 174-13 6-150-40-150-40zM757 455s-37 5-93 18-5-67 56-71c60-3 95 50 37 53zM1180 463s-36-7-94-15c-57-7 19-64 77-47s73 79 17 62z"/>
  <path fill="#261d2a" d="M1206 1188c-6 0-12-2-17-7-11-10-15-30-16-44-16 17-47 46-62 44-4 0-7-3-9-6-10-23 16-54 17-56a5 5 0 0 1 8 7c-7 7-22 30-16 44l1 1c9 2 39-24 62-49a5 5 0 0 1 9 3c0 10 1 38 13 49 4 3 8 4 13 4 18-3 24-23 27-40-1-12 1-23 1-24 1-2 3-4 6-4 2 0 4 2 4 5 0 1 1 11-1 23 1 7 2 13 7 17s15 4 29-2c49-21 47-85 47-85 0-3 2-5 5-5s5 2 5 4c0 3 2 72-53 95-18 8-31 8-40 0l-4-5c-5 15-14 28-31 30l-5 1zM692 1194c-24 0-47-34-60-59-1 13-4 26-16 31-5 2-14 2-28-13-19-20-41-65-31-85 2-3 5-4 7-2 3 1 4 4 2 7-7 13 11 53 30 74 8 9 14 11 16 10 14-6 10-38 7-48a5 5 0 0 1 10-3c10 24 42 85 69 77 6-2 10-6 12-10 4-14-11-39-17-47a5 5 0 0 1 8-6c31 33 63 60 70 59 5-9-8-32-16-41a5 5 0 1 1 8-6c3 3 27 35 15 52-1 3-4 4-7 5-12 1-35-19-53-37 2 8 3 16 1 24s-9 13-18 16l-9 2zM713 2113c-3 0-5-2-5-5-3-34-61-79-62-80-2-2-2-5-1-7 2-2 5-2 7-1 3 2 62 49 66 87 0 3-2 5-5 6zM759 2123v-1c-3 0-5-3-5-5 7-38-38-96-39-96a5 5 0 1 1 8-7c2 3 48 63 41 104 0 3-2 5-5 5zM1296 2103c-2 0-4-2-5-3-10-25 38-103 47-118a5 5 0 1 1 9 5c-21 34-53 93-46 109a5 5 0 0 1-5 7zM1346 2096h-2c-2-1-4-4-3-7 10-26 36-81 37-84a5 5 0 0 1 9 5s-26 56-36 83c-1 2-3 3-5 3zM1856 2079l-4-1c-10-10-62-29-81-36a5 5 0 0 1 3-9c8 2 72 24 86 38a5 5 0 0 1-4 8zM1859 2053l-4-3c-25-40-91-31-92-31-2 0-5-1-5-4-1-3 1-5 4-6 3 0 74-10 102 36a5 5 0 0 1-5 8zM49 2079l-3-1c-2-2-2-6 0-7 37-34 106-54 109-55 2-1 5 1 6 4 1 2-1 5-4 6 0 0-69 20-104 52l-4 1zM53 2099l-5-2c-1-3 0-6 2-7 24-14 114-39 118-41 3 0 5 1 6 4s-1 5-3 6a983 983 0 0 0-118 40z"/>
  <path fill="#ead9ba" d="M1703 1808s-17-77 50-157c66-80 31-249 40-243 50 30 110 193 50 306-60 114-140 94-140 94z"/>
  <path fill="#bb5a44" d="M819 918s-28 138 80 175c109 36 104-162 104-162s-94-82-90-70c2 9-94 57-94 57z"/>
  <path fill="#261d2a" d="M1067 957c-55 0-135-74-152-90-23 16-127 90-155 80-31-11-26-100-25-110 0-3 3-5 6-5 2 0 4 3 4 6-2 35 0 93 18 100 19 6 102-47 149-82 2-1 5-1 7 1 1 1 102 100 156 89 7-2 13-6 16-12 21-37-14-132-15-133a5 5 0 1 1 10-4c1 5 36 101 14 142-5 9-13 15-23 17l-10 1z"/>
  <path fill="#261d2a" d="M924 1033c-2 0-4-2-5-5 0-5-17-119-9-169 1-2 4-4 6-4 3 1 5 3 4 6-8 49 9 165 9 166a5 5 0 0 1-5 6z"/>
  <path fill="#fcfdff" d="m960 749-4-3c-2-2-19-3-35-1-2 1-5-1-5-4-1-3 1-5 4-6 11-1 38-4 44 6a5 5 0 0 1-4 8z"/>
  <path fill="#261d2a" d="M604 286c-5 0-11-7-22-22-7-8-17-22-21-23-3 0-5-2-5-5s3-5 5-5c7 0 14 8 29 27l9 12-10-48a5 5 0 0 1 10-3l11 55c0 3 1 9-4 11l-2 1zM1297 331c-2 0-3 0-5-2-8-6-14-23-15-39-1-10 1-25 12-36 2-2 6-2 7 0 2 2 2 6 0 7-8 9-10 20-9 29 0 14 6 27 11 31 5-4 18-30 29-59a5 5 0 1 1 9 4c-6 18-23 61-36 65h-3zM855 343l-5-2c-14-24 0-37 1-37a5 5 0 0 1 7 7c-1 1-9 8 1 25a5 5 0 0 1-4 7zM886 360l-4-2c-14-24 0-37 0-37a5 5 0 0 1 7 7s-8 8 1 25a5 5 0 0 1-4 7zM920 343l-4-2c-14-24 0-37 0-37a5 5 0 0 1 7 7c-1 1-8 8 1 25a5 5 0 0 1-4 7zM961 347c-2 0-3-1-4-3-14-24 0-36 0-37a5 5 0 0 1 7 8s-8 8 1 24a5 5 0 0 1-4 8zM988 372c-3 0-5-2-5-5-4-27 14-34 14-34 3-1 6 1 7 3 1 3-1 6-3 7-1 0-11 4-8 23a5 5 0 0 1-5 6zM834 379l-4-2c-17-22-5-36-4-37a5 5 0 0 1 7 7s-7 9 5 24a5 5 0 0 1-4 8zM949 396c-2 0-4-1-5-3-8-27 9-36 10-36 2-1 5 0 6 2 2 2 1 5-2 7 0 0-10 6-4 24a5 5 0 0 1-5 6zM915 396l-4-2c-14-24 0-37 1-37a5 5 0 0 1 6 7c0 1-8 8 1 25a5 5 0 0 1-4 7zM335 773l-4-2c-14-24 0-37 1-38a5 5 0 0 1 6 8s-8 8 1 25a5 5 0 0 1-4 7zM366 815l-5-2c-14-24 0-37 1-37a5 5 0 0 1 7 7c-1 1-9 8 1 25a5 5 0 0 1-4 7zM360 759l-4-3c-14-24 0-36 1-37a5 5 0 0 1 6 8s-8 8 2 24a5 5 0 0 1-5 8zM361 870l-5-2c-14-24 0-37 1-37a5 5 0 0 1 7 7c-1 1-9 8 1 25a5 5 0 0 1-4 7zM607 1502c-2 0-3-1-4-3-14-24 0-36 0-37a5 5 0 0 1 7 8c-1 0-8 8 1 24a5 5 0 0 1-4 8zM625 1452c-2 0-4-1-5-3-14-24 1-36 1-37a5 5 0 0 1 7 8c-1 0-9 8 1 24a5 5 0 0 1-4 8zM643 1513c-2 0-4-1-5-3-14-24 0-36 1-37a5 5 0 0 1 7 8c-1 0-9 8 1 24a5 5 0 0 1-4 8zM628 1548l-4-2c-14-24 0-37 1-37a5 5 0 0 1 6 7c0 1-8 8 2 25a5 5 0 0 1-5 7zM1365 1538l-2-1c-3-1-4-5-2-7 10-16 2-24 1-24-2-2-2-5 0-8 2-2 5-2 7 0 0 1 15 13 1 37-1 2-3 3-5 3zM1347 1488l-2-1c-3-1-3-4-2-7 10-17 2-24 1-24-2-2-2-5 0-7 2-3 5-3 7-1 1 1 15 13 1 37-1 2-3 3-5 3zM1330 1548h-3c-2-2-3-5-2-7 10-17 2-24 2-25-2-2-3-5-1-7s5-2 7 0c1 0 15 13 1 37l-4 2zM1344 1584a5 5 0 0 1-5-8c10-16 2-24 2-24a5 5 0 0 1 6-8c1 1 15 13 1 38l-4 2zM348 899l-4-1c-20-18-11-35-10-35a5 5 0 0 1 8 5s-5 10 9 23a5 5 0 0 1-3 8zM332 836l-4-3c-14-24 0-36 1-37a5 5 0 0 1 6 8s-8 8 2 24a5 5 0 0 1-5 8zM486 1799l-3-2c-21-18-12-34-11-35a5 5 0 0 1 8 5c0 1-5 10 9 23a5 5 0 0 1-3 9zM528 1829l-3-1c-21-19-11-35-11-36a5 5 0 0 1 9 5c-1 1-6 11 9 23a5 5 0 0 1-4 9zM506 1777l-4-1c-21-18-11-35-11-35 1-3 5-4 7-2 2 1 3 4 2 7-1 0-5 10 9 22a5 5 0 0 1-3 9zM541 1883l-3-2c-21-18-12-34-11-35 1-2 4-3 7-2 2 2 3 5 1 7 0 1-5 10 10 23a5 5 0 0 1-4 9zM538 1914h-2c-25-11-21-29-21-30 0-3 3-5 6-4 2 1 4 3 4 6-1 1-2 11 15 19a5 5 0 0 1-2 9zM503 1859l-3-1c-21-18-12-35-11-35a5 5 0 0 1 9 5c-1 0-6 10 9 22a5 5 0 0 1-4 9zM1577 826h-2c-3-2-4-5-2-7 10-17 2-24 1-25-2-2-2-5 0-7s5-2 7 0c0 0 15 13 0 37l-4 2zM1547 869l-3-1c-2-1-3-5-2-7 10-16 2-24 2-25-2-1-2-4-1-7 2-2 5-2 7 0 1 1 15 13 1 37l-4 3zM1552 812h-3c-2-2-3-5-1-7 9-17 1-25 1-25-2-2-2-5-1-7 2-2 5-2 8 0 0 0 14 13 0 37l-4 2zM1552 924l-3-1c-2-2-3-5-2-7 10-17 2-24 2-24-2-2-3-5-1-8 2-2 5-2 7 0 1 0 15 13 1 37l-4 3zM1565 953a5 5 0 0 1-4-9c15-13 9-23 9-23-1-2 0-5 2-7 2-1 5 0 7 2 0 1 10 17-11 35l-3 2zM1580 889h-2c-3-2-4-5-2-7 9-17 2-25 1-25-2-2-2-5 0-7s5-2 7 0c0 0 14 13 0 37l-4 2zM1518 1805l-3-2c-2-2-2-5 0-7 14-13 9-23 8-23-1-3 0-6 2-7s5-1 7 1c0 1 10 17-10 36l-4 2zM1477 1836a5 5 0 0 1-3-8c14-13 8-23 8-24-1-2-1-5 2-6 2-2 5-1 7 1 0 1 10 17-10 36l-4 1zM1498 1784a5 5 0 0 1-3-9c14-13 8-23 8-23-1-2 0-5 2-7 2-1 5-1 7 2 0 0 10 16-10 35l-4 2zM1466 1890l-4-1c-2-2-1-5 1-7 14-13 8-23 8-23-1-3-1-6 2-7 2-2 5-1 6 1 1 1 11 17-10 36l-3 1zM1470 1922c-2 0-4-1-4-3-2-2-1-5 2-7 17-8 15-19 15-19-1-3 1-5 4-6 2-1 5 1 6 4 0 0 4 19-21 31h-2zM1503 1866l-3-2c-2-2-2-5 0-7 14-13 8-23 8-23-1-3-1-6 2-7 2-1 5-1 7 2 0 0 10 16-10 35l-4 2zM873 401l-3-2c-19-21-7-36-7-37 2-2 5-2 7 0 2 1 3 4 1 6 0 1-6 10 6 24a5 5 0 0 1-4 9zM927 2024l-9-2c-23-6-33-29-37-48-4 11-10 22-18 26-4 1-9 2-16-1-26-15-20-70-19-72 0-3 3-5 5-4 3 0 5 2 5 5-2 14-3 52 14 62 3 2 5 1 7 1 9-5 16-30 19-44 0-3 3-5 5-4 3 0 5 2 5 5 0 0 0 56 33 65 6 1 11 1 14-2 11-9 10-37 9-46a5 5 0 0 1 10-2s16 52 52 50c35-3 45-62 45-63 0-2 2-4 5-4 2 0 4 1 5 3 6 18 21 49 31 54h2c10-4 18-37 20-59 1-3 3-5 6-5 3 1 5 3 4 6-1 10-8 60-26 67h-10c-12-5-24-29-31-45-6 20-20 53-51 56-25 2-42-18-52-35-1 11-4 23-12 30-5 4-10 6-15 6z"/>
</svg>
