<svg xmlns="http://www.w3.org/2000/svg" xml:space="preserve" viewBox="0 0 2100 2000">
  <path fill="#ead9ba" d="M489 393s525-59 613 60c265 360 58 484 170 537 209 99 276-9 467 98 195 111 160 405-10 560S572 1770 384 1478C153 1121 291 429 489 393Z"/>
  <path fill="#bb5a44" d="M695 998s55 75 164 47c110-29-95-146-95-146s-4 76-69 99z"/>
  <path fill="#ead9ba" d="M336 1315s-202 201-270 180c-67-22-3 156 107 160 111 4 342-128 321-164-22-35-158-176-158-176zM759 1584s-33 159-141 206c-55 25-112 96-41 114s164 79 242 40 189-246 157-289c-32-42-217-71-217-71zM1577 1652s211 53 253 178c43 124 175-71 132-143-43-71-117-178-199-188-82-11-186 153-186 153zM1703 1386s193-6 260 90c68 96 132-104 78-154-54-51-144-124-217-113s-121 177-121 177z"/>
  <path fill="#d07f23" d="M1780 1143s79-68 93-168c14-99 103 111 0 257s-93-89-93-89zM655 380s96 577-390 550c0 0-46-657 390-550z"/>
  <path fill="#d07f23" d="M575 427S489 47 425 43c-63-3-166 94-160 270 7 177 114 254 154 254s156-140 156-140z"/>
  <path fill="#d6a3a2" d="M472 383s-53-190-80-186c-27 3-97 123-10 243 0 0 30-47 90-57z"/>
  <path fill="#212438" d="M943 746c8 40-32 73-72 53-8-4-14-10-18-18a49 49 0 0 1 53-72c18 4 33 19 37 37z"/>
  <path fill="#d07f23" d="M945 447s110-414 170-380c60 33 147 163 144 316-4 154-200 190-230 164-30-27-84-100-84-100Z"/>
  <path fill="#d07f23" d="M782 380s-59 237-17 357c43 120 210 53 250 163s217 57 217 57 60-234-40-424-410-153-410-153Z"/>
  <circle cx="495.4" cy="730.1" r="38.2" fill="#212438"/>
  <circle cx="869.8" cy="733.8" r="38.2" fill="#212438"/>
  <path fill="#261d2a" d="m447 1253-4-1c-29-5-58-62-73-95-1 18-5 39-16 47-3 2-9 4-17 1-15-7-89-48-70-202 0-3 3-5 6-5 2 1 4 3 4 6-18 147 50 185 64 191 4 2 6 1 8 0 10-6 12-41 11-61a5 5 0 0 1 10-2c11 29 47 106 75 111l6-1c5-6 1-27-1-40-2-16-4-24 2-27 6-2 11 3 16 8 35 41 52 43 58 40 13-5 15-36 14-46 0-3 2-5 5-5 3-1 5 2 5 4 0 5 2 48-20 57-16 6-39-8-70-43l-2-2 2 12c3 19 7 40-2 49-2 2-6 4-11 4z"/>
  <path fill="#212438" d="M609 773s111-44 144-2c33 41-55 114-81 110-25-4-92-85-63-108z"/>
  <path fill="#261d2a" d="M684 1006c-11 0-23-4-34-12-81-56-78-136-78-139s2-5 5-5 5 2 5 5c0 1-3 78 73 131 15 10 29 13 43 8 44-17 68-114 68-115 1-3 3-5 6-4s4 3 4 6c-1 4-25 103-75 122-5 2-11 3-17 3z"/>
  <path fill="#261d2a" d="M674 1004c-3 0-5-2-5-4l-6-119c0-3 2-5 5-5 3-1 5 2 5 4l6 119c0 3-2 5-5 5z"/>
  <path fill="#d6a3a2" d="M1009 410s86-227 116-190 77 143-10 243c0 0-76-53-106-53z"/>
  <path fill="#d07f23" d="M1825 1523s-135 8-233-60c-173-120-48 25-340-53-200-53-60-427-7-427 54 0 20 47 280 27a331 331 0 0 1 300 513z"/>
  <path fill="#261d2a" d="m872 835-3-1c-76-65-157-86-239-62-61 17-101 55-101 55a5 5 0 1 1-7-7c2-2 165-155 353 6a5 5 0 0 1-3 9zM1099 1208c-3 0-5 0-8-2-15-9-11-49-11-57a5 5 0 0 1 10 1c-2 17-1 43 7 48 2 1 7-1 10-3 31-22 53-90 53-90 1-3 3-4 5-4 3 0 4 2 5 4 3 30 11 57 17 58 0 0 4-1 9-11 23-48-3-94-3-94a5 5 0 0 1 8-6c15 17 36 33 42 30 1 0 7-5-1-37-17-71-31-77-32-78a5 5 0 0 1-4-9c1 0 4-2 8 0 13 6 25 35 38 85 6 28 5 43-4 48-10 5-25-5-37-15 5 19 9 49-6 80-3 5-10 19-20 17-12-2-19-26-22-46-9 23-27 60-50 76-5 3-10 5-14 5zM820 1001h-1c-3-1-71-17-83-46a5 5 0 1 1 9-4c9 21 58 36 76 40a5 5 0 0 1-1 10zM466 618h-2c-2-1-3-4-2-7 0-1 14-31 35-33 13-1 25 8 36 25a5 5 0 0 1-8 6c-9-15-18-21-27-21-13 1-24 20-27 27-1 2-3 3-5 3zM861 618h-2c-2-1-3-4-2-7 2-4 22-44 47-44h1c13 1 25 12 33 35a5 5 0 1 1-9 3c-5-12-13-27-24-28-16 0-34 28-39 39l-5 2zM132 1547l-4-1c-31-35-71-8-72-6a5 5 0 1 1-6-9s49-33 86 8a5 5 0 0 1-4 8zM155 1612l-3-2c-14-16-29-24-44-25-21-1-36 12-36 12a5 5 0 0 1-7-7c1-1 19-17 44-15 18 1 35 10 50 28a5 5 0 0 1-4 9zM577 1909h-2c-3-2-4-5-3-7 11-22 69-45 75-47a5 5 0 0 1 4 9c-17 7-62 27-70 42-1 2-2 3-4 3zM635 1937l-3-1c-2-2-2-5-1-7 29-40 71-43 73-44 2 0 5 2 5 5s-2 5-4 5c-1 0-40 4-66 40l-4 2zM788 1668c-174 0-280-63-338-116-63-58-85-115-85-117a5 5 0 0 1 9-3c1 2 87 226 414 226a5 5 0 1 1 0 10zM1910 1854l-3-1c-18-11-31-61-33-67a5 5 0 0 1 10-3c5 20 17 55 28 61a5 5 0 0 1-2 10zM1543 1698c-52 0-89-13-113-38-44-49-19-124-18-127a5 5 0 1 1 9 3c0 1-24 73 17 117 36 40 111 46 224 19a5 5 0 1 1 2 9c-46 12-86 17-121 17zM1937 1827l-4-1c-25-22-25-76-25-79a5 5 0 0 1 10 0c0 1 0 52 22 71a5 5 0 0 1-3 9zM2034 1464c-36 0-50-35-53-53a5 5 0 0 1 10-1c0 2 6 44 43 44a5 5 0 0 1 0 10zM2046 1440h-1c-26-6-35-33-37-47 0-3 2-5 5-5 2-1 5 1 5 4 0 2 3 33 29 38a5 5 0 0 1-1 10zM418 401c-6 0-11-7-19-16-7-9-16-21-23-21a5 5 0 0 1 0-10c12 0 22 13 31 25l11 12v-5c4-32-22-67-22-68a5 5 0 0 1 8-6c1 2 28 39 24 75 0 6-2 12-7 14h-3zM1072 432h-1c-4-1-7-3-9-6-10-17 5-68 8-78a5 5 0 1 1 10 3c-7 21-15 59-9 69l37-46a5 5 0 0 1 8 6l-40 50-4 2zM1615 1065l-4-2c-11-17-32-10-32-10a5 5 0 1 1-4-9c10-4 32-5 45 13a5 5 0 0 1-5 8zM1635 1103c-1 0-3 0-4-2-11-16-32-10-32-10a5 5 0 0 1-4-9c10-3 32-5 45 14a5 5 0 0 1-5 7zM1674 1097c-2 0-4-1-5-3-5-20-27-20-28-20a5 5 0 0 1 0-10c11 0 32 6 38 27a5 5 0 0 1-5 6zM1572 1088c-2 0-3 0-4-2-11-16-32-10-33-10a5 5 0 1 1-3-9c10-3 32-5 44 14a5 5 0 0 1-4 7zM1543 1048l-3-1c-15-13-33-2-34-1-2 1-6 1-7-2-2-2-1-5 1-6 9-6 30-13 46 2a5 5 0 0 1-3 8zM1506 1075l-3-1c-15-13-33-2-34-1-2 1-5 0-7-2-1-2-1-5 2-7 8-6 29-12 46 2a5 5 0 0 1-4 9zM1471 1053l-3-1c-15-13-33-2-34-1-2 1-5 1-7-2-1-2-1-5 2-6 8-6 29-13 46 2a5 5 0 0 1-4 8zM1200 740h-3c-2-2-3-5-1-7 10-17-5-34-5-34a5 5 0 1 1 7-7c7 8 18 27 6 46l-4 2zM1182 674l-3-1c-2-2-3-5-2-7 11-17-4-33-5-34-2-2-1-5 1-7s5-2 7 0c7 8 17 27 6 46l-4 3zM313 726c-2 0-4-1-4-3-4-10-6-32 12-45 3-1 6-1 7 2 2 2 1 5-1 7-16 11-9 31-9 32a5 5 0 0 1-5 7zM320 778c-2 0-4-2-5-4-3-10-5-31 13-44a5 5 0 1 1 6 8c-17 12-9 33-9 33a5 5 0 0 1-5 7zM291 878l-4-2c-6-9-12-30 2-46 2-2 5-2 7-1 2 2 3 5 1 8-14 14-2 33-2 33a5 5 0 0 1-4 8zM288 804c-2 0-4-1-4-3-4-10-6-32 12-44a5 5 0 1 1 6 8c-16 11-9 32-9 33a5 5 0 0 1-5 6zM315 841c-2 0-4-1-5-3-3-10-5-32 13-45a5 5 0 1 1 6 9c-17 11-9 32-9 32a5 5 0 0 1-5 7zM1182 782l-3-1c-2-1-3-4-2-7 11-17-5-33-5-33a5 5 0 1 1 8-7c7 7 17 27 6 46l-4 2zM1205 812l-3-1c-2-2-3-5-1-7 13-15 1-34 1-34a5 5 0 0 1 8-6c6 9 13 30-1 46l-4 2z"/>
  <path fill="#261d2a" d="M569 1578h-1c-10-2-31-10-34-32 0-3 2-5 5-5 2-1 5 1 5 4 3 19 24 23 25 23 3 0 5 3 5 5-1 3-3 5-5 5zM549 1529h-1c-10-2-30-10-33-32a5 5 0 1 1 10-1c2 19 24 22 25 23 2 0 4 3 4 5 0 3-3 5-5 5zM499 1485h-1c-10-1-30-9-33-31-1-3 1-5 4-6 2 0 5 2 5 5 3 19 25 22 26 23 2 0 4 2 4 5-1 3-3 4-5 4zM610 1552h-1c-10-2-31-10-34-32a5 5 0 1 1 10-1c3 20 24 23 25 23 3 0 5 3 4 6 0 2-2 4-4 4zM624 1596c-12 0-29-5-37-23a5 5 0 0 1 10-3c7 18 30 16 30 15 3 0 5 2 5 5 1 3-1 5-4 5l-4 1zM509 1538h-1c-10-1-31-9-34-31 0-3 2-5 5-6 2 0 5 2 5 4 3 20 25 23 25 23 3 1 5 3 5 6-1 3-3 4-5 4zM1324 1720c-10 0-21-3-29-13a5 5 0 1 1 8-6c12 15 33 7 33 7 3-1 6 0 7 3 1 2-1 5-3 6-4 2-10 3-16 3zM1282 1687c-10 0-21-3-29-13a5 5 0 1 1 8-6c12 15 33 7 33 7a5 5 0 0 1 4 9c-4 2-9 3-16 3zM1217 1675c-10 0-21-3-29-13a5 5 0 1 1 8-7c12 16 33 8 34 8a5 5 0 0 1 3 9c-4 2-9 3-16 3zM1346 1677c-10 0-21-3-29-13a5 5 0 1 1 8-6c13 15 33 7 34 7a5 5 0 0 1 3 9c-4 2-9 3-16 3zM1376 1711c-7 0-15-2-21-7a5 5 0 1 1 6-8c15 12 33-1 34-2a5 5 0 0 1 6 8c-5 4-15 9-25 9zM1252 1716c-10 0-21-3-29-13a5 5 0 1 1 8-7c13 16 33 8 34 8 2-1 5 0 6 2 1 3 0 6-3 7-4 2-9 3-16 3zM1163 715h-2c-3-2-3-5-2-7 10-17-4-33-5-34-2-2-2-5 0-7s5-2 7 0c7 8 18 27 7 46l-5 2z"/>
  <path fill="#fcfdff" d="m737 797-4-2c-5-7-10-10-16-11-12-1-24 9-24 9-2 2-5 2-7 0s-2-6 0-7c1-1 15-14 32-12 9 1 17 6 23 15a5 5 0 0 1-4 8z"/>
</svg>
