<svg xmlns="http://www.w3.org/2000/svg" xml:space="preserve" viewBox="0 0 2200 2100">
  <path fill="#b6b7a9" d="M1766 1502s130-1378-605-1279C355 332 404 1423 320 1479c-84 55-337 146-297 192 36 42 400-29 400-29s1118-5 1179 20c60 25 470 122 417 67-54-55-253-227-253-227z"/>
  <path fill="#b6b7a9" d="M1354 1504s126 363-248 489c-373 126 146-148 41-513zM618 1490s-7 432 17 499c25 67-208-34-212-347-4-314 195-152 195-152z"/>
  <g transform="matrix(-10 0 0 10 2419 -365)">
    <circle cx="161.3" cy="227.5" r="15" fill="#ca7a8c"/>
    <path fill="#261d2a" d="M175 231c-6-6-11-16-11-16h1s5 10 11 15a1 1 0 0 1-1 1zM175 234h-1c-9-5-15-20-15-21 1 0 7 15 16 20v1zM170 238c-13-5-17-21-17-21a1 1 0 0 1 1 0s4 16 16 21z"/>
    <path fill="#261d2a" d="M149 235v-1l9-5h1a33 33 0 0 1-10 6zM147 230v-1c3 0 9-5 9-5h1v1a40 40 0 0 1-10 5zM146 225v-1a139 139 0 0 0 9-4v1l-8 3-1 1z"/>
    <path fill="#261d2a" d="M161 235c-5 0-7-2-7-2a1 1 0 0 1 0-1c1 0 3 3 10 2v1h-3zM160 239c-5 0-8-2-9-3l-1-1v-1l1 1c2 1 7 5 15 2v1l-6 1zM169 223v-1l4-3 1 1-4 3h-1zM172 226l-1-1 4-3 1 1a63 63 0 0 0-4 3zM167 220v-1s-1 0 0 0l4-3a1 1 0 0 1 1 1 22 22 0 0 0-5 3zM173 237c-14-8-17-23-17-23a1 1 0 0 1 1-1c0 1 3 16 16 23a1 1 0 0 1 0 1z"/>
  </g>
  <path fill="#b6b7a9" d="M1698 1005s440 76 320-203c-70-163-527-451-445-613 150-294 438-73 428-14-10 60-269-3-261 54 19 134 507 428 435 703-73 275-452 258-452 258z"/>
  <path fill="#261d2a" d="M1005 2019c3 0 5-2 5-4 3-27 5-49 47-85a5 5 0 1 0-6-8c-46 39-48 64-51 92 0 2 2 5 5 5zM1029 2019c2 0 4-1 5-3 18-36 79-56 80-56a5 5 0 1 0-3-9c-3 0-66 20-86 61a5 5 0 0 0 4 7zM597 1995c2 0 4-2 4-4 8-34-42-97-45-100-1-2-4-2-7-1-2 2-2 5 0 7 14 18 48 67 43 92a5 5 0 0 0 5 6zM626 2012c3 0 5-2 5-5 0-37-31-111-32-115a5 5 0 1 0-9 4c0 1 31 76 31 111 0 3 2 5 5 5zM1991 1750h1c2-1 4-3 3-6-5-21-85-46-101-50a5 5 0 0 0-3 9c44 13 92 33 95 43 0 3 2 4 5 4zM2005 1740h1c3 0 5-3 4-6-5-25-79-73-88-79a5 5 0 1 0-5 9c30 19 80 56 83 72 1 3 3 4 5 4zM56 1682l3-1c16-12 78-29 79-29a5 5 0 1 0-2-10c-3 1-65 18-83 31a5 5 0 0 0 3 9zM23 1676c2 0 5-1 5-4 4-25 67-42 90-47a5 5 0 0 0-2-10c-9 2-92 18-98 55a5 5 0 0 0 5 6zM1362 1745c2 0 4-1 5-3 24-91 3-220 2-225 0-3-3-5-5-4-3 0-5 3-4 5 0 2 21 133-3 221a5 5 0 0 0 5 6zM430 1735h1c3 0 5-3 4-6-14-74-2-166-2-167a5 5 0 0 0-10-1c0 1-12 95 2 170 1 3 3 4 5 4z"/>
  <path fill="#f6f7e2" d="M813 1714c311-3 673-280 670-323s-121-337-121-337l-15-261c-1-33-281 180-292 189s-401 15-410 17c-10 3-123-133-123-133s-92 174-101 180c-9 5-154 268-158 295-4 28 144 376 550 373z"/>
  <path fill="#b6b7a9" d="M827 984s-11 242-82 335c-182 238-383-106-486 16 0 0 2-252 210-536l147 170zM912 985s-33 393 61 439 408-215 513-28c0 0-36-210-71-318-64-196-50-337-76-318l-261 196z"/>
  <path fill="#261d2a" d="m818 1548 8-1c47-14 66-126 67-131a5 5 0 0 0-10-2c-5 31-26 113-60 123-32 10-74-63-88-92a5 5 0 0 0-9 4c2 4 47 99 92 99z"/>
  <path fill="#261d2a" d="M825 1547c3 0 5-3 5-6l-21-167c0-3-3-5-6-5-2 1-4 3-4 6l21 168c0 2 2 4 5 4z"/>
  <path fill="#ca7a8c" d="M753 1345s41 31 48 29c6-2 47-38 47-38s-58-21-95 9z"/>
  <path fill="#261d2a" d="M1006 1368h1c3 0 4-2 4-5-11-92 124-117 126-117a5 5 0 1 0-2-10c-1 0-146 27-134 128 1 2 3 4 5 4zM638 1362h1c3-1 4-4 3-6-18-66-44-103-77-112-39-10-72 23-74 24a5 5 0 0 0 8 7s30-30 63-21c30 7 54 43 71 104 0 2 2 4 5 4z"/>
  <path fill="#f6f7e2" d="M1195 941s109-119 110-107c2 12 10 115 9 125s-119-18-119-18z"/>
  <path fill="#261d2a" d="M1496 1387c3 0 5-2 5-5 0-37-110-329-117-347-10-82-37-271-63-275-16-2-78 46-201 148-37 31-70 58-78 63-19 12-250 12-402 9-158-191-169-187-173-185-15 5-107 154-122 193a5 5 0 1 0 9 4c16-40 100-174 116-187a2035 2035 0 0 1 168 185c39 1 381 7 409-10 9-6 40-31 79-64 62-51 176-146 193-146 14 6 39 140 55 266v1c41 107 117 316 117 345 0 3 2 5 5 5z"/>
  <path fill="#f6f7e2" d="M548 979s-55-123-72-106c-18 17-45 118-33 116l105-10z"/>
  <path fill="#261d2a" d="M488 1469a5 5 0 0 0 1-9l-266-100a5 5 0 0 0-4 9l267 100h2zM474 1496a5 5 0 0 0 1-10l-305-54c-2-1-5 1-5 4-1 2 1 5 4 5l304 55h1zM216 1573h1l256-42a5 5 0 0 0-2-10l-256 42a5 5 0 0 0 1 10zM1079 1495l2-1 307-133a5 5 0 0 0-4-10l-307 134a5 5 0 0 0 2 10zM1095 1519h1l345-75a5 5 0 0 0-2-9l-345 75a5 5 0 0 0 1 9zM1431 1565a5 5 0 0 0 0-10l-332-21c-3-1-5 2-5 4 0 3 2 5 5 6l331 21h1zM1376 1142c3 0 5-1 5-4 3-16-11-32-11-33a5 5 0 0 0-8 6s12 14 9 26a5 5 0 0 0 5 5zM1359 1183c2 0 4-1 5-4 3-16-11-33-12-33-2-2-5-3-7-1s-2 5 0 7c0 0 11 14 9 25a5 5 0 0 0 5 6zM325 1155c2 0 4-1 5-4 0 0 2-17 12-24a5 5 0 1 0-5-8c-14 9-17 30-17 31a5 5 0 0 0 5 5zM337 1190c2 0 4-2 5-4 0-1 2-18 12-24a5 5 0 1 0-5-9c-14 9-17 30-17 31a5 5 0 0 0 5 6zM300 1208c2 0 4-2 5-4 0 0 2-18 12-24a5 5 0 1 0-5-8c-14 8-17 30-17 31a5 5 0 0 0 5 5zM323 1246c3 0 5-2 5-4 0 0 3-18 13-24a5 5 0 1 0-6-8c-14 8-17 30-17 31a5 5 0 0 0 5 5zM289 1269c2 0 4-1 5-4 0 0 2-17 12-24a5 5 0 1 0-5-8c-14 9-17 30-17 31a5 5 0 0 0 5 5zM1398 1205c2 0 4-2 5-4 3-17-11-33-12-34a5 5 0 1 0-7 7s11 13 9 25a5 5 0 0 0 5 6zM1379 1238c3 0 5-1 5-4 3-16-11-33-12-33-1-2-4-3-7-1-2 2-2 5 0 7 0 0 11 14 9 26a5 5 0 0 0 5 5zM1410 1257c3 0 5-1 5-4 3-16-11-33-11-33a5 5 0 1 0-8 6s12 14 9 25a5 5 0 0 0 5 6z"/>
  <path fill="#8c8e83" d="M668 673s293-185 582 89c0 0-82-197-177-240-180-82-405 151-405 151Z"/>
  <path fill="#8c8e83" d="M736 498s235-162 411-142 288 313 264 303c-25-9-181-181-289-210-107-29-386 49-386 49zM1712 469s61-118 76-123c14-5-88-32-132 69 0 0 39 54 56 54zM1729 483s76-71 115-73c39-3-46 94-53 138 0 0-67-53-62-65zM1802 554s96-68 110-71c15-2-40 131-47 133-7 3-48-42-63-62zM1889 1173s-4-132 14-132c17 0 90 89 79 103-16 20-93 29-93 29zM2017 1124s-36-108-24-110c12-3 105 47 92 65-15 20-68 45-68 45zM2120 1043s-95-68-76-73c20-5 119-5 114 4-5 10-18 57-38 69zM1152 862s-79-171-211-195c-241-45-357 161-364 171s179-93 315-88c90 3 284 137 260 112z"/>
  <path fill="#261d2a" d="M1697 805c2 0 4-1 4-3 7-28-9-44-9-44a5 5 0 0 0-7 7s12 13 7 34a5 5 0 0 0 5 6zM1680 731c2 0 4-1 5-3 7-28-9-44-10-44-2-2-5-2-7 0s-2 5 0 7c0 0 12 13 7 34a5 5 0 0 0 5 6zM1644 717c3 0 5-2 5-4 7-27-9-43-10-44a5 5 0 0 0-7 7c1 1 13 13 7 35a5 5 0 0 0 5 6zM1660 668c3 0 5-3 5-5-1-28-21-39-22-40a5 5 0 0 0-4 9s15 9 16 31c0 3 2 5 5 5zM1101 284a5 5 0 0 0 3-9c-25-13-45-1-45-1a5 5 0 0 0 5 9c1-1 15-9 35 1h2zM986 302l4-1c0-1 13-13 34-8a5 5 0 0 0 2-10c-27-6-43 10-43 11a5 5 0 0 0 3 8zM1158 309a5 5 0 0 0 2-10c-25-13-44-1-45 0a5 5 0 0 0 5 8c1 0 16-9 35 1l3 1zM1180 262a5 5 0 0 0 2-9c-25-13-44-1-45-1-2 2-3 5-2 7 2 3 5 3 7 2 1-1 16-9 35 1h3zM1209 287a5 5 0 0 0 2-10c-25-13-44-1-45 0a5 5 0 0 0 6 8s15-9 35 1l2 1zM1067 316a5 5 0 0 0 2-9c-24-13-44-1-45-1a5 5 0 0 0 6 9c0-1 15-10 35 0l2 1zM1653 785c2 0 4-2 5-4 6-27-10-43-10-44a5 5 0 0 0-7 7c0 1 12 13 7 35a5 5 0 0 0 5 6zM1678 853c2 0 4-2 5-4 6-27-9-43-10-44a5 5 0 0 0-7 7c0 1 12 13 7 34a5 5 0 0 0 5 7zM1703 892c2 0 4-1 4-3 13-25 0-44 0-45a5 5 0 0 0-8 6c0 1 9 15-1 35a5 5 0 0 0 5 7zM1240 961h1c9-2 39-36 51-50a5 5 0 0 0-7-7l-41 43c2-10 9-30 15-48a5 5 0 0 0-9-3c-21 56-17 61-15 63l5 2zM498 993l6-2c8-10-4-52-12-77a5 5 0 0 0-9 3c8 27 15 58 14 66-7-4-19-29-27-57a5 5 0 0 0-10 3c6 19 21 62 37 64h1zM1657 126c2 0 4-1 5-3 4-17 26-15 26-15 3 0 5-2 6-5 0-2-2-5-5-5-10-1-32 2-37 22a5 5 0 0 0 5 6zM1643 177h1c3 0 5-3 4-6-4-17 16-24 17-25a5 5 0 0 0-3-9c-10 4-28 16-24 36 1 3 3 4 5 4zM1714 96c2 0 4-1 5-4 4-16 26-14 26-14 3 0 5-2 5-5 1-3-1-5-4-5-11-1-32 2-37 22a5 5 0 0 0 5 6zM1710 138c2 0 4-1 5-4 4-16 26-14 26-14a5 5 0 0 0 1-10c-11-1-32 2-37 22a5 5 0 0 0 5 6zM1755 99l4-2c10-14 30-5 30-4a5 5 0 1 0 4-9c-9-5-30-10-42 7a5 5 0 0 0 4 8z"/>
</svg>
