<svg xmlns="http://www.w3.org/2000/svg" xml:space="preserve" viewBox="0 0 1500 1700">
  <path fill="#ead9ba" d="M682 413s299 76 359 266c61 190 16 271-11 268-26-4-31-65-31-65s-7 147-63 159c-55 13-48-40-48-40s-9 117-168 144c-330 57-389-108-389-108s-31 50-56 48c-60-6-47-153-47-153s-28 79-62 34 9-184 9-184-32 60-59 15c-28-44 136-485 566-384Z"/>
  <path fill="#ead9ba" d="M248 624S94 630 69 444C43 258-21 33 36 39c58 7 360 97 424 232 64 134 7 179 39 218 32 38-251 135-251 135zM998 681s154 7 179-179c26-186 90-411 33-405-58 7-360 97-424 231-64 135-7 180-39 219-32 38 251 134 251 134zM762 833s0 92 117 141c117 50 358 13 444 87s185 302 160 425-493 135-659 135-511 62-628 31 148-105 191-142-13-74-80-67c-68 6-191 24-259-25s191-68 265-117-25-228 12-376 370-135 437-92Z"/>
  <path fill="#261d2a" d="m1226 1586-54-3c-78-8-136-34-167-76-32-42-29-108 8-196 28-64 65-117 66-118a5 5 0 1 1 8 6c-2 2-145 208-74 302 71 95 264 72 266 72 3 0 5 2 6 4 0 3-2 6-5 6 0 0-22 3-54 3zM531 811s63-18 81 3c19 21-30 79-49 69-18-9-59-69-32-72zM525 1130c-6 0-11-2-16-5-16-12-24-40-28-58-12 19-32 32-33 33-11 6-20 7-28 2-18-10-24-45-26-72-7 18-18 38-32 43-9 2-17-1-25-9-30-30-19-84-12-108-9 4-21 7-29 1-10-8-7-30 9-68 45-103 146-69 147-69a5 5 0 0 1-4 9c-3-1-92-30-133 64-20 45-14 55-12 56 5 4 19-3 28-8a5 5 0 0 1 7 5c0 1-28 77 6 111 8 8 13 7 15 6 15-4 29-43 34-66 0-3 2-4 5-4s5 3 5 5c-1 23 2 84 22 95 5 3 10 2 18-2 0 0 30-20 35-42 0-3 2-5 5-4 2 0 4 2 5 4 0 1 6 53 27 68 4 3 9 4 14 3 8-2 14-6 17-11 9-15 2-38 2-38a5 5 0 0 1 9-3c1 1 9 27-2 46-5 8-13 13-24 16h-6zM688 1119c-6 0-12-1-17-4-22-12-30-43-31-44 0-3 1-5 4-6 2-1 5 1 6 3 0 1 8 28 26 38 7 4 14 4 22 1 26-8 32-58 33-88v-14c0-2 2-4 5-4s5 2 5 4v14c1 17 4 43 16 52 4 4 9 4 14 3 36-9 40-75 40-75 0-3 2-5 5-5s5 2 5 5c1 11 5 29 12 32 2 1 6 0 10-3 8-6 14-23 15-45 3-38-7-89-36-117-43-44-110-13-111-13a5 5 0 0 1-4-9c1 0 74-34 122 15 31 31 42 85 39 125-1 25-8 44-19 52-9 7-16 6-21 4s-9-8-11-14c-5 22-17 51-43 58-9 2-17 0-24-5-6-5-10-12-13-21-4 25-14 52-35 59l-14 2z"/>
  <circle cx="430.1" cy="764.7" r="40.4" fill="#261d2a"/>
  <circle cx="723.4" cy="771.3" r="40.4" fill="#261d2a"/>
  <path fill="#261d2a" d="m567 973-8-1c-27-10-50-73-53-81a5 5 0 1 1 10-3c6 18 27 67 47 74 3 2 6 2 9 0 28-16 54-83 54-84 1-3 4-4 7-3 2 1 4 4 3 6-2 3-28 72-59 90l-10 2z"/>
  <path fill="#261d2a" d="M574 971c-2 0-5-2-5-5l-1-82c0-3 2-5 4-5 3 0 6 2 6 5l1 82c0 3-2 5-5 5zM258 680c-6 0-11-1-16-4-3-3-8-9-7-20 2-20 23-27 42-29-4-3-7-6-8-11-3-11 4-23 23-36 14-10 27-16 39-17-6-8-9-16-7-23 2-9 13-15 33-16 75-5 108 47 110 50a5 5 0 0 1-9 5c-1-2-32-50-100-45-14 1-23 4-24 9-2 5 3 13 11 21h1c20 6 28 25 29 25a5 5 0 0 1-8 6c-4-2-16-11-27-22-12-2-26 3-42 15-19 14-21 22-20 25 2 8 20 12 28 13 2 1 4 3 4 6s-2 4-5 4c-1 0-58-4-60 21-1 8 2 10 3 11 7 5 23 1 28-1 2-1 5 0 6 3 1 2 0 5-3 6-1 1-11 4-21 4zM937 747c-12 0-27-12-30-14a5 5 0 0 1 6-8c10 8 22 14 26 12 2-1 4-7 1-20-6-31-30-42-45-46l-14-2a5 5 0 0 1 2-10l12 2c13 1 25 1 27-3 1-1 0-6-6-14-28-34-80-25-80-25-2 0-5-1-6-4 0-2 1-5 3-6 4-2 16-10 15-17 0-4-4-12-30-21-23-8-41-9-51-2-9 6-9 15-9 15-1 3-3 5-6 5-2 0-5-3-4-5 0-1 1-15 13-23 14-9 34-9 61 1 24 8 36 18 36 29 1 7-2 12-6 17 20 0 51 4 72 30 3 4 13 16 7 26-2 3-7 6-12 7 13 8 26 21 31 44 3 16 1 26-6 30-2 2-4 2-7 2z"/>
  <path fill="#feffff" d="M870 447s5-80 80-122c75-43 103-80 123-48 20 33-25 215-80 233-55 17-123-63-123-63z"/>
  <path fill="#261d2a" d="M930 479h-4c-5-3-6-9-6-11-3-30 51-75 57-80a5 5 0 0 1 6 8c-15 13-55 50-53 71v2l14-10c14-12 35-29 57-24 3 0 5 3 4 6-1 2-3 4-6 4-17-4-36 11-49 22-9 7-15 12-20 12z"/>
  <path fill="#feffff" d="M368 432s10-77-25-112-125-88-145-75c-20 12-25 147 0 177s57 58 80 68c22 10 90-58 90-58z"/>
  <path fill="#261d2a" d="m307 455-4-1c-11-5-54-48-59-53a5 5 0 0 1 7-7c18 17 47 45 55 51 2-2 4-6 5-14 0-8 0-35-29-57a5 5 0 1 1 6-8c38 29 36 69 28 83-3 4-7 6-9 6zM695 475a5 5 0 0 1-1-10c5-2 18-7 20-16 1-4-1-10-7-16-5-4-10-6-16-6-19 1-44 26-52 36a5 5 0 0 1-8-5c0-1 8-18 2-31-2-6-6-10-12-13-4-1-8-1-11 1-14 7-23 41-25 53a5 5 0 0 1-10 1c-4-13-18-45-35-47l-6 1c-1 3 3 14 10 24a5 5 0 0 1-8 6c-4-6-16-25-10-35 1-3 5-7 15-6 18 2 31 23 38 39 4-16 13-38 26-45 6-3 13-4 20-1 8 4 15 10 18 18 2 6 3 13 2 19 12-11 29-24 46-25 9 0 16 3 23 9 8 9 12 18 10 26-4 15-25 22-28 22l-1 1zM528 1552c-7 0-14-1-20-4-22-10-37-32-45-50-2 10-5 20-13 24-10 5-23 0-41-16-34-31-41-71-42-98-4 6-9 11-15 11-6 1-12-3-16-12-19-34 1-99 2-101 1-3 3-4 6-4 3 1 4 4 3 7 0 0-19 63-3 93 3 5 6 8 7 7 6 0 15-18 19-33 1-3 4-4 6-4 3 1 5 4 4 6 0 1-16 73 36 120 18 17 26 17 29 15 9-5 9-29 8-40a5 5 0 0 1 9-2c1 0 16 53 50 68 12 5 26 4 41-4a5 5 0 0 1 4 9c-10 5-20 8-29 8zM150 1415l-2-1s-55-19-86-2c-2 1-5 0-6-2-2-3-1-6 2-7 34-19 91 1 94 2a5 5 0 0 1-2 10zM70 1437a5 5 0 0 1-1-10c33-10 70-5 72-5a5 5 0 0 1-2 10 186 186 0 0 0-69 5zM188 1650a5 5 0 0 1-3-10c26-15 82-20 85-20a5 5 0 0 1 1 10 259 259 0 0 0-83 20zM183 1630a5 5 0 0 1-3-9c31-24 88-24 90-24a5 5 0 0 1 0 10s-56 0-84 22l-3 1zM1186 1383c-7 0-13-2-19-6-15-9-24-29-30-45-2 12-6 23-14 26-8 2-15-7-17-10-24-35-6-72-5-73a5 5 0 1 1 9 4c-1 2-16 33 4 63 4 6 6 6 7 6 3-1 8-20 9-43a5 5 0 0 1 10-1s9 50 32 65c6 4 13 5 19 3 39-9 47-92 47-93 0-2 2-4 4-4 3-1 5 1 6 4 2 17 11 45 23 48 6 2 15-4 22-13 10-14 14-37-2-62a5 5 0 1 1 8-5c19 29 14 57 2 73-9 13-22 20-32 17-13-3-20-18-25-32-6 28-20 70-50 77l-8 1zM854 1305c-3 0-7-1-10-3-14-7-24-31-29-49-5 13-13 28-28 34-5 2-11 2-16-1-8-4-14-13-19-23-1 15-3 29-11 36-3 2-7 5-15 3-42-12-53-57-53-59a5 5 0 0 1 9-2c1 0 10 41 47 51 3 1 5 0 6-1 9-7 8-41 5-61a5 5 0 0 1 10-2c3 12 12 42 25 49 3 1 5 2 8 1 22-9 27-46 27-46 0-3 2-5 5-5 2 0 5 2 5 4 3 15 13 55 29 62 3 2 7 2 11 0 24-13 14-48 9-60l-1-4c-1-3 0-6 3-7 2 0 5 1 6 3l2 4c2 5 6 11 12 14s13 2 22-3c4-2 7-6 8-11 6-20-13-59-20-72-2-2-1-5 2-7 2-1 5 0 6 2 2 2 30 51 22 80-2 8-7 13-14 17-11 6-21 7-29 3l-4-1c3 17 1 40-19 51l-11 3zM398 1293c-4 0-7-2-9-4-11-10-8-44-5-66-10 11-24 24-34 23-4 0-7-3-9-6-11-20 14-74 17-80 1-2 4-4 7-2 2 1 3 4 2 6-10 22-24 60-18 71l2 1c7 0 25-18 38-34 1-2 4-3 6-2s3 3 2 6c-5 27-10 68-1 76 0 0 2 2 5 0 27-9 37-58 37-58 0-3 2-4 4-4 3-1 5 1 5 3 0 1 12 41 35 39 5 0 8-2 11-5 6-9 4-25 2-31a5 5 0 0 1 10-3c0 1 6 25-4 39-4 6-10 9-18 10-20 2-33-17-40-31-5 17-17 44-39 51l-6 1zM1204 1141c-16 0-34-14-44-23-1 7-5 15-14 21-4 2-8 2-11 1-13-7-16-44-17-55a5 5 0 1 1 10-1c2 21 6 44 12 47l1-1c13-7 8-23 8-24a5 5 0 0 1 8-5c8 9 31 30 47 30 4 0 7-1 9-3 4-4 6-9 6-14 0-11-12-22-12-22a5 5 0 0 1 5-9c16 8 41 16 48 12 1-1 2-1 2-4 0-20-24-32-24-32a5 5 0 0 1 4-9c2 1 30 15 30 41 0 7-4 10-6 12-9 6-27 1-41-3 2 4 4 9 4 14 0 8-3 15-9 21-4 4-9 6-16 6zM693 1627a5 5 0 0 1-1-10c73-9 114-46 115-46a5 5 0 0 1 6 7 239 239 0 0 1-120 49zM879 1538l-7-1c-10-4-19-17-25-29-2 11-5 23-14 27-7 5-15 3-26-4a88 88 0 0 1-35-45c-6 17-16 39-31 41-5 1-10-1-13-4-14-13-11-52-10-56 0-3 2-5 5-5s5 3 5 6c-2 14-1 40 7 48l5 1c13-1 24-35 28-56 0-2 2-4 5-4s5 3 5 5 0 38 35 61c7 5 12 6 15 4 9-5 11-28 10-42a5 5 0 0 1 9-2c4 11 16 40 29 44 3 1 6 1 9-1 19-14 10-33 8-36a5 5 0 1 1 9-5c2 3 12 19 25 17 2 0 3-1 3-2 3-5-1-18-4-26-2-2-1-5 2-6 2-2 5 0 7 2 1 2 10 24 4 35-2 4-6 6-11 7-8 1-15-2-21-6 0 9-5 19-17 28-3 2-7 4-11 4z"/>
</svg>
