<svg xmlns="http://www.w3.org/2000/svg" xml:space="preserve" viewBox="0 0 2000 2000">
  <path fill="#212438" d="M421 957s231 57 180 208c-63 191-118-12-246-44-85-21-407 180-57 549 351 370 682-98 909 101 228 199 95 142 95 142s-325 29-657 67a576 576 0 0 1-631-600c9-369 256-470 407-423Z"/>
  <path fill="#f6f7e2" d="M439 338S756 21 793 68c38 47-15 153-15 153s284 108 341 108 132-155 169-139c90 38-24 237 109 256a631 631 0 0 1 414 306c384 687-83 1133-187 1171s-587 38-720-29c-132-66-57-789-189-921-133-133-567-155-276-635Z"/>
  <path fill="#261d2a" d="M694 721c-7 0-14-2-20-6-36-27-17-133-17-137 1-3 4-5 6-4 3 0 5 3 4 6-5 29-13 107 13 127 26 18 86-32 107-53a5 5 0 0 1 7 7c-7 7-61 60-100 60z"/>
  <path fill="#261d2a" d="m677 716-2-1c-3-1-4-4-2-6l72-142c1-2 4-3 7-2 2 2 3 5 2 7l-72 141c-1 2-3 3-5 3z"/>
  <path fill="#ca7a8c" d="M804 560s-46 14-51 10-30-48-30-48 58 0 81 38z"/>
  <path fill="#212438" d="M994 294s-199 301-5 344c212 47 233 195 253 171 193-234 122-373 126-401 5-29-9-228-52-237-42-10-188 136-207 136s-115-13-115-13zM907 259S639 692 393 370c0 0 284-322 388-351 104-28 11 184 32 206 19 18 94 34 94 34z"/>
  <path fill="#261d2a" d="M942 1029c-80 0-169-30-265-90a5 5 0 1 1 6-8c128 80 243 106 340 77a303 303 0 0 0 175-148 5 5 0 1 1 9 4 294 294 0 0 1-265 165z"/>
  <path fill="#fcfdff" d="m639 451-1-1c-2 0-4-2-4-5 9-69-45-122-46-122a5 5 0 0 1 7-7c3 2 59 56 49 130 0 3-2 5-5 5zM983 593a5 5 0 0 1-3-9c92-96 187-55 188-55 3 1 4 4 3 7-1 2-4 4-7 2-1 0-89-38-177 53l-4 2z"/>
  <path fill="#261d2a" d="m478 564-3-1-190-190a5 5 0 0 1 7-7l190 190a5 5 0 0 1-4 8zM440 593l-3-1-271-183a5 5 0 1 1 5-9l272 183a5 5 0 0 1-3 10zM418 618h-1l-246-70a5 5 0 0 1 2-9l246 69a5 5 0 0 1-1 10zM1182 776l-269-19c-2 0-4-3-4-6 0-2 3-4 5-4l268 19a5 5 0 0 1 0 10zM1147 902l-2-1-240-120a5 5 0 0 1 5-9l240 120a5 5 0 0 1-3 10zM1037 956l-4-2-151-142a5 5 0 0 1 7-7l151 142a5 5 0 0 1-3 9z"/>
  <path fill="#f6f7e2" d="M1188 344s95-107 117-82c22 26 19 127 19 127zM671 155s88-73 94-50c7 22-3 104-19 104-15 0-75-54-75-54z"/>
  <path fill="#212438" d="M1242 654s136 142 275 54c86-55 186-35 183 22-5 92-7 334 243 331 0 0 3-511-597-638z"/>
  <path fill="#261d2a" d="m719 192-5-2c-2-2-7-7 9-54 1-2 3-4 6-3s4 4 3 6c-4 14-9 31-10 39 5-5 12-16 17-28 5-11 5-17 4-18a5 5 0 0 1 10-4c2 5 0 15-6 28-5 12-17 32-26 35l-2 1zM1250 362h-2c-2-1-4-3-4-5-4-10 18-47 32-69 1-2 4-3 7-1 2 1 3 4 1 6-13 21-26 46-30 57l12-11c14-12 23-19 30-18 3 0 5 3 5 5-1 3-3 5-6 4-4 0-16 11-22 17-11 10-18 15-23 15z"/>
  <path fill="#212438" d="M1951 1170s-68-25-174 25c-105 51-12 174-122 136s-253-127-270 42 42 195 160 270c50 32 4 207 173 215 0 0 385-308 233-688z"/>
  <path fill="#212438" d="M1372 1090s84-76 177-25c93 50 127 160 64 147-63-12-89 0-207 26-118 25-93-106-34-148z"/>
  <path fill="#261d2a" d="M860 1805c-2 0-4-1-5-4-93-256 4-455 103-577a908 908 0 0 1 237-205c3-2 6-1 7 2 2 2 1 5-2 7-1 0-130 72-235 202a563 563 0 0 0-100 568 5 5 0 0 1-5 7z"/>
  <path fill="#212438" d="M847 1445s171-137 266 11c91 142-41 217 249 230 144 6 107 268 107 268s-469 67-553-15c-206-201-69-494-69-494z"/>
  <path fill="#fcfdff" d="m1548 548-3-2a59 59 0 0 0-31-13c-2 0-4-2-4-5s3-5 6-5c1 1 23 3 36 16a5 5 0 0 1-4 9zM1501 562l-4-2a59 59 0 0 0-30-12c-3-1-5-3-4-6 0-3 2-5 5-4 1 0 23 2 36 15a5 5 0 0 1-3 9zM1491 526l-3-1a59 59 0 0 0-30-13c-3 0-5-3-5-5 1-3 3-5 6-5 1 0 23 3 36 16a5 5 0 0 1-4 8zM1454 540l-4-1a59 59 0 0 0-30-13 5 5 0 1 1 1-10c1 0 23 3 36 16a5 5 0 0 1-3 8zM1572 588l-4-2a59 59 0 0 0-30-12 5 5 0 0 1 1-10c1 0 23 2 36 15a5 5 0 0 1-3 9zM1622 569l-4-2a59 59 0 0 0-30-12 5 5 0 0 1 1-10c1 0 23 2 36 15a5 5 0 0 1-3 9zM1645 607l-3-2a59 59 0 0 0-30-12 5 5 0 0 1 1-10c1 0 23 2 36 15a5 5 0 0 1-4 9zM1933 1418a5 5 0 0 1-5-8c7-15 1-29 1-29a5 5 0 1 1 9-5c0 1 8 18-1 39l-4 3zM1900 1375a5 5 0 0 1-4-7c7-16 0-30 0-30a5 5 0 1 1 9-4c1 1 9 18 0 38-1 2-3 3-5 3zM1208 1932l-14-2a5 5 0 0 1 3-10c16 5 29-3 30-3a5 5 0 0 1 5 8s-10 7-24 7zM1250 1903c-4 0-8 0-13-2a5 5 0 0 1 3-9c16 4 29-4 29-4a5 5 0 0 1 6 9c-1 0-11 6-25 6zM1279 1932l-14-2a5 5 0 0 1 3-10c17 5 29-3 30-3a5 5 0 0 1 5 8s-10 7-24 7zM1312 1887l-14-2a5 5 0 0 1 3-10c17 5 29-3 30-3a5 5 0 0 1 5 8s-10 7-24 7zM1345 1932l-14-2a5 5 0 0 1 3-10c17 5 29-3 30-3a5 5 0 0 1 5 8s-10 7-24 7zM1376 1901l-14-2a5 5 0 0 1 3-10c17 5 29-3 30-3a5 5 0 0 1 5 8c0 1-10 7-24 7zM513 1937c-3 0-20 0-34-15-2-2-2-5 0-7s5-2 7 0c12 13 27 12 27 12 3 0 6 2 6 5s-2 5-5 5h-1zM471 1904c-4 0-21-1-35-15-2-2-2-6 1-7 2-2 5-2 7 0 11 12 26 12 27 12 2 0 5 2 5 5s-2 5-5 5zM456 1930c-3 0-20-1-34-15-2-2-2-5 0-7s5-2 7 0c12 12 27 12 28 12 2 0 5 2 5 5s-2 5-5 5h-1zM350 1880c-3 0-21 0-34-15-2-2-2-5 0-7s5-2 7 0c12 13 27 12 27 12 3 0 5 2 5 5s-2 5-4 5h-1zM283 997a5 5 0 0 1-3-8c0-1 13-15 35-15 2-1 5 2 5 5 0 2-2 5-5 5-18 0-28 11-28 11-1 2-2 2-4 2zM320 1019l-4-1c-2-2-1-6 1-7 0-1 14-14 36-12a5 5 0 1 1-1 10c-17-2-28 8-29 9l-3 1zM254 1043l-4-2c-2-2-2-5 0-7 1 0 15-13 37-11a5 5 0 0 1-1 10c-17-2-28 8-29 9l-3 1zM192 1055l-4-2c-1-2-1-5 1-7 0 0 14-13 36-11a5 5 0 1 1-1 10c-17-2-28 8-28 8l-4 2zM222 1019a5 5 0 0 1-4-8s12-15 34-17c3 0 5 2 5 5s-2 5-4 5c-18 1-27 13-27 13-1 2-3 2-4 2zM353 984a5 5 0 0 1-3-9c1 0 18-10 38-2a5 5 0 0 1-3 9c-16-6-30 2-30 2h-2zM388 1918c-3 0-21 0-35-15-1-2-1-5 1-7s5-2 7 0c12 13 27 12 27 12 3 0 5 2 5 5s-2 5-5 5zM412 1888c-4 0-21-1-35-16-2-2-2-5 0-7s6-2 7 0c12 13 27 12 28 13 2-1 5 2 5 4 0 3-2 5-5 6zM1877 1512l-3-1c-2-2-3-5-1-7 11-14 9-28 9-29 0-3 1-5 4-6 3 0 5 2 6 4 0 1 3 20-11 37l-4 2zM1943 1351a5 5 0 0 1-5-7c7-16 1-30 1-30a5 5 0 1 1 9-4c0 1 8 18-1 38-1 2-2 3-4 3zM1919 1314a5 5 0 0 1-5-7c7-16 1-30 1-30a5 5 0 1 1 9-4s8 18-1 38c0 2-2 3-4 3zM1895 1450l-2-1c-2-1-4-4-2-6 7-16 1-30 0-30-1-3 0-6 3-7 2-1 5 0 6 3 1 0 9 18 0 38-1 2-3 3-5 3zM1916 1490l-3-1c-2-1-3-4-1-7 10-14 6-28 6-29-1-3 1-5 3-6 3-1 6 1 7 3 0 1 4 20-8 38l-4 2z"/>
</svg>
