<svg xmlns="http://www.w3.org/2000/svg" xml:space="preserve" viewBox="0 0 1800 2100">
  <path fill="#212438" d="M1582 1489s30 517-218 481c-319-46-451-111-590-126-231-26-352 24-417 105-96 121 258 0 375 5 235 10 705 220 825 95s150-525 135-525-110-35-110-35z"/>
  <path fill="#ead9ba" d="M1146 569s-20-314-40-294-260 134-260 134-260-54-267-80c-7-27 67-307 13-274-53 34-261 220-393 354-95 96-338 1361 172 1341 51-2 1195-1 1288 12s220-760 7-860c-214-100-500 40-520-333z"/>
  <path fill="#212438" d="M1131 534S823 415 850 402s269-260 276-233c6 26 25 371 5 365zM716 866S607 527 556 545c-51 17-210 274-195 311 14 38 317 86 355 10zM579 329s-247-48-227-74C424 164 614-6 621 14c6 20-42 315-42 315Z"/>
  <path fill="#261d2a" d="M739 674c2 0 4-1 5-3 57-109 246-78 248-78a5 5 0 0 0 1-9c-2-1-49-9-105-3-75 8-128 37-153 85a5 5 0 0 0 4 8zm247 1076h1c3-1 4-3 4-6-2-6-123-583 18-690s541 69 545 71a5 5 0 0 0 4-9c-1-1-103-46-222-77-160-42-272-39-333 7-62 47-84 179-67 393 13 159 45 306 45 307 0 3 3 4 5 4zm-547 39c19 0 40-2 64-7 129-26 351-142 363-412 0-2-2-5-5-5s-5 2-5 5c-12 263-229 377-355 402-71 15-116 5-124-12-5-11 5-27 27-46 169-139 261-400 262-402a5 5 0 0 0-10-3c-1 2-91 260-258 397-34 28-35 47-30 58 8 17 34 25 71 25zm-108-429c2 0 4-2 5-4 27-186 183-273 276-326 46-25 73-41 71-59-2-13-21-24-66-36-246-65-404 225-406 228a5 5 0 0 0 9 5c2-3 156-286 395-223 37 10 57 19 58 28 1 11-30 28-66 49-95 53-253 142-281 332a5 5 0 0 0 5 6zm65-725c3 0 5-2 5-5-2-44-16-77-43-100-50-41-125-30-128-30a5 5 0 0 0 2 10s73-11 119 28c25 20 38 52 40 92 0 3 2 5 5 5z"/>
  <path fill="#ca7a8c" d="M935 436s114-125 113-115c-2 11 25 159 1 157-24-1-114-42-114-42z"/>
  <path fill="#261d2a" d="M978 469c5 0 20-6 63-38a5 5 0 1 0-5-8c-18 13-39 27-51 33 14-23 51-73 52-74a5 5 0 1 0-8-5c-2 2-49 65-56 81-3 6 0 8 1 9l4 2z"/>
  <path fill="#ca7a8c" d="M529 284s26-146 18-141c-7 4-118 109-118 114 0 4 100 27 100 27z"/>
  <path fill="#261d2a" d="M484 277c1 0 3 0 4-2 7-8 25-55 27-60a5 5 0 1 0-10-4l-20 50c-2-11-3-29-3-45 0-3-2-5-5-5s-5 3-5 5c1 58 6 60 10 61h2zm176 161c2 0 4-1 5-4 3-20 23-22 24-23 2 0 4-2 4-5s-3-5-5-5c-10 1-29 9-33 32a5 5 0 0 0 5 5zm-62-22h1c3-1 5-3 4-6-3-21 15-30 15-30a5 5 0 0 0-4-9c-9 4-24 18-20 41 0 2 2 4 4 4zm83 61h1c3 0 4-3 4-6-3-20 15-28 16-29a5 5 0 0 0-4-9c-9 4-25 17-22 40 1 2 3 4 5 4zm-64-35h1c2 0 4-3 4-5-4-21 14-30 15-30 2-1 3-4 2-7-1-2-4-3-7-2-8 4-24 18-20 40 0 3 2 4 5 4zm13 49h1c3-1 5-3 4-6-4-21 15-30 15-30a5 5 0 0 0-4-9c-9 4-25 18-21 41 1 2 3 4 5 4zm-70-19h1c3 0 5-3 4-5-3-21 14-30 15-30 2-1 3-4 2-7-1-2-4-3-6-2-9 4-25 18-21 40 1 3 3 4 5 4zm-3-55h1c2 0 4-3 4-5-4-21 14-30 15-30 2-1 3-4 2-7-1-2-4-3-7-2-8 4-24 18-20 40 0 3 2 4 5 4zm27 83h2c2-1 3-4 2-6-7-20 9-32 9-32a5 5 0 0 0-6-8c-8 5-20 22-12 43 1 2 3 3 5 3zm310 274 2-1 348-106a5 5 0 0 0-3-10L893 764a5 5 0 0 0 1 10zm17 18 359-42a5 5 0 0 0-1-10l-359 42a5 5 0 0 0 1 10zm365 35a5 5 0 0 0 0-10l-352-13c-2-1-5 2-5 4 0 3 2 5 5 6l352 13zm-965-88a5 5 0 0 0 2-10L68 626c-3-1-6 0-7 2-1 3 0 6 3 7l245 103 2 1zm-20 13a5 5 0 0 0 1-10L42 689c-3-1-6 1-6 3-1 3 1 6 4 6l250 54h1zM22 790h1l263-12c3 0 5-2 5-5 0-2-3-4-5-4L22 780a5 5 0 0 0 0 10z"/>
  <path fill="#212438" d="M381 987s80 15 76 40c-3 25 19 72 39 68 20-3 105-66 190-93s-160-155-305-15z"/>
  <path fill="#fcfdff" d="M577 1005c2 0 3 0 4-2 1 0 22-23 111-8 2 1 5-1 5-4 1-3-1-5-4-6-97-17-119 11-120 12a5 5 0 0 0 4 8zm107-33c2 0 4-1 5-3s0-5-2-7c-50-27-106-7-108-7a5 5 0 0 0 4 10 134 134 0 0 1 101 7z"/>
  <path fill="#ca7a8c" d="M586 782s63 165-17 183c-80 19-70-140-72-150 0 0 55 69 89-33z"/>
  <path fill="#261d2a" d="M559 915c3 0 5-2 5-5 0-6 2-64-3-80a5 5 0 1 0-10 3c4 12 4 60 3 77 0 3 2 5 5 5z"/>
  <path fill="#fcfdff" d="m539 843 7-1c41-11 58-108 59-112 1-3-1-6-4-6-3-1-5 1-6 4-4 26-23 96-51 104s-63-55-75-80c-1-2-4-3-6-2-3 1-4 4-3 7 5 9 41 86 79 86z"/>
  <path fill="#fcfdff" d="M545 842c3 0 5-3 5-5l-17-145c0-3-2-5-5-4-3 0-5 2-4 5l16 145c0 2 2 4 5 4z"/>
  <path fill="#ca7a8c" d="M485 667s35 27 41 25c5-2 41-32 41-32s-50-18-82 7z"/>
  <path fill="#212438" d="M681 1708s23-100-57-113c-57-9-53-97-73-68-123 177-180 203-217 233s149 80 347-52z"/>
  <path fill="#fcfdff" d="m359 1782 4-2c17-19 91-53 92-54 2-1 3-4 2-6-1-3-4-4-7-3-3 2-76 36-95 56a5 5 0 0 0 4 9zm35 18 4-1c25-27 75-41 76-41a5 5 0 1 0-3-9c-2 0-53 14-80 43-2 2-2 5 0 7l3 1z"/>
  <path fill="#212438" d="M786 1790s5-133 183-150c0 0 58 134 53 137s-236 13-236 13z"/>
  <path fill="#fcfdff" d="M786 1795c2 0 4-1 5-3 6-23 84-36 132-39 3 0 5-2 4-5 0-3-2-5-5-4-13 0-130 7-141 45a5 5 0 0 0 5 6zm6-35c2 0 4-1 5-3 20-40 85-42 86-42 2 0 5-2 4-5 0-3-2-5-5-5s-71 2-94 48a5 5 0 0 0 4 7z"/>
  <path fill="#261d2a" d="M1017 1245h2c3-1 4-4 3-6-3-9-3-16 0-22 5-8 14-11 14-11a5 5 0 1 0-3-9s-13 3-19 15c-5 8-5 18-1 30 0 2 2 3 4 3zm-18-61h1c3-1 4-4 3-7-2-8-2-16 1-21 4-8 13-11 13-11a5 5 0 1 0-3-10c0 1-13 4-19 16-4 8-5 18-1 30 1 2 3 3 5 3zm-19 79 2-1c3-2 3-5 2-7-5-8-6-15-5-21 2-9 11-14 11-14 2-1 3-4 2-6-2-3-5-4-7-2-1 0-12 6-16 19-2 9 0 19 6 29 1 2 3 3 5 3zm21 45 3-1c2-2 3-5 1-7-5-8-6-15-5-21 3-9 11-14 11-14 2-1 3-4 2-6-1-3-4-4-7-2 0 0-12 6-15 19-3 9-1 19 6 29 1 2 2 3 4 3zm40-129h2c2-1 4-4 3-7-3-8-3-16 0-21 5-8 14-11 14-11a5 5 0 1 0-3-10c-1 1-13 4-20 16-4 8-4 18-1 30 1 2 3 3 5 3zm-16-58h2c2-1 4-4 3-6-3-9-3-16 0-22 4-8 13-10 13-10a5 5 0 1 0-2-10c-1 0-13 4-20 15-4 9-5 19-1 30 1 2 3 3 5 3zm674-122c2 0 5-2 5-4 0-1 2-14-6-24-5-8-14-12-26-14-3 0-5 2-6 5 0 2 2 5 5 5 9 1 15 4 19 10 6 7 4 16 4 16a5 5 0 0 0 5 6zm31 85c2 0 4-1 5-3 0 0 6-12 1-25-3-9-10-15-21-20-3-1-6 0-7 2-1 3 0 6 3 7 8 3 14 8 16 15 3 8-1 17-1 17a5 5 0 0 0 4 7zm-78-137c3 0 5-1 5-4 0 0 3-13-5-24-6-8-15-12-27-14-3 0-5 2-5 5-1 3 1 5 4 5 9 1 16 5 19 10 6 7 4 16 4 17a5 5 0 0 0 5 5zm-56-10c3 0 5-3 4-6 0 0-2-13-13-21-8-5-17-6-29-4a5 5 0 0 0 2 10c9-2 16-1 21 2 8 6 10 15 10 15 0 2 2 4 5 4zM189 1621a5 5 0 0 0 2-9c-8-5-13-10-15-16-2-9 2-17 3-17a5 5 0 0 0-9-5s-7 12-3 25c2 9 9 16 20 22h2zm13-53a5 5 0 0 0 2-10c-8-4-13-9-15-15-2-9 2-17 2-17 2-3 1-6-1-7-3-2-6-1-7 1-1 1-7 12-3 25 2 9 9 17 19 22l3 1zm-38-12a5 5 0 0 0 2-9c-8-5-13-10-14-16-3-9 2-17 2-17 1-3 0-6-2-7s-5-1-7 2c0 0-7 11-3 24 3 9 9 17 20 22l2 1zm11-65a5 5 0 0 0 2-10c-8-4-13-9-14-15-3-9 2-17 2-17 1-3 0-6-2-7-2-2-5-1-7 1 0 1-7 12-3 25 2 9 9 17 20 22l2 1zm-43 10a5 5 0 0 0 2-10c-8-4-13-9-15-16-2-8 2-16 2-17a5 5 0 0 0-8-5c-1 1-7 12-4 25 3 9 10 17 20 22l3 1zm10-51a5 5 0 0 0 3-9c-8-4-13-10-15-16-3-9 2-17 2-17 2-2 1-5-2-7-2-1-5 0-6 2-1 0-7 12-4 25 3 9 10 16 20 22h2zm85 193a5 5 0 0 0 3-10c-8-4-13-9-15-15-3-9 2-17 2-17 1-3 1-6-2-7-2-2-5-1-7 2 0 0-6 11-3 24 3 9 9 17 20 22l2 1zm1417-646c2 0 4-2 4-4 1 0 3-13-5-24-6-8-15-12-27-14-2 0-5 2-5 5 0 2 1 5 4 5 9 1 16 4 20 10 5 7 4 16 4 16a5 5 0 0 0 5 6zm-57-21c3-1 5-3 5-6 0 0-1-13-11-22-7-6-17-9-29-8-2 1-4 3-4 6s3 4 5 4c9-1 16 1 21 5 7 6 8 16 8 16 0 2 2 5 5 5zm133 152c2 0 3-1 4-3 0-1 5-13 0-25-4-9-12-15-23-19-3-1-6 1-6 3-1 3 0 6 3 7 8 2 14 7 17 13 3 8 0 17 0 17a5 5 0 0 0 5 7zm-186-200 1-1c3 0 4-3 4-5a32 32 0 0 0-44-23c-3 0-4 3-4 6 1 2 4 4 7 3 8-2 16-2 21 2 8 4 10 14 10 14 1 2 3 4 5 4zm150 135c2 0 3-1 4-3 1 0 6-12 1-25-4-8-11-15-22-19-3-1-6 0-7 3-1 2 1 5 3 6 9 3 14 8 17 14 3 9-1 17-1 17a5 5 0 0 0 5 7zm-621 55c3 0 5-2 5-5 0-9 2-16 7-20 7-7 16-6 16-6 3 0 5-2 5-5 1-3-1-5-4-5-1 0-14-1-24 8-7 7-10 16-10 28 0 3 2 5 5 5z"/>
  <path fill="#fcfdff" d="M1492 2048c12 0 29-14 35-19a5 5 0 0 0-7-8c-12 11-26 19-29 17a5 5 0 0 0-5 9l6 1zm10-55c12 0 29-14 35-19a5 5 0 0 0-7-8c-12 11-26 19-29 17a5 5 0 0 0-5 9l6 1zm-63 33c12 0 30-15 35-20a5 5 0 0 0-7-7c-11 11-25 19-29 17a5 5 0 1 0-4 9l5 1zm-34 31c12 0 27-6 32-9a5 5 0 1 0-4-9c-14 6-30 9-33 7a5 5 0 1 0-7 7c3 2 7 4 12 4zm-951-138h3c13-9 28-15 31-13a5 5 0 1 0 6-8c-11-8-36 7-43 12a5 5 0 0 0 3 9zm62 10h3c13-9 28-15 32-13a5 5 0 1 0 5-8c-11-8-35 7-42 12a5 5 0 0 0 2 9zm23-37 3-1c13-9 28-14 31-12a5 5 0 1 0 6-8c-11-8-36 7-43 12a5 5 0 0 0 3 9zm59 9h2c15-7 30-10 33-7a5 5 0 1 0 7-8c-10-9-36 2-44 6a5 5 0 0 0 2 9zm952 98c12 0 28-21 32-28 2-2 1-5-1-7-3-1-6 0-7 2-9 13-21 24-24 23-3 0-6 2-6 4-1 3 1 6 3 6h3z"/>
</svg>
