<svg xmlns="http://www.w3.org/2000/svg" xml:space="preserve" viewBox="0 0 3000 3000">
  <path fill="#919691" d="M1500 2410a388 270 0 0 0-385 270 388 270 0 0 0 385 270 388 270 0 0 0 385-270 388 270 0 0 0-385-270Z"/>
  <path fill="#05c4c9" d="m2655 1417 136-916V50l-617 838z"/>
  <path fill="#2e7d7d" d="m2791 50-926 526a1169 1083 0 0 0-359-54 1169 1083 0 0 0-6 0v2166a1169 1083 0 0 0 6 0 1169 1083 0 0 0 1169-1083 1169 1083 0 0 0-418-828zM345 1417 209 501V50l617 838z"/>
  <path fill="#05c4c9" d="m209 50 534 727a1169 1083 0 0 0-418 828 1169 1083 0 0 0 1169 1083 1169 1083 0 0 0 6 0V522a1169 1083 0 0 0-6 0 1169 1083 0 0 0-359 54z"/>
  <path fill="#b2baa8" d="M816 1406a400 257 30 0 0-192 99 400 257 30 0 0 220 422 400 257 30 0 0 475-24 400 257 30 0 0-220-421 400 257 30 0 0-283-76zm1368 0a257 400 60 0 0-283 76 257 400 60 0 0-220 421 257 400 60 0 0 475 24 257 400 60 0 0 220-422 257 400 60 0 0-192-99z"/>
  <path fill="#240a0d" d="m664 1513 190 355 347 37 22-305zm1672 0-559 87 22 305 347-37z"/>
  <path fill="#e5d9bf" d="M1002 1584a130 131 0 0 0-130 131 130 131 0 0 0 130 130 130 131 0 0 0 129-130 130 131 0 0 0-129-131zm996 0a130 131 0 0 0-129 131 130 131 0 0 0 129 130 130 131 0 0 0 130-130 130 131 0 0 0-130-131z"/>
  <path fill="#240a0d" d="M1280 2325s-32 226-32 299c0 107 113 213 252 213s252-107 252-213c0-73-32-299-32-299h-220Z"/>
  <path fill="#05c4c9" d="m1799 1905-299-96v516h375z"/>
  <path fill="#2e7d7d" d="m1201 1905 299-96v516h-375Z"/>
  <path fill="#e5d9bf" d="M1041 2018c-315 248-377 504-66 685 85 49 248 21 524 24v1h2v-1c276-3 439 25 524-24 311-181 249-437-66-685-47 65-435 508-459 655-24-147-412-590-459-655z"/>
  <path fill="#240a0d" d="M1002 1586a38 93 0 0 0-38 93 38 93 0 0 0 38 92 38 93 0 0 0 37-92 38 93 0 0 0-37-93zm996 0a38 93 0 0 0-37 93 38 93 0 0 0 37 92 38 93 0 0 0 38-92 38 93 0 0 0-38-93z"/>
</svg>
